<?xml version="1.0" encoding="utf-8"?>
<!-- Generator: Adobe Illustrator 21.0.2, SVG Export Plug-In . SVG Version: 6.00 Build 0)  -->
<svg version="1.1" id="Capa_1" xmlns="http://www.w3.org/2000/svg" xmlns:xlink="http://www.w3.org/1999/xlink" x="0px" y="0px"
	 viewBox="0 0 360 100.4" style="enable-background:new 0 0 360 100.4;" xml:space="preserve">
<style type="text/css">
	.st0{fill:url(#SVGID_1_);}
	.st1{opacity:0.11;}
	.st2{fill:#003BE2;}
	.st3{fill:#F9F0CD;}
	.st4{fill:#FFA582;}
	.st5{fill:#FFFFFF;}
	.st6{opacity:0.15;}
	.st7{fill:none;stroke:#0D6BB2;stroke-width:2.2785;stroke-linecap:round;stroke-linejoin:round;stroke-miterlimit:10;}
	.st8{fill:#73F7FF;}
	.st9{fill:none;stroke:#0D6BB2;stroke-width:1.9937;stroke-linecap:round;stroke-miterlimit:10;}
	.st10{fill:#FF8882;}
	.st11{fill:none;stroke:#0D6BB2;stroke-width:1.9937;stroke-linecap:round;stroke-linejoin:round;stroke-miterlimit:10;}
	.st12{enable-background:new    ;}
	.st13{fill:#2B2B2B;}
	.st14{fill:#ED4E4A;}
</style>
<g>
	<g>
		
			<linearGradient id="SVGID_1_" gradientUnits="userSpaceOnUse" x1="286.2162" y1="1193.425" x2="73.9055" y2="984.2831" gradientTransform="matrix(1 0 0 1 0 -1034)">
			<stop  offset="0" style="stop-color:#CFFCFF"/>
			<stop  offset="1" style="stop-color:#C4D2FF"/>
		</linearGradient>
		<path class="st0" d="M360,21.2v67.3c0,0.2,0,0.4,0,0.6c0,0.4,0,0.8-0.1,1.1c-0.9,5.8-5.8,10.2-11.8,10.2H11.9
			C5.4,100.4,0.1,95,0,88.5V21.2c0-6.6,5.4-12,11.9-12H348C354.6,9.2,360,14.6,360,21.2z"/>
	</g>
	<g class="st1">
		<path class="st2" d="M360,81v7.4c0,0.2,0,0.4,0,0.6c0,0.4,0,0.8-0.1,1.1c-0.9,5.8-5.8,10.2-11.8,10.2H138.6
			c29.9-12.8,67.4-22.2,108.6-25.9C288.9,70.7,328,73.4,360,81z"/>
	</g>
	<g>
		<path class="st3" d="M298.6,57.3v22.5c0,2.6-2.1,4.7-4.7,4.7h-45.3c-2.6,0-4.7-2.1-4.7-4.7V57.3"/>
		<g>
			<g>
				<g>
					<path class="st4" d="M306.7,51.8c-0.1-1-0.3-2.1-0.8-3.1v-0.1l-14.3-20.4c-1.1-1.5-2.9-2.4-4.8-2.4h-29.3
						c-1.9,0-3.7,0.9-4.8,2.4l-14.3,20.4l0,0v0.1l-0.1,0.2l0,0c-0.4,0.9-0.7,1.9-0.7,2.9l0,0l0,0c-0.3,4.4,3,8.6,7.8,8.8
						c0.1,0,0.2,0,0.4,0c4.9,0,8.8-4,8.8-8.8l0,0l0,0c0,0.3,0,0.6,0,0.9c0.5,4.5,4.2,7.9,8.8,7.9c4.5,0,8.2-3.4,8.8-7.7l0,0
						c0-0.4,0.1-0.7,0.1-1.1c0,4.9,4,8.8,8.8,8.8s8.8-4,8.8-8.8l0,0c0,0.8,0.1,1.5,0.3,2.2c1,3.8,4.4,6.6,8.6,6.6c0.1,0,0.2,0,0.4,0
						C303.7,60.4,307,56.2,306.7,51.8z"/>
				</g>
			</g>
			<path class="st5" d="M272.1,25.9L272,50.7v2.2l0,0l0,0c-0.6,4.3-4.3,7.7-8.8,7.7c-4.6,0-8.3-3.5-8.8-7.9l1.4-5.7l7.4-21.1H272.1z
				"/>
			<path class="st5" d="M298.9,60.6c-0.1,0-0.2,0-0.4,0c-4.1,0-7.6-2.8-8.6-6.6l-0.3-2.2l0,0l-1-4.2l-7.8-21.7h5.8
				c1.9,0,3.7,0.9,4.8,2.4l14.3,20.4v0.1c0.5,1,0.8,2,0.8,3.1C307,56.2,303.7,60.4,298.9,60.6z"/>
			<g class="st6">
				<g>
					<path d="M254.4,51.8L254.4,51.8c0,4.9-4,8.8-8.8,8.8c-0.1,0-0.2,0-0.4,0c-4.8-0.2-8.1-4.4-7.8-8.8H254.4z"/>
					<path d="M272.1,51.8c0,0.4,0,0.8-0.1,1.1l0,0c-0.6,4.3-4.3,7.7-8.8,7.7c-4.6,0-8.3-3.5-8.8-7.9c0-0.3,0-0.6,0-0.9l0,0
						C254.4,51.8,272.1,51.8,272.1,51.8z"/>
					<path d="M289.7,51.8L289.7,51.8c0,4.9-4,8.8-8.8,8.8s-8.8-4-8.8-8.8H289.7z"/>
					<path d="M298.9,60.6c-0.1,0-0.2,0-0.4,0c-4.1,0-7.6-2.8-8.6-6.6c-0.2-0.7-0.3-1.5-0.3-2.2l0,0h17
						C307,56.2,303.7,60.4,298.9,60.6z"/>
				</g>
			</g>
		</g>
		<g>
			<g>
				<g>
					<path class="st7" d="M309.9,52.6c-0.1-1-0.3-2.1-0.8-3.1v-0.1l-14.5-20.7c-1.2-1.5-3-2.4-4.9-2.4h-29.8c-1.9,0-3.7,0.9-4.9,2.4
						l-14.5,20.7l0,0v0.1l-0.1,0.2l0,0c-0.4,1-0.7,1.9-0.8,2.9l0,0l0,0c-0.3,4.5,3,8.8,7.9,9c0.1,0,0.2,0,0.4,0c5,0,9-4,9-9l0,0l0,0
						c0,0.3,0,0.6,0,0.9c0.5,4.5,4.3,8,8.9,8s8.3-3.4,8.9-7.8l0,0c0-0.4,0.1-0.8,0.1-1.1c0,5,4,9,9,9s9-4,9-9l0,0
						c0,0.8,0.1,1.5,0.3,2.3c1,3.9,4.5,6.7,8.7,6.7c0.1,0,0.2,0,0.4,0C306.8,61.3,310.2,57.1,309.9,52.6z"/>
				</g>
			</g>
			<polyline class="st7" points="274.7,26.4 274.7,53.7 274.7,53.7 274.6,53.7 			"/>
			<polyline class="st7" points="256.7,52.6 258,47.7 265.5,26.4 			"/>
			<polyline class="st7" points="292.7,52.6 291.6,48.3 283.7,26.4 			"/>
			<path class="st7" d="M302,61.8v17.9c0,2.6-2.1,4.7-4.7,4.7H252c-2.6,0-4.7-2.1-4.7-4.7V61.8"/>
		</g>
	</g>
	<g>
		<path class="st8" d="M316.5,63.9c0.1,0,3-1.5,6.8-4.1c2.1-1.5,4.5-3.4,6.9-5.6c2.7-2.6,5.4-5.6,7.4-9.2c0.3-0.5,0.5-1,0.8-1.5
			c0.9-1.8,1.6-3.7,2.1-5.7c0.4-1.7,0.6-3.4,0.6-5.2V12.5c0-1.2-0.8-2.3-1.9-2.7l-23-8.6c-0.7-0.3-1.4-0.2-2,0l-23,8.6
			c-1.1,0.4-1.9,1.5-1.9,2.7v20.1c0,1.8,0.2,3.6,0.6,5.2c0.5,2,1.2,3.9,2.1,5.7c0.2,0.5,0.5,1,0.8,1.5c2,3.5,4.7,6.6,7.4,9.2
			c2.4,2.2,4.8,4.1,6.9,5.6c3.8,2.6,6.7,4.1,6.8,4.1C314.8,64.3,315.7,64.3,316.5,63.9L316.5,63.9z"/>
		<path class="st9" d="M319.5,63.9c0.1,0,3-1.5,6.8-4.1c2.1-1.5,4.5-3.4,6.9-5.6c2.7-2.6,5.4-5.6,7.4-9.2c0.3-0.5,0.5-1,0.8-1.5
			c0.9-1.8,1.6-3.7,2.1-5.7c0.4-1.7,0.6-3.4,0.6-5.2V12.5c0-1.2-0.8-2.3-1.9-2.7l-23-8.6c-0.7-0.3-1.4-0.2-2,0l-23,8.6
			c-1.1,0.4-1.9,1.5-1.9,2.7v20.1c0,1.8,0.2,3.6,0.6,5.2c0.5,2,1.2,3.9,2.1,5.7c0.2,0.5,0.5,1,0.8,1.5c2,3.5,4.7,6.6,7.4,9.2
			c2.4,2.2,4.8,4.1,6.9,5.6c3.8,2.6,6.7,4.1,6.8,4.1C317.8,64.3,318.7,64.3,319.5,63.9L319.5,63.9z"/>
		<g>
			<polygon class="st10" points="315.2,10.4 319.3,23.1 332.7,23.1 321.9,30.9 326,43.6 315.2,35.8 304.4,43.6 308.5,30.9 
				297.8,23.1 311.1,23.1 			"/>
		</g>
		<polygon class="st11" points="318.2,10.4 322.3,23.1 335.7,23.1 324.9,30.9 329,43.6 318.2,35.8 307.4,43.6 311.5,30.9 
			300.8,23.1 314.1,23.1 		"/>
	</g>
	<g class="st12">
		<path class="st13" d="M30.4,27.4c0.8,0.4,1.4,0.9,1.9,1.5c0.4,0.7,0.6,1.5,0.6,2.4c0,0.9-0.2,1.7-0.6,2.4
			c-0.4,0.7-1.1,1.2-1.9,1.6c-0.8,0.4-1.8,0.5-2.9,0.5h-2.8v3.6h-2.3V26.9h5.2C28.7,26.9,29.6,27.1,30.4,27.4z M29.8,33.2
			c0.5-0.4,0.8-1,0.8-1.9c0-0.8-0.3-1.4-0.8-1.9c-0.5-0.4-1.3-0.6-2.3-0.6h-2.7v5h2.7C28.5,33.9,29.3,33.6,29.8,33.2z"/>
		<path class="st13" d="M40.5,29.8v2.1c-0.2,0-0.4-0.1-0.5-0.1c-0.9,0-1.6,0.3-2.1,0.8c-0.5,0.5-0.7,1.2-0.7,2.2v4.7H35v-9.6h2.1
			v1.4C37.8,30.3,38.9,29.8,40.5,29.8z"/>
		<path class="st13" d="M44,39c-0.8-0.4-1.4-1-1.8-1.8s-0.7-1.6-0.7-2.5c0-0.9,0.2-1.8,0.7-2.5c0.4-0.7,1-1.3,1.8-1.7
			c0.8-0.4,1.7-0.6,2.6-0.6c1,0,1.9,0.2,2.6,0.6c0.8,0.4,1.4,1,1.8,1.7c0.4,0.7,0.7,1.6,0.7,2.5c0,0.9-0.2,1.8-0.7,2.5
			s-1,1.3-1.8,1.8c-0.8,0.4-1.7,0.6-2.6,0.6C45.7,39.6,44.8,39.4,44,39z M48.7,36.8c0.5-0.6,0.8-1.3,0.8-2.2c0-0.9-0.3-1.6-0.8-2.2
			s-1.2-0.8-2.1-0.8s-1.5,0.3-2,0.8c-0.5,0.6-0.8,1.3-0.8,2.2c0,0.9,0.3,1.6,0.8,2.2c0.5,0.6,1.2,0.8,2,0.8S48.2,37.4,48.7,36.8z"/>
		<path class="st13" d="M59.7,39c-0.3,0.2-0.6,0.4-1,0.5s-0.8,0.2-1.2,0.2c-1.1,0-1.9-0.3-2.4-0.8c-0.6-0.6-0.9-1.4-0.9-2.4v-4.6
			h-1.6v-1.8h1.6v-2.2h2.2v2.2h2.6v1.8h-2.6v4.6c0,0.5,0.1,0.8,0.3,1.1c0.2,0.2,0.6,0.4,1,0.4c0.5,0,0.9-0.1,1.3-0.4L59.7,39z"/>
		<path class="st13" d="M70.3,35.4h-7.5c0.1,0.7,0.5,1.3,1,1.7c0.6,0.4,1.3,0.6,2.1,0.6c1.1,0,1.9-0.3,2.6-1l1.2,1.4
			c-0.4,0.5-1,0.9-1.6,1.2c-0.7,0.3-1.4,0.4-2.2,0.4c-1.1,0-2-0.2-2.8-0.6c-0.8-0.4-1.4-1-1.9-1.8s-0.7-1.6-0.7-2.5
			c0-0.9,0.2-1.8,0.6-2.5c0.4-0.8,1-1.3,1.8-1.8c0.8-0.4,1.6-0.6,2.6-0.6c0.9,0,1.8,0.2,2.5,0.6c0.7,0.4,1.3,1,1.7,1.7
			s0.6,1.6,0.6,2.6C70.3,34.9,70.3,35.1,70.3,35.4z M63.6,32.2c-0.5,0.4-0.8,1-0.9,1.7h5.5c-0.1-0.7-0.4-1.3-0.9-1.7
			s-1.1-0.6-1.8-0.6C64.7,31.6,64.1,31.8,63.6,32.2z"/>
		<path class="st13" d="M82,29.9V38c0,3.4-1.7,5.1-5.2,5.1c-0.9,0-1.8-0.1-2.6-0.4s-1.5-0.6-2.1-1l1-1.7c0.4,0.3,1,0.6,1.6,0.8
			s1.3,0.3,2,0.3c1.1,0,1.8-0.2,2.3-0.7c0.5-0.5,0.7-1.2,0.7-2.2v-0.5c-0.4,0.4-0.9,0.7-1.4,1c-0.6,0.2-1.2,0.3-1.8,0.3
			c-0.9,0-1.7-0.2-2.5-0.6c-0.7-0.4-1.3-0.9-1.7-1.6c-0.4-0.7-0.6-1.5-0.6-2.4c0-0.9,0.2-1.7,0.6-2.4c0.4-0.7,1-1.2,1.7-1.6
			c0.7-0.4,1.6-0.6,2.5-0.6c0.7,0,1.3,0.1,1.9,0.3s1,0.6,1.4,1v-1.3H82z M79,36.4c0.5-0.5,0.8-1.2,0.8-2c0-0.8-0.3-1.5-0.8-2
			c-0.5-0.5-1.2-0.8-2.1-0.8c-0.9,0-1.6,0.3-2.1,0.8c-0.5,0.5-0.8,1.2-0.8,2c0,0.8,0.3,1.5,0.8,2c0.5,0.5,1.3,0.8,2.1,0.8
			C77.7,37.1,78.4,36.9,79,36.4z"/>
		<path class="st13" d="M94,35.4h-7.5c0.1,0.7,0.5,1.3,1,1.7c0.6,0.4,1.3,0.6,2.1,0.6c1.1,0,1.9-0.3,2.6-1l1.2,1.4
			c-0.4,0.5-1,0.9-1.6,1.2c-0.7,0.3-1.4,0.4-2.2,0.4c-1.1,0-2-0.2-2.8-0.6c-0.8-0.4-1.4-1-1.9-1.8s-0.7-1.6-0.7-2.5
			c0-0.9,0.2-1.8,0.6-2.5c0.4-0.8,1-1.3,1.8-1.8c0.8-0.4,1.6-0.6,2.6-0.6c0.9,0,1.8,0.2,2.5,0.6c0.7,0.4,1.3,1,1.7,1.7
			s0.6,1.6,0.6,2.6C94,34.9,94,35.1,94,35.4z M87.3,32.2c-0.5,0.4-0.8,1-0.9,1.7h5.5c-0.1-0.7-0.4-1.3-0.9-1.7s-1.1-0.6-1.8-0.6
			C88.4,31.6,87.8,31.8,87.3,32.2z"/>
		<path class="st13" d="M108,30.8c0.8,0.7,1.1,1.7,1.1,3.1v5.6H107v-1.2c-0.3,0.4-0.7,0.7-1.2,1c-0.5,0.2-1.1,0.3-1.8,0.3
			s-1.4-0.1-1.9-0.4c-0.5-0.2-1-0.6-1.3-1s-0.4-0.9-0.4-1.5c0-0.9,0.3-1.6,1-2.1s1.7-0.8,3-0.8h2.5v-0.1c0-0.7-0.2-1.2-0.6-1.5
			c-0.4-0.4-1-0.5-1.8-0.5c-0.5,0-1.1,0.1-1.6,0.3c-0.5,0.2-1,0.4-1.3,0.7l-0.9-1.6c0.5-0.4,1.1-0.7,1.8-0.9
			c0.7-0.2,1.5-0.3,2.2-0.3C106.2,29.8,107.3,30.1,108,30.8z M106,37.6c0.4-0.3,0.7-0.6,0.9-1.1v-1.1h-2.3c-1.3,0-1.9,0.4-1.9,1.3
			c0,0.4,0.2,0.7,0.5,1c0.3,0.2,0.8,0.4,1.3,0.4C105.1,38,105.6,37.8,106,37.6z"/>
		<path class="st13" d="M122.8,39c-0.3,0.2-0.6,0.4-1,0.5s-0.8,0.2-1.2,0.2c-1.1,0-1.9-0.3-2.4-0.8c-0.6-0.6-0.9-1.4-0.9-2.4v-4.6
			h-1.6v-1.8h1.6v-2.2h2.2v2.2h2.6v1.8h-2.6v4.6c0,0.5,0.1,0.8,0.3,1.1c0.2,0.2,0.6,0.4,1,0.4c0.5,0,0.9-0.1,1.3-0.4L122.8,39z"/>
		<path class="st13" d="M134,29.9v9.6h-2.1v-1.2c-0.4,0.4-0.8,0.8-1.4,1s-1.1,0.4-1.7,0.4c-1.3,0-2.3-0.4-3-1.1
			c-0.7-0.7-1.1-1.8-1.1-3.2v-5.5h2.2V35c0,0.9,0.2,1.5,0.6,1.9c0.4,0.4,0.9,0.6,1.7,0.6c0.8,0,1.4-0.2,1.9-0.7
			c0.5-0.5,0.7-1.2,0.7-2.2v-4.9H134z"/>
		<path class="st13" d="M144.4,29.4v0.6h2.6v1.8h-2.6v7.7h-2.2v-7.7h-1.6v-1.8h1.6v-0.6c0-1,0.3-1.8,0.9-2.4
			c0.6-0.6,1.4-0.9,2.5-0.9c0.9,0,1.5,0.2,2,0.5l-0.6,1.7c-0.4-0.3-0.8-0.4-1.2-0.4C144.8,27.8,144.4,28.3,144.4,29.4z"/>
		<path class="st13" d="M155.3,30.8c0.8,0.7,1.1,1.7,1.1,3.1v5.6h-2.1v-1.2c-0.3,0.4-0.7,0.7-1.2,1c-0.5,0.2-1.1,0.3-1.8,0.3
			s-1.4-0.1-1.9-0.4c-0.5-0.2-1-0.6-1.3-1s-0.4-0.9-0.4-1.5c0-0.9,0.3-1.6,1-2.1s1.7-0.8,3-0.8h2.5v-0.1c0-0.7-0.2-1.2-0.6-1.5
			c-0.4-0.4-1-0.5-1.8-0.5c-0.5,0-1.1,0.1-1.6,0.3c-0.5,0.2-1,0.4-1.3,0.7l-0.9-1.6c0.5-0.4,1.1-0.7,1.8-0.9
			c0.7-0.2,1.5-0.3,2.2-0.3C153.4,29.8,154.5,30.1,155.3,30.8z M153.2,37.6c0.4-0.3,0.7-0.6,0.9-1.1v-1.1h-2.3
			c-1.3,0-1.9,0.4-1.9,1.3c0,0.4,0.2,0.7,0.5,1c0.3,0.2,0.8,0.4,1.3,0.4C152.3,38,152.8,37.8,153.2,37.6z"/>
		<path class="st13" d="M174.3,30.8c0.7,0.7,1.1,1.8,1.1,3.2v5.5h-2.2v-5.2c0-0.8-0.2-1.5-0.6-1.9c-0.4-0.4-0.9-0.6-1.6-0.6
			c-0.8,0-1.4,0.2-1.8,0.7c-0.5,0.5-0.7,1.2-0.7,2.1v4.9h-2.2v-5.2c0-0.8-0.2-1.5-0.6-1.9c-0.4-0.4-0.9-0.6-1.6-0.6
			c-0.8,0-1.4,0.2-1.8,0.7c-0.4,0.5-0.7,1.2-0.7,2.1v4.9h-2.2v-9.6h2.1v1.2c0.4-0.4,0.8-0.8,1.3-1c0.5-0.2,1.1-0.3,1.8-0.3
			c0.7,0,1.4,0.1,1.9,0.4s1,0.7,1.3,1.2c0.4-0.5,0.9-0.9,1.5-1.2c0.6-0.3,1.3-0.4,2.1-0.4C172.6,29.8,173.6,30.1,174.3,30.8z"/>
		<path class="st13" d="M178.3,27.9c-0.3-0.3-0.4-0.6-0.4-1c0-0.4,0.1-0.7,0.4-1c0.3-0.3,0.6-0.4,1-0.4s0.8,0.1,1,0.4
			s0.4,0.6,0.4,0.9c0,0.4-0.1,0.7-0.4,1s-0.6,0.4-1,0.4C178.9,28.3,178.6,28.2,178.3,27.9z M178.2,29.9h2.2v9.6h-2.2V29.9z"/>
		<path class="st13" d="M183.4,26.1h2.2v13.4h-2.2V26.1z"/>
		<path class="st13" d="M188.7,27.9c-0.3-0.3-0.4-0.6-0.4-1c0-0.4,0.1-0.7,0.4-1c0.3-0.3,0.6-0.4,1-0.4c0.4,0,0.7,0.1,1,0.4
			s0.4,0.6,0.4,0.9c0,0.4-0.1,0.7-0.4,1c-0.3,0.3-0.6,0.4-1,0.4C189.3,28.3,189,28.2,188.7,27.9z M188.6,29.9h2.2v9.6h-2.2V29.9z"/>
		<path class="st13" d="M200.7,30.8c0.7,0.7,1.1,1.7,1.1,3.1v5.6h-2.1v-1.2c-0.3,0.4-0.7,0.7-1.2,1c-0.5,0.2-1.1,0.3-1.8,0.3
			s-1.3-0.1-1.9-0.4c-0.5-0.2-1-0.6-1.3-1c-0.3-0.4-0.4-0.9-0.4-1.5c0-0.9,0.3-1.6,1-2.1s1.7-0.8,3-0.8h2.5v-0.1
			c0-0.7-0.2-1.2-0.6-1.5s-1-0.5-1.8-0.5c-0.5,0-1.1,0.1-1.6,0.3c-0.5,0.2-1,0.4-1.3,0.7l-0.9-1.6c0.5-0.4,1.1-0.7,1.8-0.9
			c0.7-0.2,1.5-0.3,2.2-0.3C198.9,29.8,200,30.1,200.7,30.8z M198.7,37.6c0.4-0.3,0.7-0.6,0.9-1.1v-1.1h-2.3c-1.3,0-1.9,0.4-1.9,1.3
			c0,0.4,0.2,0.7,0.5,1c0.3,0.2,0.8,0.4,1.3,0.4C197.7,38,198.2,37.8,198.7,37.6z"/>
	</g>
	<g class="st12">
		<path class="st13" d="M31.2,52.6L26.7,63c-0.4,1-0.9,1.8-1.5,2.2c-0.6,0.4-1.3,0.6-2.2,0.6c-0.5,0-1-0.1-1.4-0.2
			c-0.5-0.2-0.9-0.4-1.2-0.6l0.9-1.7c0.2,0.2,0.5,0.4,0.8,0.5c0.3,0.1,0.6,0.2,0.9,0.2c0.4,0,0.7-0.1,1-0.3c0.3-0.2,0.5-0.5,0.7-1
			l0.2-0.4l-4.2-9.6h2.3l3,7.1l3-7.1H31.2z"/>
		<path class="st13" d="M44.5,53.6c0.8,0.7,1.1,1.7,1.1,3.1v5.6h-2.1v-1.2c-0.3,0.4-0.7,0.7-1.2,1c-0.5,0.2-1.1,0.3-1.8,0.3
			s-1.4-0.1-1.9-0.4s-1-0.6-1.3-1c-0.3-0.4-0.4-0.9-0.4-1.5c0-0.9,0.3-1.6,1-2.1s1.7-0.8,3-0.8h2.5v-0.1c0-0.7-0.2-1.2-0.6-1.5
			c-0.4-0.4-1-0.5-1.8-0.5c-0.5,0-1.1,0.1-1.6,0.3s-1,0.4-1.3,0.7l-0.9-1.6c0.5-0.4,1.1-0.7,1.8-0.9s1.5-0.3,2.2-0.3
			C42.6,52.5,43.7,52.9,44.5,53.6z M42.4,60.4c0.4-0.3,0.7-0.6,0.9-1.1v-1.1H41c-1.3,0-1.9,0.4-1.9,1.3c0,0.4,0.2,0.7,0.5,1
			c0.3,0.2,0.8,0.4,1.3,0.4C41.5,60.7,42,60.6,42.4,60.4z"/>
		<path class="st13" d="M59.2,61.7c-0.3,0.2-0.6,0.4-1,0.5c-0.4,0.1-0.8,0.2-1.2,0.2c-1.1,0-1.9-0.3-2.4-0.8s-0.9-1.4-0.9-2.4v-4.6
			h-1.6v-1.8h1.6v-2.2H56v2.2h2.6v1.8H56v4.6c0,0.5,0.1,0.8,0.3,1.1s0.6,0.4,1,0.4c0.5,0,0.9-0.1,1.3-0.4L59.2,61.7z"/>
		<path class="st13" d="M70.4,52.6v9.6h-2.1V61c-0.4,0.4-0.8,0.8-1.4,1c-0.5,0.2-1.1,0.4-1.7,0.4c-1.3,0-2.3-0.4-3-1.1
			c-0.7-0.7-1.1-1.8-1.1-3.2v-5.5h2.2v5.2c0,0.9,0.2,1.5,0.6,1.9c0.4,0.4,0.9,0.6,1.7,0.6c0.8,0,1.4-0.2,1.9-0.7s0.7-1.2,0.7-2.2
			v-4.9H70.4z"/>
		<path class="st13" d="M86.7,53.6c0.7,0.7,1.1,1.8,1.1,3.2v5.5h-2.2V57c0-0.8-0.2-1.5-0.6-1.9s-1-0.6-1.7-0.6c-0.8,0-1.5,0.2-2,0.7
			s-0.7,1.2-0.7,2.2v4.9h-2.2v-9.6h2.1v1.2c0.4-0.4,0.8-0.8,1.4-1s1.2-0.3,1.9-0.3C85,52.5,85.9,52.9,86.7,53.6z"/>
		<path class="st13" d="M99.7,58.2h-7.5c0.1,0.7,0.5,1.3,1,1.7c0.6,0.4,1.3,0.6,2.1,0.6c1.1,0,1.9-0.3,2.6-1l1.2,1.4
			c-0.4,0.5-1,0.9-1.6,1.2c-0.7,0.3-1.4,0.4-2.2,0.4c-1.1,0-2-0.2-2.8-0.6c-0.8-0.4-1.4-1-1.9-1.8s-0.7-1.6-0.7-2.5
			c0-0.9,0.2-1.8,0.6-2.5c0.4-0.8,1-1.3,1.8-1.8c0.8-0.4,1.6-0.6,2.6-0.6c0.9,0,1.8,0.2,2.5,0.6c0.7,0.4,1.3,1,1.7,1.7
			s0.6,1.6,0.6,2.6C99.8,57.7,99.7,57.9,99.7,58.2z M93.1,55c-0.5,0.4-0.8,1-0.9,1.7h5.5c-0.1-0.7-0.4-1.3-0.9-1.7
			c-0.5-0.4-1.1-0.6-1.8-0.6C94.2,54.3,93.6,54.6,93.1,55z"/>
		<path class="st13" d="M111.5,52.6v8.2c0,3.4-1.7,5.1-5.2,5.1c-0.9,0-1.8-0.1-2.6-0.4c-0.8-0.2-1.5-0.6-2.1-1l1-1.7
			c0.4,0.3,1,0.6,1.6,0.8s1.3,0.3,2,0.3c1.1,0,1.8-0.2,2.3-0.7c0.5-0.5,0.7-1.2,0.7-2.2v-0.5c-0.4,0.4-0.9,0.7-1.4,1
			s-1.2,0.3-1.8,0.3c-0.9,0-1.7-0.2-2.5-0.6c-0.7-0.4-1.3-0.9-1.7-1.6c-0.4-0.7-0.6-1.5-0.6-2.4s0.2-1.7,0.6-2.4
			c0.4-0.7,1-1.2,1.7-1.6c0.7-0.4,1.6-0.6,2.5-0.6c0.7,0,1.3,0.1,1.9,0.3s1,0.6,1.4,1v-1.3H111.5z M108.4,59.2
			c0.5-0.5,0.8-1.2,0.8-2c0-0.8-0.3-1.5-0.8-2s-1.2-0.8-2.1-0.8c-0.9,0-1.6,0.3-2.1,0.8c-0.5,0.5-0.8,1.2-0.8,2c0,0.8,0.3,1.5,0.8,2
			c0.5,0.5,1.3,0.8,2.1,0.8C107.2,59.9,107.9,59.7,108.4,59.2z"/>
		<path class="st13" d="M116.1,61.8c-0.8-0.4-1.4-1-1.8-1.8s-0.7-1.6-0.7-2.5s0.2-1.8,0.7-2.5s1-1.3,1.8-1.7
			c0.8-0.4,1.7-0.6,2.6-0.6c1,0,1.9,0.2,2.6,0.6c0.8,0.4,1.4,1,1.8,1.7s0.7,1.6,0.7,2.5s-0.2,1.8-0.7,2.5s-1,1.3-1.8,1.8
			c-0.8,0.4-1.7,0.6-2.6,0.6C117.8,62.4,116.9,62.2,116.1,61.8z M120.8,59.6c0.5-0.6,0.8-1.3,0.8-2.2c0-0.9-0.3-1.6-0.8-2.2
			c-0.5-0.6-1.2-0.8-2.1-0.8s-1.5,0.3-2,0.8c-0.5,0.6-0.8,1.3-0.8,2.2c0,0.9,0.3,1.6,0.8,2.2c0.5,0.6,1.2,0.8,2,0.8
			S120.2,60.2,120.8,59.6z"/>
		<path class="st13" d="M127.7,61.8c-0.8-0.4-1.4-1-1.9-1.8c-0.4-0.8-0.7-1.6-0.7-2.5s0.2-1.8,0.7-2.5c0.4-0.7,1.1-1.3,1.8-1.7
			s1.7-0.6,2.7-0.6c0.9,0,1.8,0.2,2.5,0.6c0.7,0.4,1.3,0.9,1.6,1.7l-1.7,1c-0.3-0.4-0.6-0.8-1-1c-0.4-0.2-0.9-0.3-1.4-0.3
			c-0.8,0-1.5,0.3-2.1,0.8c-0.6,0.5-0.8,1.3-0.8,2.2s0.3,1.6,0.8,2.2c0.5,0.5,1.2,0.8,2.1,0.8c0.5,0,0.9-0.1,1.4-0.3s0.8-0.6,1-1
			l1.7,1c-0.4,0.7-0.9,1.3-1.6,1.7s-1.5,0.6-2.5,0.6C129.4,62.4,128.5,62.2,127.7,61.8z"/>
		<path class="st13" d="M136.6,50.7c-0.3-0.3-0.4-0.6-0.4-1c0-0.4,0.1-0.7,0.4-1c0.3-0.3,0.6-0.4,1-0.4s0.8,0.1,1,0.4
			c0.3,0.2,0.4,0.6,0.4,0.9c0,0.4-0.1,0.7-0.4,1s-0.6,0.4-1,0.4C137.2,51.1,136.9,50.9,136.6,50.7z M136.5,52.6h2.2v9.6h-2.2V52.6z"
			/>
		<path class="st13" d="M143.4,61.8c-0.8-0.4-1.4-1-1.8-1.8s-0.7-1.6-0.7-2.5s0.2-1.8,0.7-2.5s1-1.3,1.8-1.7
			c0.8-0.4,1.7-0.6,2.6-0.6c1,0,1.9,0.2,2.6,0.6c0.8,0.4,1.4,1,1.8,1.7s0.7,1.6,0.7,2.5s-0.2,1.8-0.7,2.5s-1,1.3-1.8,1.8
			c-0.8,0.4-1.7,0.6-2.6,0.6C145,62.4,144.1,62.2,143.4,61.8z M148,59.6c0.5-0.6,0.8-1.3,0.8-2.2c0-0.9-0.3-1.6-0.8-2.2
			c-0.5-0.6-1.2-0.8-2.1-0.8s-1.5,0.3-2,0.8c-0.5,0.6-0.8,1.3-0.8,2.2c0,0.9,0.3,1.6,0.8,2.2c0.5,0.6,1.2,0.8,2,0.8
			S147.5,60.2,148,59.6z"/>
	</g>
	<g>
		<path class="st14" d="M32.8,74.1v11.2h-2.1v-4.8h-5.8v4.8h-2.1V74.1h2.1v4.6h5.8v-4.6H32.8z"/>
		<path class="st14" d="M41.7,77.6c0.7,0.6,1,1.5,1,2.7v5h-1.9v-1c-0.2,0.4-0.6,0.7-1,0.9c-0.5,0.2-1,0.3-1.6,0.3
			c-0.6,0-1.2-0.1-1.7-0.3c-0.5-0.2-0.8-0.5-1.1-0.9c-0.3-0.4-0.4-0.8-0.4-1.3c0-0.8,0.3-1.4,0.9-1.8c0.6-0.5,1.5-0.7,2.7-0.7h2.2
			v-0.1c0-0.6-0.2-1.1-0.5-1.4c-0.4-0.3-0.9-0.5-1.6-0.5c-0.5,0-0.9,0.1-1.4,0.2c-0.5,0.1-0.9,0.4-1.2,0.6l-0.8-1.5
			c0.4-0.3,1-0.6,1.6-0.8c0.6-0.2,1.3-0.3,2-0.3C40.1,76.7,41.1,77,41.7,77.6z M39.9,83.6c0.4-0.2,0.7-0.6,0.8-1v-1h-2.1
			c-1.1,0-1.7,0.4-1.7,1.1c0,0.4,0.1,0.6,0.4,0.9c0.3,0.2,0.7,0.3,1.2,0.3C39.1,83.9,39.5,83.8,39.9,83.6z"/>
		<path class="st14" d="M51.9,83.7v1.6h-7.4V84l4.7-5.7h-4.6v-1.6h7.1V78l-4.7,5.7H51.9z"/>
		<path class="st14" d="M59.7,84.8c-0.7-0.4-1.2-0.9-1.6-1.6c-0.4-0.7-0.6-1.4-0.6-2.3c0-0.8,0.2-1.6,0.6-2.2
			c0.4-0.7,0.9-1.2,1.6-1.5c0.7-0.4,1.5-0.6,2.4-0.6c0.8,0,1.6,0.2,2.2,0.5c0.6,0.3,1.1,0.8,1.4,1.5l-1.5,0.9
			c-0.2-0.4-0.6-0.7-0.9-0.9c-0.4-0.2-0.8-0.3-1.2-0.3c-0.7,0-1.4,0.2-1.9,0.7c-0.5,0.5-0.7,1.1-0.7,1.9c0,0.8,0.2,1.5,0.7,1.9
			c0.5,0.5,1.1,0.7,1.9,0.7c0.4,0,0.8-0.1,1.2-0.3c0.4-0.2,0.7-0.5,0.9-0.9l1.5,0.9c-0.3,0.6-0.8,1.1-1.4,1.5
			c-0.6,0.3-1.4,0.5-2.2,0.5C61.2,85.4,60.4,85.2,59.7,84.8z"/>
		<path class="st14" d="M67.4,73.4h2v11.8h-2V73.4z"/>
		<path class="st14" d="M72.1,75c-0.2-0.2-0.4-0.5-0.4-0.9c0-0.3,0.1-0.6,0.4-0.9S72.6,73,73,73s0.7,0.1,0.9,0.3
			c0.2,0.2,0.4,0.5,0.4,0.8c0,0.4-0.1,0.6-0.4,0.9s-0.5,0.4-0.9,0.4C72.6,75.3,72.3,75.2,72.1,75z M72,76.8h2v8.5h-2V76.8z"/>
		<path class="st14" d="M78.1,84.8c-0.7-0.4-1.2-0.9-1.6-1.6c-0.4-0.7-0.6-1.4-0.6-2.3c0-0.8,0.2-1.6,0.6-2.2
			c0.4-0.7,0.9-1.2,1.6-1.5c0.7-0.4,1.5-0.6,2.4-0.6c0.8,0,1.6,0.2,2.2,0.5c0.6,0.3,1.1,0.8,1.4,1.5l-1.5,0.9
			c-0.2-0.4-0.6-0.7-0.9-0.9c-0.4-0.2-0.8-0.3-1.2-0.3c-0.7,0-1.4,0.2-1.9,0.7c-0.5,0.5-0.7,1.1-0.7,1.9c0,0.8,0.2,1.5,0.7,1.9
			c0.5,0.5,1.1,0.7,1.9,0.7c0.4,0,0.8-0.1,1.2-0.3c0.4-0.2,0.7-0.5,0.9-0.9l1.5,0.9c-0.3,0.6-0.8,1.1-1.4,1.5
			c-0.6,0.3-1.4,0.5-2.2,0.5C79.6,85.4,78.8,85.2,78.1,84.8z"/>
		<path class="st14" d="M96.4,77.6c0.7,0.6,1,1.5,1,2.7v5h-1.9v-1c-0.2,0.4-0.6,0.7-1,0.9c-0.5,0.2-1,0.3-1.6,0.3
			c-0.6,0-1.2-0.1-1.7-0.3c-0.5-0.2-0.8-0.5-1.1-0.9c-0.3-0.4-0.4-0.8-0.4-1.3c0-0.8,0.3-1.4,0.9-1.8c0.6-0.5,1.5-0.7,2.7-0.7h2.2
			v-0.1c0-0.6-0.2-1.1-0.5-1.4c-0.4-0.3-0.9-0.5-1.6-0.5c-0.5,0-0.9,0.1-1.4,0.2c-0.5,0.1-0.9,0.4-1.2,0.6l-0.8-1.5
			c0.4-0.3,1-0.6,1.6-0.8c0.6-0.2,1.3-0.3,2-0.3C94.8,76.7,95.7,77,96.4,77.6z M94.6,83.6c0.4-0.2,0.7-0.6,0.8-1v-1h-2.1
			c-1.1,0-1.7,0.4-1.7,1.1c0,0.4,0.1,0.6,0.4,0.9c0.3,0.2,0.7,0.3,1.2,0.3C93.7,83.9,94.2,83.8,94.6,83.6z"/>
		<path class="st14" d="M108.3,76.8v11.6h-2v-4.1c-0.7,0.8-1.6,1.1-2.7,1.1c-0.8,0-1.6-0.2-2.2-0.5s-1.2-0.9-1.5-1.5
			s-0.6-1.4-0.6-2.3c0-0.9,0.2-1.6,0.6-2.3s0.9-1.2,1.5-1.5s1.4-0.5,2.2-0.5c0.6,0,1.1,0.1,1.6,0.3s0.9,0.5,1.2,0.9v-1.1H108.3z
			 M105.6,82.9c0.5-0.5,0.7-1.1,0.7-1.9c0-0.8-0.2-1.4-0.7-1.9s-1.1-0.7-1.8-0.7c-0.7,0-1.3,0.2-1.8,0.7c-0.5,0.5-0.7,1.1-0.7,1.9
			c0,0.8,0.2,1.4,0.7,1.9c0.5,0.5,1.1,0.7,1.8,0.7C104.6,83.7,105.2,83.4,105.6,82.9z"/>
		<path class="st14" d="M119.2,76.8v8.5h-1.9v-1.1c-0.3,0.4-0.7,0.7-1.2,0.9s-1,0.3-1.5,0.3c-1.1,0-2-0.3-2.7-0.9
			c-0.7-0.6-1-1.6-1-2.8v-4.9h2v4.6c0,0.8,0.2,1.3,0.5,1.7c0.3,0.4,0.8,0.6,1.5,0.6c0.7,0,1.3-0.2,1.7-0.7c0.4-0.4,0.6-1.1,0.6-1.9
			v-4.3H119.2z"/>
		<path class="st14" d="M123.6,73.4h2.3l-2.8,2.2h-1.7L123.6,73.4z M121.8,76.8h2v8.5h-2V76.8z"/>
	</g>
</g>
</svg>
