<?xml version="1.0" encoding="utf-8"?>
<!-- Generator: Adobe Illustrator 23.0.1, SVG Export Plug-In . SVG Version: 6.00 Build 0)  -->
<svg version="1.1" id="Capa_3" xmlns="http://www.w3.org/2000/svg" xmlns:xlink="http://www.w3.org/1999/xlink" x="0px" y="0px"
	 viewBox="0 0 376.9 379.3" style="enable-background:new 0 0 376.9 379.3;" xml:space="preserve">
<style type="text/css">
	.st0{opacity:0.16;}
	.st1{fill:url(#SVGID_1_);}
	.st2{opacity:0.25;}
	.st3{opacity:0.7;fill:url(#SVGID_2_);}
	.st4{fill:none;stroke:#0A6FCB;stroke-width:3;stroke-linecap:round;stroke-linejoin:round;stroke-miterlimit:10;}
	.st5{fill:none;stroke:#0A6FCB;stroke-width:3;stroke-linecap:round;stroke-miterlimit:10;}
	.st6{fill:#0A6FCB;}
</style>
<g class="st0">
	
		<linearGradient id="SVGID_1_" gradientUnits="userSpaceOnUse" x1="187.001" y1="362.444" x2="179.3822" y2="18.5103" gradientTransform="matrix(0.9733 -0.2297 0.2297 0.9733 -35.9214 49.7988)">
		<stop  offset="0" style="stop-color:#CBE5FC"/>
		<stop  offset="1" style="stop-color:#80D0F5"/>
	</linearGradient>
	<path class="st1" d="M331.8,208.2c14.1,70.9-34.9,140.4-109.4,155.2c-39,7.7-77.2-1.1-106.9-21.4c-26.9-18.5-46.7-46.5-53.4-80.3
		c-7.4-37.5-5.1-108.6,4.2-143.8c16-60.6,55.6-96.7,111.5-107.8c51.8-10.3,101.6,17.3,116.9,62.5c1.2,3.6,2.2,7.3,3,11.1
		c2.1,10.6,2.2,21.2,0.6,31.4c-2.4,15,1.7,30.1,10.8,42.3c2.5,3.4,4.9,6.9,7.1,10.6c1.8,3,3.5,6.2,5.1,9.4
		C326.1,187,329.7,197.3,331.8,208.2z"/>
</g>
<g class="st2">
	<linearGradient id="SVGID_2_" gradientUnits="userSpaceOnUse" x1="196.4065" y1="366.9235" x2="196.4065" y2="277.7293">
		<stop  offset="0" style="stop-color:#A8E5FC"/>
		<stop  offset="1" style="stop-color:#738BF5"/>
	</linearGradient>
	<path class="st3" d="M327.7,279.6c-14.9,44.6-54,80.7-105.3,90.8c-39,7.7-77.2-1.1-106.9-21.4c-21.2-14.5-37.9-35-47.4-59.5
		c-1.2-3.8-2.2-7.2-3.1-10.2l16.8,1l45.5-1l1,7l25.8-0.2l0,9.6l9,7.2l24.5,3.1l23.8-1.7l14.8-6.5l0.5-9.9l36.4,0.1l17-2.7l0.5-4.6
		l32.2-1l14.8-0.4C327.7,279.4,327.7,279.5,327.7,279.6z"/>
</g>
<g>
	<g>
		<line class="st4" x1="97.6" y1="273.6" x2="97.6" y2="253.6"/>
		<path class="st4" d="M122,247.9H95.8c-0.6,0-1.1,1.1-1.1,2.3v0.9c0,1.2,0.5,2.3,1.1,2.3h26.7"/>
		<path class="st4" d="M124.5,274.4H95.8c-0.6,0-1.1,1.1-1.1,2.3v0.9c0,1.2,0.5,2.3,1.1,2.3h29.1"/>
	</g>
</g>
<g>
	<polyline class="st4" points="112.4,193.2 128.9,187.4 137.1,210.1 	"/>
	<polyline class="st4" points="155.2,226.9 120.4,226.9 113.3,226.9 118.7,210.2 154.9,210.2 	"/>
	<polyline class="st4" points="154.8,285.5 127.5,285.5 120.4,226.9 155.2,226.9 	"/>
</g>
<g>
	<polyline class="st4" points="112.4,193.2 128.9,187.4 137.1,210.1 	"/>
	<polyline class="st4" points="155.2,226.9 120.4,226.9 113.3,226.9 118.7,210.2 154.9,210.2 	"/>
	<polyline class="st4" points="154.8,285.5 127.5,285.5 120.4,226.9 	"/>
</g>
<g>
	<path class="st4" d="M154.8,285.5l0.4-34.5c0,0-0.8-5.3,1.9-9.1c-3.4-2.6-3-7.9,0.4-12.1c-0.9-0.8-1.7-1.8-2.2-3
		c-2.2-4.6-1.6-11.8-0.3-16.7"/>
</g>
<g>
	<path class="st4" d="M224.2,205.7c4.5-3.8,3.8-9.8,0.8-15.1c5.7-8.3-0.4-14.7-0.4-14.7s9.4-19.3-7.2-32.1
		c-16.6-12.8-16.6-25.7-16.6-25.7H191h-1.1h-9.8c0,0,0,12.9-16.6,25.7c-16.6,12.8-7.2,32.1-7.2,32.1s-6,6.4-0.4,14.7
		c-3,5.3-3.8,11.3,0.8,15.1c-2.6,4.2-5.3,19.3,0.8,24.2c-3.4,4.2-3.8,9.4-0.4,12.1c-2.6,3.8-1.9,9.1-1.9,9.1l-0.4,34.7
		c0,0-2,8.9,0.6,11.1c2.6,2.2,11,9,35,8c25,0,32.4-5.8,35-8c2.6-2.3,0.7-11.1,0.7-11.1l-0.4-34.7c0,0,0.8-5.3-1.9-9.1
		c3.4-2.6,3-7.9-0.4-12.1C229.5,225,226.9,209.9,224.2,205.7z"/>
	<path class="st4" d="M203.7,115.7c-0.2-2.5,0-11.4,0-11.4s-0.4-3.7-5.5-3.9c-3.1-0.1-4.9-0.2-7.4-0.3V100c0,0-0.1,0-0.6,0
		c-0.5,0-0.6,0-0.6,0v0.1c-1.8,0.1-4,0.2-7.1,0.3c-5.1,0.2-5.2,4-5.2,4s0.2,8.9,0,11.4c-0.2,2.5,2.9,2.3,2.9,2.3h9.6h1.5h9.6
		C200.8,118,203.9,118.1,203.7,115.7z"/>
</g>
<path class="st4" d="M226.8,286.9c15.7,0.3,34.7,0.4,46.9-0.6c1.8-0.1,5.2-2,6.7-2.1c2.4-19.1-5-49.1-5-49.1
	c-4.4-26.8-24.5-32.9-28.6-33.9c-0.1,0-0.2,0-0.3-0.1c-0.3-0.1-0.4-0.1-0.4-0.1s0,0-0.2,0h-3.6H242h-4.3h-7.9
	c-0.8,0-1.7,0.1-2.5,0.2"/>
<g>
	<path class="st4" d="M225.8,161.2"/>
	<polyline class="st4" points="229.5,201.1 229.7,201.1 237.7,201.1 242,201.1 242.3,201.1 245.9,201.1 246.5,200.2 246.6,200.1 
		254.5,187.9 266.3,174 256.6,172.9 249.7,167.5 236.9,171.2 227.4,162.9 	"/>
	<path class="st4" d="M226.3,194.6"/>
	<polyline class="st4" points="227.4,157.9 234.8,153.2 242.7,161.2 256.6,158 266.3,167.2 262.4,173.4 	"/>
</g>
<polyline class="st4" points="226.8,194 249.4,193.9 246.6,201.3 227.8,201.3 "/>
<polyline class="st4" points="267.3,276.3 257.4,276.3 243.4,276.3 "/>
<path class="st4" d="M238.3,275.3"/>
<g>
	<path class="st4" d="M227.4,199.6c0-0.4,0-0.7,0-1.1c0-1.1-0.2-2.4-0.6-3.5c-0.4-1.4-1.1-2.9-1.9-4.3c0.2-0.3,0.4-0.6,0.6-0.9
		c4.7-7.9-0.9-13.8-0.9-13.8s3.1-6.4,2.6-14.2c0,0,0,0,0,0c-0.1-2.2-0.5-4.4-1.4-6.7v0c-0.2-0.4-0.3-0.9-0.5-1.3"/>
</g>
<line class="st5" x1="97.4" y1="268.9" x2="64.4" y2="268.9"/>
<line class="st4" x1="317.3" y1="268.9" x2="303.4" y2="268.9"/>
<line class="st4" x1="361.9" y1="268.9" x2="342.9" y2="268.9"/>
<line class="st4" x1="184.4" y1="241.9" x2="159.4" y2="241.9"/>
<line class="st4" x1="194.4" y1="241.9" x2="191.4" y2="241.9"/>
<line class="st4" x1="236.4" y1="276.3" x2="233.4" y2="276.3"/>
<line class="st4" x1="201.4" y1="190.9" x2="156.4" y2="190.9"/>
<line class="st4" x1="248.4" y1="217.9" x2="228.4" y2="217.9"/>
<line class="st4" x1="106.4" y1="259.9" x2="99.4" y2="259.9"/>
<line class="st4" x1="113.4" y1="259.9" x2="112.4" y2="259.9"/>
<line class="st4" x1="281.9" y1="229.9" x2="275.4" y2="229.9"/>
<line class="st4" x1="294.4" y1="229.9" x2="288.8" y2="229.9"/>
<line class="st4" x1="128.4" y1="218.9" x2="117.4" y2="218.9"/>
<line class="st4" x1="178.4" y1="254.9" x2="157.4" y2="254.9"/>
<line class="st4" x1="170.4" y1="278.9" x2="157.4" y2="278.9"/>
<g>
	<line class="st4" x1="173.4" y1="266.9" x2="157.4" y2="266.9"/>
	<line class="st4" x1="192.4" y1="266.9" x2="183.4" y2="266.9"/>
</g>
<line class="st4" x1="175.4" y1="230.9" x2="159.4" y2="230.9"/>
<line class="st4" x1="172.4" y1="219.9" x2="156.4" y2="219.9"/>
<line class="st4" x1="191.4" y1="125.9" x2="179.4" y2="125.9"/>
<line class="st4" x1="190.4" y1="134.9" x2="174.4" y2="134.9"/>
<line class="st4" x1="190.4" y1="144.9" x2="164.4" y2="144.9"/>
<line class="st4" x1="30.7" y1="311.9" x2="40.5" y2="311.9"/>
<line class="st4" x1="17.6" y1="311.9" x2="21.9" y2="311.9"/>
<line class="st4" x1="342.9" y1="311.9" x2="347.3" y2="311.9"/>
<line class="st4" x1="7.6" y1="186" x2="11.9" y2="186"/>
<line class="st5" x1="57.4" y1="268.9" x2="39.4" y2="268.9"/>
<line class="st5" x1="32.4" y1="268.9" x2="30.4" y2="268.9"/>
<line class="st5" x1="48.4" y1="217.9" x2="40.4" y2="217.9"/>
<line class="st5" x1="140.4" y1="297.9" x2="109.3" y2="297.9"/>
<line class="st5" x1="283.9" y1="297.9" x2="238.9" y2="297.9"/>
<line class="st5" x1="99.8" y1="297.9" x2="86.4" y2="297.9"/>
<line class="st5" x1="61.8" y1="284.9" x2="48.4" y2="284.9"/>
<line class="st5" x1="76.8" y1="297.9" x2="71.4" y2="297.9"/>
<line class="st5" x1="315.3" y1="312.3" x2="266.3" y2="312.3"/>
<line class="st5" x1="254.4" y1="312.3" x2="49.2" y2="312.3"/>
<g>
	<g>
		<line class="st4" x1="301.7" y1="273.8" x2="301.7" y2="209.9"/>
		<path class="st4" d="M257.5,203.1h45.3c0.6,0,1.1,1.1,1.1,2.4v1c-0.1,1.3-0.5,2.4-1.1,2.4h-0.1H262"/>
		<path class="st4" d="M280.9,274.1h21.9c0.6,0,1.1,1.1,1.1,2.4v1c-0.1,1.3-0.5,2.4-1.1,2.4h-22"/>
	</g>
</g>
<g>
	<path class="st4" d="M280.8,280.3c0.1-1.9,0.2-3.8,0.1-5.8c0-0.1,0-0.2,0-0.3c-0.1-6.3-0.8-12.9-1.6-18.9
		c-1.6-11.2-3.8-20.2-3.8-20.2c-0.3-2.1-0.8-4-1.3-5.8c-2.6-9.4-7.4-15.8-12.2-20c-0.1-0.1-0.1-0.1-0.2-0.2
		c-1.8-1.6-3.6-2.8-5.3-3.8"/>
	<g>
		<path class="st4" d="M225.8,161.2"/>
	</g>
</g>
<line class="st4" x1="125.4" y1="255.9" x2="139.4" y2="255.9"/>
<line class="st4" x1="127.4" y1="273.9" x2="141.4" y2="273.9"/>
<line class="st4" x1="125.4" y1="264.9" x2="135.4" y2="264.9"/>
<rect x="287.1" y="112" class="st4" width="84.7" height="39.9"/>
<rect x="317.5" y="97.6" transform="matrix(-1.836970e-16 1 -1 -1.836970e-16 461.3216 -197.4872)" class="st4" width="23.9" height="68.7"/>
<polyline class="st4" points="324.6,316.3 324.6,162.9 334.2,162.9 334.2,316.3 "/>
<rect x="321" y="152" class="st4" width="16.8" height="10.9"/>
<polyline class="st5" points="18.9,186 39.6,186 49.6,217.9 109.8,239.5 109.9,247.9 "/>
<g>
	<polyline class="st5" points="58.9,219.2 60.2,215.4 71.8,219.6 70.5,223.3 	"/>
	<polyline class="st5" points="75.4,225.1 76.7,221.3 88.3,225.5 87,229.2 	"/>
	<polyline class="st5" points="91.9,231 93.2,227.2 104.8,231.4 103.5,235.1 	"/>
</g>
<g>
	<path class="st6" d="M302.4,131.2v-5.1l2,2v2.7l-1.2,1.2L302.4,131.2z M308.6,131.3l1,1l-1,1h-4.2l-1-1l1-1H308.6z M308.8,130.7
		V128l2-2v5.1l-0.7,0.8L308.8,130.7z M310.7,133.4v5.1l-2-2v-2.7l1.2-1.2L310.7,133.4z"/>
	<path class="st6" d="M312.9,131.2v-5.1l2,1.9v2.7l-1.2,1.3L312.9,131.2z M314.9,133.9v2.7l-2,2v-5.1l0.7-0.7L314.9,133.9z
		 M320.9,125.7l-2,2h-3.7l-2-2H320.9z M320.9,138.9h-7.6l2-2h3.7L320.9,138.9z M319.2,131.3l1,1l-1,1H315l-1-1l1-1H319.2z
		 M319.3,130.7V128l2-1.9v5.1l-0.7,0.8L319.3,130.7z M321.3,133.4v5.1l-2-2v-2.7l1.2-1.2L321.3,133.4z"/>
	<path class="st6" d="M323.5,131.1v-5.1l2,1.9v2.7l-1.2,1.2L323.5,131.1z M331.5,125.7l-2,2h-3.7l-2-2H331.5z M331.5,138.9h-7.6l2-2
		h3.7L331.5,138.9z M329.8,131.3l1,1l-1,1h-4.2l-1-1l1-1H329.8z M331.8,133.4v5.1l-2-2v-2.7l1.2-1.2L331.8,133.4z"/>
	<path class="st6" d="M333.8,138.9v-2h2v2H333.8z"/>
	<path class="st6" d="M337.8,131.1v-5.1l2,1.9v2.7l-1.2,1.2L337.8,131.1z M345.8,125.7l-2,2h-3.7l-2-2H345.8z M345.8,138.9h-7.6l2-2
		h3.7L345.8,138.9z M344.1,131.3l1,1l-1,1h-4.2l-1-1l1-1H344.1z M346.1,133.4v5.1l-2-2v-2.7l1.2-1.2L346.1,133.4z"/>
	<path class="st6" d="M350.3,133.9v2.7l-2,2v-5.1l0.7-0.7L350.3,133.9z M356.4,125.7l-2,2h-3.7l-2-2H356.4z M356.4,138.9h-7.6l2-2
		h3.7L356.4,138.9z M354.6,131.3l1,1l-1,1h-4.2l-1-1l1-1H354.6z M354.7,130.7V128l2-1.9v5.1l-0.7,0.8L354.7,130.7z"/>
</g>
</svg>
