<?xml version="1.0" encoding="utf-8"?>
<!-- Generator: Adobe Illustrator 21.0.2, SVG Export Plug-In . SVG Version: 6.00 Build 0)  -->
<svg version="1.1" id="Capa_1" xmlns="http://www.w3.org/2000/svg" xmlns:xlink="http://www.w3.org/1999/xlink" x="0px" y="0px"
	 viewBox="0 0 50 60" style="enable-background:new 0 0 50 60;" xml:space="preserve">
<style type="text/css">
	.st0{fill:#0A6FCB;}
	.st1{fill:none;stroke:#FFFFFF;stroke-width:2.2654;stroke-linecap:round;stroke-linejoin:round;stroke-miterlimit:10;}
	.st2{fill:none;stroke:#FFFFFF;stroke-width:2.5485;stroke-linecap:round;stroke-linejoin:round;stroke-miterlimit:10;}
</style>
<g>
	<path id="Path_245" class="st0" d="M25,0C11.2,0,0,11.2,0,25c0,18.5,22.7,34,23.5,34.5c0.9,0.7,2.1,0.7,3,0C27.3,59,50,43.5,50,25
		C50,11.2,38.8,0,25,0z"/>
	<g>
		<path class="st1" d="M30.7,12H19.3l-8.5,10.4c0,2.6,2.1,4.7,4.7,4.7s4.7-2.1,4.7-4.7c0,2.6,2.1,4.7,4.7,4.7s4.7-2.1,4.7-4.7
			c0,2.6,2.1,4.7,4.7,4.7c2.6,0,4.7-2.1,4.7-4.7L30.7,12z"/>
		<polyline class="st2" points="34.5,30.5 34.5,38.5 15.5,38.5 15.5,30.5 		"/>
	</g>
</g>
</svg>
