<?xml version="1.0" encoding="utf-8"?>
<!-- Generator: Adobe Illustrator 21.0.2, SVG Export Plug-In . SVG Version: 6.00 Build 0)  -->
<svg version="1.1" id="Capa_1" xmlns="http://www.w3.org/2000/svg" xmlns:xlink="http://www.w3.org/1999/xlink" x="0px" y="0px"
	 viewBox="0 0 413.2 169.8" style="enable-background:new 0 0 413.2 169.8;" xml:space="preserve">
<style type="text/css">
	.st0{fill:url(#SVGID_1_);}
	.st1{fill:#FFFFFF;}
	.st2{fill:#04294B;}
</style>
<g>
	<g>
		
			<linearGradient id="SVGID_1_" gradientUnits="userSpaceOnUse" x1="-140.7997" y1="218.4123" x2="22.4306" y2="218.4123" gradientTransform="matrix(0.997 7.683127e-02 -7.683127e-02 0.997 160.3372 -130.6241)">
			<stop  offset="0" style="stop-color:#FF9800"/>
			<stop  offset="1" style="stop-color:#FFCE0D"/>
		</linearGradient>
		<path class="st0" d="M4.9,97c0.1,0,0.1,0,0.2,0c1.7,0,3.1-1.4,3.1-3.1c0-6.4,1-12.7,2.8-18.8c0.5-1.7-0.5-3.4-2.1-3.9
			c-1.6-0.5-3.4,0.5-3.9,2.1c-2,6.7-3,13.6-3,20.5C2,95.5,3.3,96.9,4.9,97z M10.8,66.3c0.4,0.2,0.7,0.3,1.1,0.3
			c1.2,0.1,2.5-0.6,3.1-1.8c1.9-4.1,4.3-7.9,7-11.6c11-14.8,27.2-24.4,45.4-27.1c5.1-0.7,10.2-0.9,15.3-0.5c0.1,0,0.1,0,0.2,0
			c1.7,0.1,3.2-1.1,3.3-2.9c0.1-1.7-1.1-3.2-2.9-3.4c-5.6-0.4-11.3-0.3-16.9,0.6C46.5,23,29,33.4,16.9,49.6
			c-2.9,3.9-5.5,8.2-7.6,12.6C8.6,63.7,9.2,65.6,10.8,66.3z M108.6,27.2l41.5-5.7c1.7-0.2,2.9-1.8,2.7-3.5c-0.2-1.7-1.8-2.9-3.5-2.7
			L107.7,21c-1.7,0.2-2.9,1.8-2.7,3.5c0.2,1.5,1.4,2.6,2.8,2.7C108.1,27.2,108.4,27.2,108.6,27.2z M9,104.5
			c-0.2-1.7-1.8-2.9-3.5-2.6c-1.7,0.2-2.9,1.8-2.6,3.5c1.9,13,7.2,25.4,15.3,35.6c0.6,0.7,1.4,1.1,2.2,1.2c0.8,0.1,1.5-0.2,2.2-0.7
			c1.4-1.1,1.6-3,0.5-4.4C15.5,127.7,10.7,116.4,9,104.5z M80,47.2c-5.4-4.1-12.1-5.8-18.8-4.8c-6.7,1-12.6,4.5-16.7,9.9
			c-4.1,5.4-5.8,12.1-4.8,18.8c1.7,12,11.6,20.8,23.2,21.7c1.8,0.1,3.7,0.1,5.6-0.2c6.7-1,12.6-4.5,16.7-9.9
			c4.1-5.4,5.8-12.1,4.8-18.8C88.9,57.2,85.4,51.3,80,47.2z M80.2,79c-3.1,4.1-7.5,6.8-12.6,7.5c-5.1,0.7-10.1-0.5-14.2-3.6
			c-4.1-3.1-6.8-7.5-7.5-12.6c-0.7-5.1,0.5-10.1,3.6-14.2C52.5,52,57,49.3,62,48.6c1.4-0.2,2.9-0.3,4.3-0.1c3.6,0.3,7,1.6,9.9,3.7
			c4.1,3.1,6.8,7.5,7.5,12.6C84.5,69.9,83.2,74.9,80.2,79z M169.4,40l-4.3-29.5c-0.5-3.3-2.2-6.2-4.9-8.1c-2.7-2-5.9-2.8-9.2-2.3
			l-48,7c-3.3,0.5-6.2,2.2-8.1,4.9c-2,2.7-2.8,5.9-2.3,9.2l2.8,19l2.2,36.5c0.1,1.1,0.8,2.1,1.8,2.5c0.3,0.1,0.5,0.2,0.8,0.2
			c0.8,0.1,1.6-0.2,2.2-0.8l18.5-18.8l38.1-5.5c3.3-0.5,6.2-2.2,8.1-4.9C169,46.5,169.9,43.2,169.4,40z M162.6,45.8
			c-1.1,1.5-2.7,2.4-4.5,2.7l-39,5.7c-0.6,0.1-1.2,0.4-1.6,0.8l-14.8,15l-1.8-30.3c0-0.1,0-0.2,0-0.2l-2.8-19.2
			c-0.3-1.8,0.2-3.6,1.3-5c1.1-1.5,2.7-2.4,4.5-2.7l48-7l0,0c1.8-0.3,3.6,0.2,5,1.3c1.5,1.1,2.4,2.7,2.7,4.5l4.3,29.5
			C164.1,42.5,163.6,44.3,162.6,45.8z M145.6,62.8c-0.7-1.6-2.6-2.2-4.1-1.5c-1.6,0.7-2.2,2.6-1.5,4.1c2.8,6.1,4.7,12.5,5.7,19.2
			c5.5,37.7-20.7,72.8-58.4,78.3c-9.8,1.4-19.5,0.8-29-1.9c-1.7-0.5-3.4,0.5-3.9,2.1c-0.5,1.7,0.5,3.4,2.1,3.9
			c4.9,1.4,9.9,2.3,14.9,2.7c5.5,0.4,11.1,0.2,16.7-0.6c41.1-6,69.6-44.2,63.7-85.3C150.7,76.5,148.6,69.4,145.6,62.8z M121.7,143.4
			l-4.8-33.3c-0.7-5-3.4-9.4-7.4-12.4c-4.1-3-9-4.3-14-3.6L43,101.8c-10.3,1.5-17.5,11.1-16,21.4l4.8,33.3c0.1,0.8,0.6,1.6,1.2,2.1
			c0.5,0.4,1,0.6,1.6,0.6c0.2,0,0.5,0,0.7,0l83.7-12.2C120.8,146.7,122,145.2,121.7,143.4z M33.9,127.4l-0.7-5.1
			c-1-6.7,3.5-12.9,10.1-14.2l2.6,17.6L33.9,127.4z M60.8,123.5l-2.6-17.6l23.8-3.5l2.6,17.6L60.8,123.5z M99.6,117.9L97,100.3
			c0.7-0.1,1.5-0.1,2.2,0c2.4,0.2,4.6,1,6.6,2.5c2.7,2,4.5,5,5,8.3l0.7,5.1L99.6,117.9z M151,27.9l-41.5,5.7
			c-1.7,0.2-2.9,1.8-2.7,3.5c0.2,1.5,1.4,2.6,2.8,2.7c0.2,0,0.4,0,0.7,0l41.5-5.7c1.7-0.2,2.9-1.8,2.7-3.5
			C154.3,28.9,152.7,27.7,151,27.9z"/>
	</g>
</g>
<g>
	<g>
		<g>
			<path class="st1" d="M129.4,91.6c-3.2,0-6.2-0.7-8.9-2.2c-2.8-1.5-5-3.6-6.7-6.3c-1.6-2.7-2.4-5.8-2.4-9.1c0-3.3,0.8-6.3,2.4-9.1
				c1.6-2.7,3.9-4.8,6.7-6.3c2.7-1.5,5.7-2.2,9-2.2c2.7,0,5.3,0.5,7.6,1.5c2.4,1.1,4.5,2.6,6.2,4.6c2.5,3.1,2.2,7.6-0.7,10.3
				l-1.3,1.2l1.3,1.2c2.9,2.7,3.2,7.2,0.7,10.2c-1.7,2.1-3.8,3.6-6.3,4.7C134.6,91.1,132.1,91.6,129.4,91.6z"/>
		</g>
		<g>
			<path class="st1" d="M149.6,91.6c-3.3,0-6.3-0.7-9-2.2c-2.8-1.5-5.1-3.7-6.7-6.4c-1.6-2.7-2.4-5.7-2.4-9c0-3.3,0.8-6.3,2.4-9
				c1.6-2.7,3.9-4.8,6.7-6.4c2.7-1.5,5.8-2.2,9-2.2c3.3,0,6.3,0.7,9,2.2c2.8,1.5,5,3.6,6.7,6.3c1.6,2.7,2.5,5.8,2.5,9.1
				c0,3.3-0.8,6.3-2.5,9.1c-1.6,2.7-3.9,4.8-6.7,6.3C155.9,90.8,152.8,91.6,149.6,91.6z"/>
		</g>
		<g>
			<path class="st1" d="M177.9,91.3c-1.8,0-3.5-0.7-4.9-1.8c-1.3,1.1-3,1.8-4.9,1.8h-4.5c-4.1,0-7.5-3.3-7.5-7.5V64.2
				c0-4.1,3.3-7.5,7.5-7.5h3.7c1.8,0,3.5,0.7,4.9,1.8c1.3-1.1,3-1.8,4.9-1.8h4.5c4.1,0,7.5,3.3,7.5,7.5v19.6c0,4.1-3.3,7.5-7.5,7.5
				H177.9z"/>
		</g>
		<g>
			<path class="st1" d="M186.3,91.3c-4.1,0-7.5-3.3-7.5-7.5V64.2c0-4.1,3.3-7.5,7.5-7.5h0.1l3.1-3.3c1.4-1.5,3.4-2.4,5.4-2.4h4.7
				c3.2,0,6,2,7,5c0.4,1.2,0.5,2.4,0.3,3.5c1,1.3,1.5,2.8,1.5,4.5v3.6c0,1.5-0.4,2.9-1.2,4.1c0,0.1,0,3.7,0,3.7
				c1,1.3,1.6,2.8,1.6,4.6v3.6c0,4.1-3.3,7.5-7.5,7.5H186.3z"/>
		</g>
		<g>
			<path class="st1" d="M214.4,91.6c-3.2,0-6.2-0.7-8.9-2.2c-2.8-1.5-5-3.6-6.7-6.3c-1.6-2.7-2.4-5.8-2.4-9.1c0-3.3,0.8-6.3,2.4-9.1
				c1.6-2.7,3.9-4.8,6.7-6.3c2.7-1.5,5.7-2.2,9-2.2c2.7,0,5.3,0.5,7.6,1.5c2.4,1.1,4.5,2.6,6.2,4.6c2.5,3.1,2.2,7.6-0.7,10.3
				l-1.3,1.2l1.3,1.2c2.9,2.7,3.2,7.2,0.7,10.2c-1.7,2.1-3.8,3.6-6.3,4.7C219.6,91.1,217.1,91.6,214.4,91.6z"/>
		</g>
		<g>
			<path class="st1" d="M229.3,91.3c-4.1,0-7.5-3.3-7.5-7.5v-8.5c-3.6-0.6-6.3-3.6-6.3-7.4v-3.7c0-4.1,3.3-7.5,7.5-7.5h17.1
				c4.1,0,7.5,3.3,7.5,7.5v3.7c0,3.7-2.7,6.8-6.3,7.4v8.5c0,4.1-3.3,7.5-7.5,7.5H229.3z"/>
		</g>
		<g>
			<path class="st1" d="M256.2,91.3c-2.6,0-4.9-1.3-6.3-3.4c-1.4,2.1-3.7,3.4-6.3,3.4H239c-2.5,0-4.9-1.3-6.3-3.4
				c-1.4-2.1-1.6-4.8-0.6-7.1l8.7-19.6c1.2-2.7,3.9-4.4,6.8-4.4h4.5c2.9,0,5.6,1.7,6.8,4.4l8.8,19.6c1,2.3,0.8,5-0.5,7.1
				c-1.4,2.1-3.7,3.4-6.3,3.4H256.2z"/>
		</g>
		<g>
			<path class="st1" d="M266.1,91.3c-4.1,0-7.5-3.3-7.5-7.5v-8.5c-3.6-0.6-6.3-3.6-6.3-7.4v-3.7c0-4.1,3.3-7.5,7.5-7.5h17.1
				c4.1,0,7.5,3.3,7.5,7.5v3.7c0,3.7-2.7,6.8-6.3,7.4v8.5c0,4.1-3.3,7.5-7.5,7.5H266.1z"/>
		</g>
		<g>
			<path class="st1" d="M279.3,91.3c-4.1,0-7.5-3.3-7.5-7.5V64.2c0-4.1,3.3-7.5,7.5-7.5h14.8c4.1,0,7.5,3.3,7.5,7.5v3.6
				c0,1.5-0.4,2.9-1.2,4.1c0,0.1,0,3.7,0,3.7c1,1.3,1.6,2.8,1.6,4.6v3.6c0,4.1-3.3,7.5-7.5,7.5H279.3z"/>
		</g>
		<g>
			<path class="st1" d="M315.4,91.6c-3.2,0-6.2-0.7-8.9-2.2c-2.8-1.5-5-3.6-6.7-6.3c-1.6-2.7-2.4-5.8-2.4-9.1c0-3.3,0.8-6.3,2.4-9.1
				c1.6-2.7,3.9-4.8,6.7-6.3c2.7-1.5,5.7-2.2,9-2.2c2.7,0,5.3,0.5,7.6,1.5c2.4,1.1,4.5,2.6,6.2,4.6c2.5,3.1,2.2,7.6-0.7,10.3
				l-1.3,1.2l1.3,1.2c2.9,2.7,3.2,7.2,0.7,10.2c-1.7,2.1-3.8,3.6-6.3,4.7C320.6,91.1,318.1,91.6,315.4,91.6z"/>
		</g>
		<g>
			<path class="st1" d="M335.6,91.6c-3.3,0-6.3-0.7-9-2.2c-2.8-1.5-5.1-3.7-6.7-6.4c-1.6-2.7-2.4-5.7-2.4-9c0-3.3,0.8-6.3,2.4-9
				c1.6-2.7,3.9-4.8,6.7-6.4c2.7-1.5,5.8-2.2,9-2.2c3.3,0,6.3,0.7,9,2.2c2.8,1.5,5,3.6,6.7,6.3c1.6,2.7,2.5,5.8,2.5,9.1
				c0,3.3-0.8,6.3-2.5,9.1c-1.6,2.7-3.9,4.8-6.7,6.3C341.9,90.8,338.8,91.6,335.6,91.6z"/>
		</g>
		<g>
			<path class="st1" d="M363.9,91.3c-1.8,0-3.5-0.7-4.9-1.8c-1.3,1.1-3,1.8-4.9,1.8h-4.5c-4.1,0-7.5-3.3-7.5-7.5V64.2
				c0-4.1,3.3-7.5,7.5-7.5h3.7c1.8,0,3.5,0.7,4.9,1.8c1.3-1.1,3-1.8,4.9-1.8h4.5c4.1,0,7.5,3.3,7.5,7.5v19.6c0,4.1-3.3,7.5-7.5,7.5
				H363.9z"/>
		</g>
		<g>
			<path class="st1" d="M145.3,119.5c-3.3,0-6.3-0.7-9-2.2c-2.8-1.5-5.1-3.7-6.7-6.4c-1.6-2.7-2.4-5.7-2.4-9s0.8-6.3,2.4-9
				c1.6-2.7,3.9-4.8,6.7-6.4c2.7-1.5,5.8-2.2,9-2.2c3.3,0,6.3,0.7,9,2.2c2.8,1.5,5,3.6,6.7,6.3c1.6,2.7,2.5,5.8,2.5,9.1
				c0,3.3-0.8,6.3-2.5,9.1c-1.6,2.7-3.9,4.8-6.7,6.3C151.6,118.8,148.6,119.5,145.3,119.5z"/>
		</g>
		<g>
			<path class="st1" d="M163.2,119.2c-4.1,0-7.5-3.3-7.5-7.5v-8.5c-3.6-0.6-6.3-3.6-6.3-7.4v-3.7c0-4.1,3.3-7.5,7.5-7.5H174
				c4.1,0,7.5,3.3,7.5,7.5v3.7c0,3.7-2.7,6.8-6.3,7.4v8.5c0,4.1-3.3,7.5-7.5,7.5H163.2z"/>
		</g>
		<g>
			<path class="st1" d="M188.9,119.2c-1.4,0-2.8-0.4-4-1.1c-1.2,0.7-2.5,1.1-4,1.1h-4.5c-4.1,0-7.5-3.3-7.5-7.5V92.2
				c0-4.1,3.3-7.5,7.5-7.5h8.5c2.8,0,5.3,0.5,7.6,1.5c2.6,1.2,4.7,2.9,6.1,5.2c1.5,2.3,2.2,4.9,2.2,7.8c0,2.6-0.6,5-1.8,7.1l0.8,1.2
				c1.6,2.3,1.8,5.3,0.5,7.7c-1.3,2.5-3.8,4-6.6,4H188.9z"/>
		</g>
		<g>
			<path class="st1" d="M206.5,119.5c-3.3,0-6.3-0.7-9-2.2c-2.8-1.5-5.1-3.7-6.7-6.4c-1.6-2.7-2.4-5.7-2.4-9s0.8-6.3,2.4-9
				c1.6-2.7,3.9-4.8,6.7-6.4c2.7-1.5,5.8-2.2,9-2.2c3.3,0,6.3,0.7,9,2.2c2.8,1.5,5,3.6,6.7,6.3c1.6,2.7,2.5,5.8,2.5,9.1
				c0,3.3-0.8,6.3-2.5,9.1c-1.6,2.7-3.9,4.8-6.7,6.3C212.8,118.8,209.7,119.5,206.5,119.5z"/>
		</g>
		<g>
			<path class="st1" d="M227,119.5c-2.2,0-4.5-0.3-6.6-0.9c-2.4-0.7-4.3-1.6-5.9-2.9c-2.7-2.1-3.7-5.8-2.3-9l1.2-2.7
				c-0.8-1.5-1.5-3.5-1.5-6.1c0-2.6,0.8-5.1,2.2-7.2c1.4-2.1,3.4-3.8,6-4.9c2.2-1,4.7-1.4,7.5-1.4c1.8,0,3.7,0.2,5.5,0.7
				c1.9,0.5,3.7,1.2,5.3,2.2c3.1,1.9,4.3,5.8,3,9.1l-0.9,2.3c1.2,1.6,2.3,4,2.3,7.3c0,2.6-0.8,5.1-2.2,7.2c-1.4,2.1-3.5,3.7-6,4.9
				C232.4,119.1,229.8,119.5,227,119.5z"/>
		</g>
		<g>
			<path class="st1" d="M250.4,119.2c-4.1,0-7.5-3.3-7.5-7.5v-8.5c-3.6-0.6-6.3-3.6-6.3-7.4v-3.7c0-4.1,3.3-7.5,7.5-7.5h17.1
				c4.1,0,7.5,3.3,7.5,7.5v3.7c0,3.7-2.7,6.8-6.3,7.4v8.5c0,4.1-3.3,7.5-7.5,7.5H250.4z"/>
		</g>
		<g>
			<path class="st1" d="M263.6,119.2c-4.1,0-7.5-3.3-7.5-7.5V92.2c0-4.1,3.3-7.5,7.5-7.5h14.8c4.1,0,7.5,3.3,7.5,7.5v3.6
				c0,1.5-0.4,2.9-1.2,4.1c0,0.1,0,3.7,0,3.7c1,1.3,1.6,2.8,1.6,4.6v3.6c0,4.1-3.3,7.5-7.5,7.5H263.6z"/>
		</g>
		<g>
			<path class="st1" d="M296.6,119.2c-1.8,0-3.5-0.7-4.9-1.8c-1.3,1.1-3,1.8-4.9,1.8h-4.5c-4.1,0-7.5-3.3-7.5-7.5V92.2
				c0-4.1,3.3-7.5,7.5-7.5h3.7c1.8,0,3.5,0.7,4.9,1.8c1.3-1.1,3-1.8,4.9-1.8h4.5c4.1,0,7.5,3.3,7.5,7.5v19.6c0,4.1-3.3,7.5-7.5,7.5
				H296.6z"/>
		</g>
		<g>
			<path class="st1" d="M305,119.2c-4.1,0-7.5-3.3-7.5-7.5V92.2c0-4.1,3.3-7.5,7.5-7.5h8.9c3.3,0,6.3,0.7,9,2
				c2.9,1.4,5.2,3.5,6.8,6.2c1.6,2.7,2.5,5.7,2.5,9c0,3.3-0.8,6.4-2.5,9c-1.6,2.7-3.9,4.8-6.8,6.2c-2.7,1.3-5.7,2-9,2H305z"/>
		</g>
		<g>
			<path class="st1" d="M328.1,119.2c-4.1,0-7.5-3.3-7.5-7.5V92.2c0-4.1,3.3-7.5,7.5-7.5h14.8c4.1,0,7.5,3.3,7.5,7.5v3.6
				c0,1.5-0.4,2.9-1.2,4.1c0,0.1,0,3.7,0,3.7c1,1.3,1.6,2.8,1.6,4.6v3.6c0,4.1-3.3,7.5-7.5,7.5H328.1z"/>
		</g>
		<g>
			<path class="st1" d="M359.3,119.2c-1.4,0-2.8-0.4-4-1.1c-1.2,0.7-2.5,1.1-4,1.1h-4.5c-4.1,0-7.5-3.3-7.5-7.5V92.2
				c0-4.1,3.3-7.5,7.5-7.5h8.5c2.8,0,5.3,0.5,7.6,1.5c2.6,1.2,4.7,2.9,6.1,5.2c1.5,2.3,2.2,4.9,2.2,7.8c0,2.6-0.6,5-1.8,7.1l0.8,1.2
				c1.6,2.3,1.8,5.3,0.5,7.7c-1.3,2.5-3.8,4-6.6,4H359.3z"/>
		</g>
		<g>
			<path class="st1" d="M376.9,119.5c-3.3,0-6.3-0.7-9-2.2c-2.8-1.5-5.1-3.7-6.7-6.4c-1.6-2.7-2.4-5.7-2.4-9s0.8-6.3,2.4-9
				c1.6-2.7,3.9-4.8,6.7-6.4c2.7-1.5,5.8-2.2,9-2.2c3.3,0,6.3,0.7,9,2.2c2.8,1.5,5,3.6,6.7,6.3c1.6,2.7,2.5,5.8,2.5,9.1
				c0,3.3-0.8,6.3-2.5,9.1c-1.6,2.7-3.9,4.8-6.7,6.3C383.2,118.8,380.2,119.5,376.9,119.5z"/>
		</g>
		<g>
			<path class="st1" d="M397.4,119.5c-2.2,0-4.5-0.3-6.6-0.9c-2.4-0.7-4.3-1.6-5.9-2.9c-2.7-2.1-3.7-5.8-2.3-9l1.2-2.7
				c-0.8-1.5-1.5-3.5-1.5-6.1c0-2.6,0.8-5.1,2.2-7.2c1.4-2.1,3.4-3.8,6-4.9c2.2-1,4.7-1.4,7.5-1.4c1.8,0,3.7,0.2,5.5,0.7
				c1.9,0.5,3.7,1.2,5.3,2.2c3.1,1.9,4.3,5.8,3,9.1l-0.9,2.3c1.2,1.6,2.3,4,2.3,7.3c0,2.6-0.8,5.1-2.2,7.2c-1.4,2.1-3.5,3.7-6,4.9
				C402.8,119.1,400.2,119.5,397.4,119.5z"/>
		</g>
		<g>
			<path class="st1" d="M156.5,147.2c-4.1,0-7.5-3.3-7.5-7.5v-4.9l-6.5-10.8c-1.4-2.3-1.4-5.2-0.1-7.5c1.3-2.3,3.8-3.8,6.5-3.8h4.8
				c2,0,3.9,0.8,5.2,2.1c1.4-1.4,3.2-2.1,5.2-2.1h4.4c2.7,0,5.2,1.4,6.5,3.8c1.3,2.3,1.3,5.2-0.1,7.5l-6.5,10.9v4.9
				c0,4.1-3.3,7.5-7.5,7.5H156.5z"/>
		</g>
		<g>
			<path class="st1" d="M178.5,147.2c-4.1,0-7.5-3.3-7.5-7.5v-19.6c0-4.1,3.3-7.5,7.5-7.5h8.5c2.8,0,5.3,0.5,7.6,1.5
				c2.6,1.2,4.7,2.9,6.1,5.2c1.5,2.3,2.2,4.9,2.2,7.8c0,2.9-0.7,5.5-2.2,7.8c-1.5,2.3-3.6,4.1-6.2,5.2c-1.3,0.6-2.7,1-4.3,1.2
				c-0.8,3.2-3.7,5.7-7.2,5.7H178.5z"/>
		</g>
		<g>
			<path class="st1" d="M211.1,147.2c-1.4,0-2.8-0.4-4-1.1c-1.2,0.7-2.5,1.1-4,1.1h-4.5c-4.1,0-7.5-3.3-7.5-7.5v-19.6
				c0-4.1,3.3-7.5,7.5-7.5h8.5c2.8,0,5.3,0.5,7.6,1.5c2.6,1.2,4.7,2.9,6.1,5.2c1.5,2.3,2.2,4.9,2.2,7.8c0,2.6-0.6,5-1.8,7.1l0.8,1.2
				c1.6,2.3,1.8,5.3,0.5,7.7c-1.3,2.5-3.8,4-6.6,4H211.1z"/>
		</g>
		<g>
			<path class="st1" d="M228.7,147.5c-3.3,0-6.3-0.7-9-2.2c-2.8-1.5-5.1-3.7-6.7-6.4c-1.6-2.7-2.4-5.7-2.4-9s0.8-6.3,2.4-9
				c1.6-2.7,3.9-4.8,6.7-6.4c2.7-1.5,5.8-2.2,9-2.2c3.3,0,6.3,0.7,9,2.2c2.8,1.5,5,3.6,6.7,6.3c1.6,2.7,2.5,5.8,2.5,9.1
				s-0.8,6.3-2.5,9.1c-1.6,2.7-3.9,4.8-6.7,6.3C235,146.8,232,147.5,228.7,147.5z"/>
		</g>
		<g>
			<path class="st1" d="M248.1,147.2c-3,0-5.7-1.8-6.8-4.5l-8.4-19.6c-1-2.3-0.8-5,0.6-7.1c1.4-2.1,3.7-3.4,6.2-3.4h4.9
				c2.4,0,4.6,1.2,6,3c1.4-1.9,3.6-3,6-3h4.5c2.5,0,4.9,1.3,6.2,3.4c1.4,2.1,1.6,4.8,0.6,7.1l-8.5,19.6c-1.2,2.7-3.9,4.5-6.8,4.5
				H248.1z"/>
		</g>
		<g>
			<path class="st1" d="M262.6,147.2c-4.1,0-7.5-3.3-7.5-7.5v-19.6c0-4.1,3.3-7.5,7.5-7.5h14.8c4.1,0,7.5,3.3,7.5,7.5v3.6
				c0,1.5-0.4,2.9-1.2,4.1c0,0.1,0,3.7,0,3.7c1,1.3,1.6,2.8,1.6,4.6v3.6c0,4.1-3.3,7.5-7.5,7.5H262.6z"/>
		</g>
		<g>
			<path class="st1" d="M281.4,147.2c-4.1,0-7.5-3.3-7.5-7.5v-19.6c0-4.1,3.3-7.5,7.5-7.5h14.8c4.1,0,7.5,3.3,7.5,7.5v3.6
				c0,1.5-0.4,2.9-1.2,4.1c0,0.1,0,3.7,0,3.7c1,1.3,1.6,2.8,1.6,4.6v3.6c0,4.1-3.3,7.5-7.5,7.5H281.4z"/>
		</g>
		<g>
			<path class="st1" d="M300.1,147.2c-4.1,0-7.5-3.3-7.5-7.5v-19.6c0-4.1,3.3-7.5,7.5-7.5h8.9c3.3,0,6.3,0.7,9,2
				c2.9,1.4,5.2,3.5,6.8,6.2c1.6,2.7,2.5,5.7,2.5,9c0,3.3-0.8,6.4-2.5,9c-1.6,2.7-3.9,4.8-6.8,6.2c-2.7,1.3-5.7,2-9,2H300.1z"/>
		</g>
		<g>
			<path class="st1" d="M332.7,147.5c-3.3,0-6.3-0.7-9-2.2c-2.8-1.5-5.1-3.7-6.7-6.4c-1.6-2.7-2.4-5.7-2.4-9s0.8-6.3,2.4-9
				c1.6-2.7,3.9-4.8,6.7-6.4c2.7-1.5,5.8-2.2,9-2.2c3.3,0,6.3,0.7,9,2.2c2.8,1.5,5,3.6,6.7,6.3c1.6,2.7,2.5,5.8,2.5,9.1
				s-0.8,6.3-2.5,9.1c-1.6,2.7-3.9,4.8-6.7,6.3C339,146.8,336,147.5,332.7,147.5z"/>
		</g>
		<g>
			<path class="st1" d="M359.3,147.2c-1.4,0-2.8-0.4-4-1.1c-1.2,0.7-2.5,1.1-4,1.1h-4.5c-4.1,0-7.5-3.3-7.5-7.5v-19.6
				c0-4.1,3.3-7.5,7.5-7.5h8.5c2.8,0,5.3,0.5,7.6,1.5c2.6,1.2,4.7,2.9,6.1,5.2c1.5,2.3,2.2,4.9,2.2,7.8c0,2.6-0.6,5-1.8,7.1l0.8,1.2
				c1.6,2.3,1.8,5.3,0.5,7.7c-1.3,2.5-3.8,4-6.6,4H359.3z"/>
		</g>
		<g>
			<path class="st1" d="M367.4,147.2c-4.1,0-7.5-3.3-7.5-7.5v-19.6c0-4.1,3.3-7.5,7.5-7.5h14.8c4.1,0,7.5,3.3,7.5,7.5v3.6
				c0,1.5-0.4,2.9-1.2,4.1c0,0.1,0,3.7,0,3.7c1,1.3,1.6,2.8,1.6,4.6v3.6c0,4.1-3.3,7.5-7.5,7.5H367.4z"/>
		</g>
		<g>
			<path class="st1" d="M392.6,147.5c-2.2,0-4.5-0.3-6.6-0.9c-2.4-0.7-4.3-1.6-5.9-2.9c-2.7-2.1-3.7-5.8-2.3-9l1.2-2.7
				c-0.8-1.5-1.5-3.5-1.5-6.1c0-2.6,0.8-5.1,2.2-7.2c1.4-2.1,3.4-3.8,6-4.9c2.2-1,4.7-1.4,7.5-1.4c1.8,0,3.7,0.2,5.5,0.7
				c1.9,0.5,3.7,1.2,5.3,2.2c3.1,1.9,4.3,5.8,3,9.1l-0.9,2.3c1.2,1.6,2.3,4,2.3,7.3c0,2.6-0.8,5.1-2.2,7.2c-1.4,2.1-3.5,3.7-6,4.9
				C397.9,147,395.4,147.5,392.6,147.5z"/>
		</g>
	</g>
	<g>
		<g>
			<path class="st2" d="M124,82.8c-1.6-0.9-2.9-2.1-3.8-3.6c-0.9-1.5-1.4-3.3-1.4-5.2c0-1.9,0.5-3.7,1.4-5.2
				c0.9-1.5,2.2-2.7,3.8-3.6c1.6-0.9,3.4-1.3,5.4-1.3c1.7,0,3.2,0.3,4.6,0.9c1.4,0.6,2.5,1.5,3.5,2.6l-2.9,2.7
				c-1.3-1.5-3-2.3-4.9-2.3c-1.2,0-2.3,0.3-3.2,0.8c-1,0.5-1.7,1.3-2.2,2.2c-0.5,1-0.8,2-0.8,3.2c0,1.2,0.3,2.3,0.8,3.2
				c0.5,1,1.3,1.7,2.2,2.2c1,0.5,2,0.8,3.2,0.8c2,0,3.6-0.8,4.9-2.3l2.9,2.7c-0.9,1.1-2.1,2-3.5,2.6c-1.4,0.6-2.9,0.9-4.6,0.9
				C127.4,84.1,125.6,83.7,124,82.8z"/>
		</g>
		<g>
			<path class="st2" d="M144.1,82.8c-1.6-0.9-2.9-2.1-3.8-3.6c-0.9-1.5-1.4-3.3-1.4-5.2c0-1.9,0.5-3.6,1.4-5.2
				c0.9-1.5,2.2-2.7,3.8-3.6c1.6-0.9,3.5-1.3,5.5-1.3s3.9,0.4,5.5,1.3c1.6,0.9,2.9,2.1,3.8,3.6c0.9,1.5,1.4,3.3,1.4,5.2
				c0,1.9-0.5,3.6-1.4,5.2s-2.2,2.7-3.8,3.6c-1.6,0.9-3.4,1.3-5.5,1.3S145.7,83.7,144.1,82.8z M152.7,79.5c0.9-0.5,1.7-1.3,2.2-2.2
				c0.5-1,0.8-2,0.8-3.2c0-1.2-0.3-2.3-0.8-3.2c-0.5-1-1.3-1.7-2.2-2.2c-0.9-0.5-2-0.8-3.1-0.8s-2.2,0.3-3.1,0.8
				c-0.9,0.5-1.7,1.3-2.2,2.2c-0.5,1-0.8,2-0.8,3.2c0,1.2,0.3,2.3,0.8,3.2c0.5,1,1.3,1.7,2.2,2.2c0.9,0.5,2,0.8,3.1,0.8
				S151.8,80,152.7,79.5z"/>
		</g>
		<g>
			<path class="st2" d="M181.6,64.2v19.6h-3.7l-9.8-11.9v11.9h-4.5V64.2h3.7l9.7,11.9V64.2H181.6z"/>
		</g>
		<g>
			<path class="st2" d="M201.4,80.2v3.6h-15.2V64.2h14.8v3.6h-10.3v4.3h9.1v3.5h-9.1v4.5H201.4z M194.9,58.6h4.7l-5.1,4h-3.4
				L194.9,58.6z"/>
		</g>
		<g>
			<path class="st2" d="M209,82.8c-1.6-0.9-2.9-2.1-3.8-3.6c-0.9-1.5-1.4-3.3-1.4-5.2c0-1.9,0.5-3.7,1.4-5.2
				c0.9-1.5,2.2-2.7,3.8-3.6c1.6-0.9,3.4-1.3,5.4-1.3c1.7,0,3.2,0.3,4.6,0.9c1.4,0.6,2.5,1.5,3.5,2.6l-2.9,2.7
				c-1.3-1.5-3-2.3-4.9-2.3c-1.2,0-2.3,0.3-3.2,0.8c-1,0.5-1.7,1.3-2.2,2.2c-0.5,1-0.8,2-0.8,3.2c0,1.2,0.3,2.3,0.8,3.2
				c0.5,1,1.3,1.7,2.2,2.2c1,0.5,2,0.8,3.2,0.8c2,0,3.6-0.8,4.9-2.3l2.9,2.7c-0.9,1.1-2.1,2-3.5,2.6c-1.4,0.6-2.9,0.9-4.6,0.9
				C212.4,84.1,210.6,83.7,209,82.8z"/>
		</g>
		<g>
			<path class="st2" d="M229.3,67.9h-6.3v-3.7h17.1v3.7h-6.3v15.9h-4.5V67.9z"/>
		</g>
		<g>
			<path class="st2" d="M254.5,79.6h-9.1l-1.7,4.2H239l8.7-19.6h4.5l8.8,19.6h-4.8L254.5,79.6z M253.1,76.2l-3.1-7.5l-3.1,7.5H253.1
				z"/>
		</g>
		<g>
			<path class="st2" d="M266.1,67.9h-6.3v-3.7h17.1v3.7h-6.3v15.9h-4.5V67.9z"/>
		</g>
		<g>
			<path class="st2" d="M294.5,80.2v3.6h-15.2V64.2h14.8v3.6h-10.3v4.3h9.1v3.5h-9.1v4.5H294.5z"/>
		</g>
		<g>
			<path class="st2" d="M310,82.8c-1.6-0.9-2.9-2.1-3.8-3.6c-0.9-1.5-1.4-3.3-1.4-5.2c0-1.9,0.5-3.7,1.4-5.2
				c0.9-1.5,2.2-2.7,3.8-3.6c1.6-0.9,3.4-1.3,5.4-1.3c1.7,0,3.2,0.3,4.6,0.9c1.4,0.6,2.5,1.5,3.5,2.6l-2.9,2.7
				c-1.3-1.5-3-2.3-4.9-2.3c-1.2,0-2.3,0.3-3.2,0.8c-1,0.5-1.7,1.3-2.2,2.2c-0.5,1-0.8,2-0.8,3.2c0,1.2,0.3,2.3,0.8,3.2
				c0.5,1,1.3,1.7,2.2,2.2c1,0.5,2,0.8,3.2,0.8c2,0,3.6-0.8,4.9-2.3l2.9,2.7c-0.9,1.1-2.1,2-3.5,2.6c-1.4,0.6-2.9,0.9-4.6,0.9
				C313.4,84.1,311.6,83.7,310,82.8z"/>
		</g>
		<g>
			<path class="st2" d="M330.1,82.8c-1.6-0.9-2.9-2.1-3.8-3.6s-1.4-3.3-1.4-5.2c0-1.9,0.5-3.6,1.4-5.2c0.9-1.5,2.2-2.7,3.8-3.6
				c1.6-0.9,3.5-1.3,5.5-1.3c2,0,3.9,0.4,5.5,1.3c1.6,0.9,2.9,2.1,3.8,3.6c0.9,1.5,1.4,3.3,1.4,5.2c0,1.9-0.5,3.6-1.4,5.2
				s-2.2,2.7-3.8,3.6c-1.6,0.9-3.4,1.3-5.5,1.3C333.5,84.1,331.7,83.7,330.1,82.8z M338.7,79.5c0.9-0.5,1.7-1.3,2.2-2.2
				c0.5-1,0.8-2,0.8-3.2c0-1.2-0.3-2.3-0.8-3.2c-0.5-1-1.3-1.7-2.2-2.2c-0.9-0.5-2-0.8-3.1-0.8c-1.2,0-2.2,0.3-3.1,0.8
				c-0.9,0.5-1.7,1.3-2.2,2.2c-0.5,1-0.8,2-0.8,3.2c0,1.2,0.3,2.3,0.8,3.2c0.5,1,1.3,1.7,2.2,2.2c0.9,0.5,2,0.8,3.1,0.8
				C336.7,80.3,337.8,80,338.7,79.5z"/>
		</g>
		<g>
			<path class="st2" d="M367.6,64.2v19.6h-3.7l-9.8-11.9v11.9h-4.5V64.2h3.7l9.7,11.9V64.2H367.6z"/>
		</g>
		<g>
			<path class="st2" d="M139.8,110.8c-1.6-0.9-2.9-2.1-3.8-3.6c-0.9-1.5-1.4-3.3-1.4-5.2c0-1.9,0.5-3.6,1.4-5.2
				c0.9-1.5,2.2-2.7,3.8-3.6c1.6-0.9,3.5-1.3,5.5-1.3s3.9,0.4,5.5,1.3c1.6,0.9,2.9,2.1,3.8,3.6c0.9,1.5,1.4,3.3,1.4,5.2
				c0,1.9-0.5,3.6-1.4,5.2c-0.9,1.5-2.2,2.7-3.8,3.6c-1.6,0.9-3.4,1.3-5.5,1.3S141.5,111.7,139.8,110.8z M148.5,107.4
				c0.9-0.5,1.7-1.3,2.2-2.2c0.5-1,0.8-2,0.8-3.2c0-1.2-0.3-2.3-0.8-3.2c-0.5-1-1.3-1.7-2.2-2.2c-0.9-0.5-2-0.8-3.1-0.8
				c-1.2,0-2.2,0.3-3.1,0.8c-0.9,0.5-1.7,1.3-2.2,2.2c-0.5,1-0.8,2-0.8,3.2c0,1.2,0.3,2.3,0.8,3.2c0.5,1,1.3,1.7,2.2,2.2
				c0.9,0.5,2,0.8,3.1,0.8C146.5,108.2,147.5,108,148.5,107.4z"/>
		</g>
		<g>
			<path class="st2" d="M163.2,95.9H157v-3.7H174v3.7h-6.3v15.9h-4.5V95.9z"/>
		</g>
		<g>
			<path class="st2" d="M188.9,111.8l-3.8-5.5h-0.2H181v5.5h-4.5V92.2h8.5c1.7,0,3.2,0.3,4.5,0.9c1.3,0.6,2.3,1.4,3,2.5
				c0.7,1.1,1,2.3,1,3.8s-0.3,2.7-1,3.8c-0.7,1.1-1.7,1.9-3,2.4l4.4,6.3H188.9z M187.8,96.8c-0.7-0.6-1.7-0.9-3.1-0.9H181v6.8h3.7
				c1.4,0,2.4-0.3,3.1-0.9c0.7-0.6,1.1-1.4,1.1-2.5C188.8,98.2,188.5,97.3,187.8,96.8z"/>
		</g>
		<g>
			<path class="st2" d="M201,110.8c-1.6-0.9-2.9-2.1-3.8-3.6c-0.9-1.5-1.4-3.3-1.4-5.2c0-1.9,0.5-3.6,1.4-5.2
				c0.9-1.5,2.2-2.7,3.8-3.6c1.6-0.9,3.5-1.3,5.5-1.3s3.9,0.4,5.5,1.3c1.6,0.9,2.9,2.1,3.8,3.6c0.9,1.5,1.4,3.3,1.4,5.2
				c0,1.9-0.5,3.6-1.4,5.2c-0.9,1.5-2.2,2.7-3.8,3.6c-1.6,0.9-3.4,1.3-5.5,1.3S202.6,111.7,201,110.8z M209.6,107.4
				c0.9-0.5,1.7-1.3,2.2-2.2c0.5-1,0.8-2,0.8-3.2c0-1.2-0.3-2.3-0.8-3.2c-0.5-1-1.3-1.7-2.2-2.2c-0.9-0.5-2-0.8-3.1-0.8
				s-2.2,0.3-3.1,0.8c-0.9,0.5-1.7,1.3-2.2,2.2c-0.5,1-0.8,2-0.8,3.2c0,1.2,0.3,2.3,0.8,3.2c0.5,1,1.3,1.7,2.2,2.2
				c0.9,0.5,2,0.8,3.1,0.8S208.7,108,209.6,107.4z"/>
		</g>
		<g>
			<path class="st2" d="M222.5,111.5c-1.4-0.4-2.6-1-3.5-1.6l1.5-3.4c0.8,0.6,1.8,1.1,3,1.5c1.2,0.4,2.3,0.6,3.5,0.6
				c1.3,0,2.2-0.2,2.9-0.6c0.6-0.4,0.9-0.9,0.9-1.5c0-0.5-0.2-0.9-0.5-1.2c-0.4-0.3-0.8-0.6-1.4-0.7c-0.6-0.2-1.3-0.4-2.3-0.6
				c-1.5-0.4-2.7-0.7-3.7-1.1c-1-0.4-1.8-0.9-2.4-1.7c-0.7-0.8-1-1.8-1-3.1c0-1.1,0.3-2.2,0.9-3.1c0.6-0.9,1.5-1.7,2.8-2.2
				c1.2-0.5,2.8-0.8,4.5-0.8c1.2,0,2.5,0.2,3.7,0.4s2.2,0.7,3.1,1.3l-1.4,3.4c-1.8-1-3.6-1.5-5.4-1.5c-1.3,0-2.2,0.2-2.8,0.6
				c-0.6,0.4-0.9,1-0.9,1.6c0,0.7,0.3,1.2,1,1.5c0.7,0.3,1.8,0.6,3.2,1c1.5,0.4,2.7,0.7,3.7,1.1c1,0.4,1.8,0.9,2.4,1.7
				c0.7,0.8,1,1.8,1,3.1c0,1.1-0.3,2.1-0.9,3.1c-0.6,0.9-1.6,1.7-2.8,2.2c-1.2,0.5-2.8,0.8-4.6,0.8
				C225.5,112.1,224,111.9,222.5,111.5z"/>
		</g>
		<g>
			<path class="st2" d="M250.4,95.9h-6.3v-3.7h17.1v3.7h-6.3v15.9h-4.5V95.9z"/>
		</g>
		<g>
			<path class="st2" d="M278.8,108.1v3.6h-15.2V92.2h14.8v3.6h-10.3v4.3h9.1v3.5h-9.1v4.5H278.8z"/>
		</g>
		<g>
			<path class="st2" d="M300.3,92.2v19.6h-3.7l-9.8-11.9v11.9h-4.5V92.2h3.7l9.7,11.9V92.2H300.3z"/>
		</g>
		<g>
			<path class="st2" d="M305,92.2h8.9c2.1,0,4,0.4,5.6,1.2c1.6,0.8,2.9,2,3.8,3.4c0.9,1.5,1.4,3.2,1.4,5.1c0,2-0.5,3.7-1.4,5.1
				c-0.9,1.5-2.2,2.6-3.8,3.4c-1.6,0.8-3.5,1.2-5.6,1.2H305V92.2z M313.7,108c2,0,3.5-0.5,4.7-1.6c1.2-1.1,1.7-2.6,1.7-4.4
				c0-1.9-0.6-3.3-1.7-4.4c-1.2-1.1-2.7-1.6-4.7-1.6h-4.1V108H313.7z"/>
		</g>
		<g>
			<path class="st2" d="M343.2,108.1v3.6h-15.2V92.2h14.8v3.6h-10.3v4.3h9.1v3.5h-9.1v4.5H343.2z"/>
		</g>
		<g>
			<path class="st2" d="M359.3,111.8l-3.8-5.5h-0.2h-3.9v5.5h-4.5V92.2h8.5c1.7,0,3.2,0.3,4.5,0.9c1.3,0.6,2.3,1.4,3,2.5
				c0.7,1.1,1,2.3,1,3.8s-0.3,2.7-1,3.8c-0.7,1.1-1.7,1.9-3,2.4l4.4,6.3H359.3z M358.2,96.8c-0.7-0.6-1.7-0.9-3.1-0.9h-3.7v6.8h3.7
				c1.4,0,2.4-0.3,3.1-0.9c0.7-0.6,1.1-1.4,1.1-2.5C359.2,98.2,358.9,97.3,358.2,96.8z"/>
		</g>
		<g>
			<path class="st2" d="M371.4,110.8c-1.6-0.9-2.9-2.1-3.8-3.6c-0.9-1.5-1.4-3.3-1.4-5.2c0-1.9,0.5-3.6,1.4-5.2
				c0.9-1.5,2.2-2.7,3.8-3.6c1.6-0.9,3.5-1.3,5.5-1.3c2,0,3.9,0.4,5.5,1.3c1.6,0.9,2.9,2.1,3.8,3.6c0.9,1.5,1.4,3.3,1.4,5.2
				c0,1.9-0.5,3.6-1.4,5.2c-0.9,1.5-2.2,2.7-3.8,3.6c-1.6,0.9-3.4,1.3-5.5,1.3C374.8,112.1,373,111.7,371.4,110.8z M380,107.4
				c0.9-0.5,1.7-1.3,2.2-2.2c0.5-1,0.8-2,0.8-3.2c0-1.2-0.3-2.3-0.8-3.2c-0.5-1-1.3-1.7-2.2-2.2c-0.9-0.5-2-0.8-3.1-0.8
				s-2.2,0.3-3.1,0.8c-0.9,0.5-1.7,1.3-2.2,2.2c-0.5,1-0.8,2-0.8,3.2c0,1.2,0.3,2.3,0.8,3.2c0.5,1,1.3,1.7,2.2,2.2
				c0.9,0.5,2,0.8,3.1,0.8S379.1,108,380,107.4z"/>
		</g>
		<g>
			<path class="st2" d="M392.9,111.5c-1.4-0.4-2.6-1-3.5-1.6l1.5-3.4c0.8,0.6,1.8,1.1,3,1.5s2.3,0.6,3.5,0.6c1.3,0,2.2-0.2,2.9-0.6
				c0.6-0.4,0.9-0.9,0.9-1.5c0-0.5-0.2-0.9-0.5-1.2c-0.4-0.3-0.8-0.6-1.4-0.7c-0.6-0.2-1.3-0.4-2.3-0.6c-1.5-0.4-2.7-0.7-3.7-1.1
				c-1-0.4-1.8-0.9-2.4-1.7c-0.7-0.8-1-1.8-1-3.1c0-1.1,0.3-2.2,0.9-3.1c0.6-0.9,1.5-1.7,2.8-2.2c1.2-0.5,2.8-0.8,4.5-0.8
				c1.2,0,2.5,0.2,3.7,0.4c1.2,0.3,2.2,0.7,3.1,1.3l-1.4,3.4c-1.8-1-3.6-1.5-5.4-1.5c-1.3,0-2.2,0.2-2.8,0.6c-0.6,0.4-0.9,1-0.9,1.6
				c0,0.7,0.3,1.2,1,1.5c0.7,0.3,1.8,0.6,3.2,1c1.5,0.4,2.7,0.7,3.7,1.1c1,0.4,1.8,0.9,2.4,1.7c0.7,0.8,1,1.8,1,3.1
				c0,1.1-0.3,2.1-0.9,3.1c-0.6,0.9-1.6,1.7-2.8,2.2c-1.2,0.5-2.8,0.8-4.6,0.8C395.9,112.1,394.4,111.9,392.9,111.5z"/>
		</g>
		<g>
			<path class="st2" d="M161.1,132.8v6.9h-4.5v-7l-7.6-12.6h4.8l5.2,8.7l5.2-8.7h4.4L161.1,132.8z"/>
		</g>
		<g>
			<path class="st2" d="M191.5,121c1.3,0.6,2.3,1.4,3,2.5c0.7,1.1,1,2.3,1,3.8c0,1.4-0.3,2.7-1,3.8c-0.7,1.1-1.7,1.9-3,2.5
				c-1.3,0.6-2.8,0.9-4.5,0.9H183v5.4h-4.5v-19.6h8.5C188.7,120.1,190.2,120.4,191.5,121z M189.8,129.8c0.7-0.6,1.1-1.4,1.1-2.5
				c0-1.1-0.4-1.9-1.1-2.5c-0.7-0.6-1.7-0.9-3.1-0.9H183v6.8h3.7C188.1,130.6,189.1,130.3,189.8,129.8z"/>
		</g>
		<g>
			<path class="st2" d="M211.1,139.7l-3.8-5.5h-0.2h-3.9v5.5h-4.5v-19.6h8.5c1.7,0,3.2,0.3,4.5,0.9c1.3,0.6,2.3,1.4,3,2.5
				c0.7,1.1,1,2.3,1,3.8s-0.3,2.7-1,3.8c-0.7,1.1-1.7,1.9-3,2.4l4.4,6.3H211.1z M210,124.7c-0.7-0.6-1.7-0.9-3.1-0.9h-3.7v6.8h3.7
				c1.4,0,2.4-0.3,3.1-0.9c0.7-0.6,1.1-1.4,1.1-2.5C211.1,126.1,210.7,125.3,210,124.7z"/>
		</g>
		<g>
			<path class="st2" d="M223.2,138.7c-1.6-0.9-2.9-2.1-3.8-3.6c-0.9-1.5-1.4-3.3-1.4-5.2c0-1.9,0.5-3.6,1.4-5.2
				c0.9-1.5,2.2-2.7,3.8-3.6c1.6-0.9,3.5-1.3,5.5-1.3s3.9,0.4,5.5,1.3c1.6,0.9,2.9,2.1,3.8,3.6c0.9,1.5,1.4,3.3,1.4,5.2
				c0,1.9-0.5,3.6-1.4,5.2s-2.2,2.7-3.8,3.6c-1.6,0.9-3.4,1.3-5.5,1.3S224.8,139.6,223.2,138.7z M231.8,135.4
				c0.9-0.5,1.7-1.3,2.2-2.2c0.5-1,0.8-2,0.8-3.2c0-1.2-0.3-2.3-0.8-3.2c-0.5-1-1.3-1.7-2.2-2.2c-0.9-0.5-2-0.8-3.1-0.8
				c-1.2,0-2.2,0.3-3.1,0.8c-0.9,0.5-1.7,1.3-2.2,2.2c-0.5,1-0.8,2-0.8,3.2c0,1.2,0.3,2.3,0.8,3.2c0.5,1,1.3,1.7,2.2,2.2
				c0.9,0.5,2,0.8,3.1,0.8C229.9,136.2,230.9,135.9,231.8,135.4z"/>
		</g>
		<g>
			<path class="st2" d="M261,120.1l-8.5,19.6h-4.5l-8.4-19.6h4.9l6,14l6-14H261z"/>
		</g>
		<g>
			<path class="st2" d="M277.8,136.1v3.6h-15.2v-19.6h14.8v3.6h-10.3v4.3h9.1v3.5h-9.1v4.5H277.8z"/>
		</g>
		<g>
			<path class="st2" d="M296.5,136.1v3.6h-15.2v-19.6h14.8v3.6h-10.3v4.3h9.1v3.5h-9.1v4.5H296.5z"/>
		</g>
		<g>
			<path class="st2" d="M300.1,120.1h8.9c2.1,0,4,0.4,5.6,1.2c1.6,0.8,2.9,2,3.8,3.4c0.9,1.5,1.4,3.2,1.4,5.1c0,2-0.5,3.7-1.4,5.1
				c-0.9,1.5-2.2,2.6-3.8,3.4c-1.6,0.8-3.5,1.2-5.6,1.2h-8.9V120.1z M308.8,136c2,0,3.5-0.5,4.7-1.6c1.2-1.1,1.7-2.6,1.7-4.4
				c0-1.9-0.6-3.3-1.7-4.4c-1.2-1.1-2.7-1.6-4.7-1.6h-4.1V136H308.8z"/>
		</g>
		<g>
			<path class="st2" d="M327.2,138.7c-1.6-0.9-2.9-2.1-3.8-3.6c-0.9-1.5-1.4-3.3-1.4-5.2c0-1.9,0.5-3.6,1.4-5.2
				c0.9-1.5,2.2-2.7,3.8-3.6c1.6-0.9,3.5-1.3,5.5-1.3c2,0,3.9,0.4,5.5,1.3s2.9,2.1,3.8,3.6c0.9,1.5,1.4,3.3,1.4,5.2
				c0,1.9-0.5,3.6-1.4,5.2s-2.2,2.7-3.8,3.6c-1.6,0.9-3.4,1.3-5.5,1.3C330.7,140.1,328.9,139.6,327.2,138.7z M335.9,135.4
				c0.9-0.5,1.7-1.3,2.2-2.2c0.5-1,0.8-2,0.8-3.2c0-1.2-0.3-2.3-0.8-3.2c-0.5-1-1.3-1.7-2.2-2.2c-0.9-0.5-2-0.8-3.1-0.8
				c-1.2,0-2.2,0.3-3.1,0.8c-0.9,0.5-1.7,1.3-2.2,2.2c-0.5,1-0.8,2-0.8,3.2c0,1.2,0.3,2.3,0.8,3.2c0.5,1,1.3,1.7,2.2,2.2
				c0.9,0.5,2,0.8,3.1,0.8C333.9,136.2,334.9,135.9,335.9,135.4z"/>
		</g>
		<g>
			<path class="st2" d="M359.3,139.7l-3.8-5.5h-0.2h-3.9v5.5h-4.5v-19.6h8.5c1.7,0,3.2,0.3,4.5,0.9c1.3,0.6,2.3,1.4,3,2.5
				c0.7,1.1,1,2.3,1,3.8s-0.3,2.7-1,3.8c-0.7,1.1-1.7,1.9-3,2.4l4.4,6.3H359.3z M358.2,124.7c-0.7-0.6-1.7-0.9-3.1-0.9h-3.7v6.8h3.7
				c1.4,0,2.4-0.3,3.1-0.9c0.7-0.6,1.1-1.4,1.1-2.5C359.2,126.1,358.9,125.3,358.2,124.7z"/>
		</g>
		<g>
			<path class="st2" d="M382.6,136.1v3.6h-15.2v-19.6h14.8v3.6h-10.3v4.3h9.1v3.5h-9.1v4.5H382.6z"/>
		</g>
		<g>
			<path class="st2" d="M388.1,139.4c-1.4-0.4-2.6-1-3.5-1.6l1.5-3.4c0.8,0.6,1.8,1.1,3,1.5s2.3,0.6,3.5,0.6c1.3,0,2.2-0.2,2.9-0.6
				c0.6-0.4,0.9-0.9,0.9-1.5c0-0.5-0.2-0.9-0.5-1.2c-0.4-0.3-0.8-0.6-1.4-0.7c-0.6-0.2-1.3-0.4-2.3-0.6c-1.5-0.4-2.7-0.7-3.7-1.1
				c-1-0.4-1.8-0.9-2.4-1.7c-0.7-0.8-1-1.8-1-3.1c0-1.1,0.3-2.2,0.9-3.1c0.6-0.9,1.5-1.7,2.8-2.2c1.2-0.5,2.8-0.8,4.5-0.8
				c1.2,0,2.5,0.2,3.7,0.4c1.2,0.3,2.2,0.7,3.1,1.3l-1.4,3.4c-1.8-1-3.6-1.5-5.4-1.5c-1.3,0-2.2,0.2-2.8,0.6c-0.6,0.4-0.9,1-0.9,1.6
				c0,0.7,0.3,1.2,1,1.5c0.7,0.3,1.8,0.6,3.2,1c1.5,0.4,2.7,0.7,3.7,1.1c1,0.4,1.8,0.9,2.4,1.7c0.7,0.8,1,1.8,1,3.1
				c0,1.1-0.3,2.1-0.9,3.1c-0.6,0.9-1.6,1.7-2.8,2.2c-1.2,0.5-2.8,0.8-4.6,0.8C391,140.1,389.6,139.8,388.1,139.4z"/>
		</g>
	</g>
</g>
</svg>
