<?xml version="1.0" encoding="utf-8"?>
<!-- Generator: Adobe Illustrator 21.0.2, SVG Export Plug-In . SVG Version: 6.00 Build 0)  -->
<svg version="1.1" id="Capa_1" xmlns="http://www.w3.org/2000/svg" xmlns:xlink="http://www.w3.org/1999/xlink" x="0px" y="0px"
	 viewBox="0 0 274.5 138.4" style="enable-background:new 0 0 274.5 138.4;" xml:space="preserve">
<style type="text/css">
	.st0{fill:url(#SVGID_1_);}
	.st1{fill:#FFFFFF;}
	.st2{fill:#04294B;}
</style>
<linearGradient id="SVGID_1_" gradientUnits="userSpaceOnUse" x1="1.3186" y1="68.6586" x2="134.0486" y2="68.6586">
	<stop  offset="0" style="stop-color:#FF9800"/>
	<stop  offset="1" style="stop-color:#FFCE0D"/>
</linearGradient>
<path class="st0" d="M72.5,87.2c2.7-0.8,4.2-3.7,3.4-6.4c-0.8-2.7-3.7-4.2-6.4-3.4c-2.7,0.8-4.2,3.7-3.4,6.4
	C67,86.5,69.8,88,72.5,87.2z M71.9,67.6c-0.8-2.7-3.7-4.2-6.4-3.4c-2.7,0.8-4.2,3.7-3.4,6.4h0c0.8,2.7,3.7,4.2,6.4,3.4
	C71.2,73.2,72.7,70.3,71.9,67.6z M73.5,90.5c-2.7,0.8-4.2,3.7-3.4,6.4c0.8,2.7,3.7,4.2,6.4,3.4c2.7-0.8,4.2-3.7,3.4-6.4
	C79.1,91.2,76.2,89.7,73.5,90.5z M89.4,85.7c-2.7,0.8-4.2,3.7-3.4,6.4v0c0.8,2.7,3.7,4.2,6.4,3.4c2.7-0.8,4.2-3.7,3.4-6.4
	C95,86.4,92.1,84.9,89.4,85.7z M37.7,13l6.2,0.9L43,20.1c-0.2,1.5,0.8,2.9,2.3,3.1c0.1,0,0.3,0,0.4,0c1.3,0,2.5-1,2.7-2.3l0.9-6.2
	l6.2,0.9c0.1,0,0.3,0,0.4,0c1.3,0,2.5-1,2.7-2.3c0.2-1.5-0.8-2.9-2.3-3.1l-6.2-0.9l0.9-6.2c0.2-1.5-0.8-2.9-2.3-3.1
	c-1.5-0.2-2.9,0.8-3.1,2.3l-0.9,6.2l-6.2-0.9c-1.5-0.2-2.9,0.8-3.1,2.3C35.2,11.4,36.2,12.8,37.7,13z M85.4,72.5
	c-2.7,0.8-4.2,3.7-3.4,6.4c0.8,2.7,3.7,4.2,6.4,3.4c2.7-0.8,4.2-3.7,3.4-6.4C91,73.2,88.1,71.7,85.4,72.5z M31.8,120.1
	c-11.7-8.6-20-21.1-23.3-35.2c-5.7-24.3,3.8-49.3,24.2-63.7c1.2-0.9,1.5-2.6,0.7-3.8c-0.9-1.2-2.6-1.5-3.8-0.7
	C7.2,32.4-3.1,59.6,3.1,86.1c3.6,15.4,12.7,29.1,25.4,38.4c0.5,0.4,1.1,0.5,1.6,0.5c0.8,0,1.7-0.4,2.2-1.1
	C33.3,122.7,33,121,31.8,120.1z M45.8,127.7c-2-0.8-4.1-1.7-6-2.7c-1.3-0.7-3-0.2-3.7,1.2c-0.7,1.3-0.2,3,1.2,3.7
	c2.1,1.1,4.3,2.1,6.5,2.9c0.3,0.1,0.7,0.2,1,0.2c1.1,0,2.1-0.7,2.6-1.8C47.9,129.9,47.2,128.3,45.8,127.7z M132.3,55.8
	C125,24.5,96.4,3,64.3,4.7c-1.5,0.1-2.7,1.4-2.6,2.9c0.1,1.5,1.3,2.7,2.9,2.6c29.4-1.5,55.6,18.2,62.3,46.9
	c7.7,32.7-12.7,65.5-45.4,73.1c-1.5,0.3-2.4,1.8-2,3.3c0.3,1.3,1.4,2.1,2.7,2.1c0.2,0,0.4,0,0.6-0.1
	C118.5,127.2,140.6,91.4,132.3,55.8z M60.6,117.2l39-11.9c3.2-1,5.9-3.2,7.5-6.2c1.6-3,1.9-6.4,0.9-9.7L90.9,33.1
	c-2-6.7-9.2-10.5-15.8-8.4L36,36.6c-3.2,1-5.9,3.2-7.5,6.2c-1.6,3-1.9,6.4-0.9,9.7l17.2,56.3c1.7,5.5,6.7,9,12.1,9
	C58.1,117.7,59.4,117.6,60.6,117.2z M50.2,107.1L33,50.8c-0.5-1.8-0.4-3.6,0.5-5.3c0.9-1.6,2.3-2.9,4.1-3.4l39-11.9
	c0.7-0.2,1.4-0.3,2-0.3c3,0,5.7,1.9,6.7,4.9l17.2,56.3c0.5,1.8,0.4,3.6-0.5,5.3c-0.9,1.6-2.3,2.9-4.1,3.4l-39,11.9
	C55.3,112.8,51.4,110.8,50.2,107.1z M81.4,59.4c-2.7,0.8-4.2,3.7-3.4,6.4c0.8,2.7,3.7,4.2,6.4,3.4c2.7-0.8,4.2-3.7,3.4-6.4h0
	C87,60.1,84.1,58.6,81.4,59.4z M60.6,105.2L60.6,105.2c2.7-0.8,4.2-3.7,3.4-6.4c-0.8-2.7-3.7-4.2-6.4-3.4c-2.7,0.8-4.2,3.7-3.4,6.4
	C55.1,104.5,57.9,106,60.6,105.2z M71.9,131.7c-5.6,0.4-11.3,0-16.8-1.2c-1.5-0.3-2.9,0.6-3.3,2.1c-0.3,1.5,0.6,2.9,2.1,3.3
	c4.5,1,9.1,1.4,13.7,1.4c1.6,0,3.1-0.1,4.7-0.2c1.5-0.1,2.7-1.4,2.5-2.9C74.8,132.7,73.4,131.6,71.9,131.7z M56.6,92L56.6,92
	c2.7-0.8,4.2-3.7,3.4-6.4v0c-0.8-2.7-3.7-4.2-6.4-3.4c-2.7,0.8-4.2,3.7-3.4,6.4C51,91.3,53.9,92.8,56.6,92z M80.9,52.6
	c2-0.6,3.2-2.8,2.6-4.8L80.8,39c-0.6-2-2.8-3.2-4.8-2.6L41.7,46.9c-2,0.6-3.2,2.8-2.6,4.8l2.7,8.8c0.6,2,2.8,3.2,4.8,2.6L80.9,52.6z
	 M52.6,78.9c2.7-0.8,4.2-3.7,3.4-6.4c-0.8-2.7-3.7-4.2-6.4-3.4c-2.7,0.8-4.2,3.7-3.4,6.4C47,78.2,49.9,79.7,52.6,78.9z"/>
<g>
	<g>
		<g>
			<path class="st1" d="M100.4,62.6c-3.2,0-5.9-2.6-5.9-5.9v-6.7c-2.8-0.4-4.9-2.9-4.9-5.8v-2.9c0-3.2,2.6-5.9,5.9-5.9h13.4
				c3.2,0,5.9,2.6,5.9,5.9v2.9c0,2.9-2.1,5.3-4.9,5.8v6.7c0,3.2-2.6,5.9-5.9,5.9H100.4z"/>
		</g>
		<g>
			<path class="st1" d="M118,62.9c-2.6,0-5-0.6-7.1-1.7c-2.2-1.2-4-2.9-5.3-5c-1.3-2.1-1.9-4.5-1.9-7.1c0-2.6,0.6-5,1.9-7.1
				c1.3-2.1,3-3.8,5.3-5c2.1-1.1,4.5-1.7,7.1-1.7c2.6,0,5,0.6,7.1,1.7c2.2,1.2,4,2.9,5.2,5c1.3,2.1,1.9,4.5,1.9,7.1
				c0,2.6-0.7,5-1.9,7.1c-1.3,2.1-3,3.8-5.2,5C123,62.3,120.6,62.9,118,62.9z"/>
		</g>
		<g>
			<path class="st1" d="M143.1,62.6c-1.6,0-3-0.6-4.1-1.6c-0.2,0-0.3,0-0.5,0H137c-0.1,0-0.3,0-0.4,0c-1.1,1-2.5,1.6-4.1,1.6h-3.3
				c-3.2,0-5.9-2.6-5.9-5.9V41.4c0-3.2,2.6-5.9,5.9-5.9h2.9c2.1,0,4,1.1,5,2.8l0.7,1.2l0.7-1.1c1.1-1.8,3-2.9,5-2.9h2.9
				c3.2,0,5.9,2.6,5.9,5.8l0,15.4c0,1.6-0.6,3.1-1.7,4.2c-1.1,1.1-2.6,1.7-4.2,1.7H143.1z"/>
		</g>
		<g>
			<path class="st1" d="M161.6,62.6c-2,0-3.9-1-4.9-2.7c-1.1,1.7-2.9,2.7-4.9,2.7h-3.7c-2,0-3.8-1-4.9-2.7c-1.1-1.7-1.2-3.8-0.4-5.6
				l6.9-15.4c0.9-2.1,3-3.5,5.4-3.5h3.5c2.3,0,4.4,1.4,5.4,3.5l6.9,15.4c0.8,1.8,0.6,3.9-0.4,5.6c-1.1,1.7-2.9,2.7-4.9,2.7H161.6z"
				/>
		</g>
		<g>
			<path class="st1" d="M173.2,62.6c-3.2,0-5.9-2.6-5.9-5.9V41.4c0-3.2,2.6-5.9,5.9-5.9h11.6c3.2,0,5.9,2.6,5.9,5.9v2.9
				c0,1.2-0.3,2.3-0.9,3.2c0,0,0,2.9,0,2.9c0.8,1,1.2,2.2,1.2,3.6v2.9c0,3.2-2.6,5.9-5.9,5.9H173.2z"/>
		</g>
		<g>
			<path class="st1" d="M188,62.6c-3.2,0-5.9-2.6-5.9-5.9V41.4c0-3.2,2.6-5.9,5.9-5.9h3.6c3.2,0,5.9,2.6,5.9,5.9V48h1.9
				c3.2,0,5.9,2.6,5.9,5.9v2.9c0,3.2-2.6,5.9-5.9,5.9H188z"/>
		</g>
		<g>
			<path class="st1" d="M117,84.9c-2.5,0-4.9-0.6-7-1.7c-2.2-1.2-4-2.9-5.2-5c-1.3-2.1-1.9-4.5-1.9-7.1c0-2.6,0.6-5,1.9-7.1
				c1.3-2.1,3-3.8,5.2-5c2.1-1.1,4.5-1.7,7.1-1.7c2.1,0,4.1,0.4,6,1.2c1.9,0.8,3.6,2.1,4.9,3.6c2,2.4,1.8,5.9-0.5,8.1l-1,0.9l1,0.9
				c2.3,2.1,2.5,5.6,0.6,8c-1.3,1.6-3,2.9-4.9,3.7C121.1,84.5,119.1,84.9,117,84.9z"/>
		</g>
		<g>
			<path class="st1" d="M132.9,84.9c-2.6,0-5-0.6-7.1-1.7c-2.2-1.2-4-2.9-5.3-5c-1.3-2.1-1.9-4.5-1.9-7.1s0.6-5,1.9-7.1
				c1.3-2.1,3-3.8,5.3-5c2.1-1.1,4.5-1.7,7.1-1.7c2.6,0,5,0.6,7.1,1.7c2.2,1.2,4,2.9,5.2,5c1.3,2.1,1.9,4.5,1.9,7.1s-0.7,5-1.9,7.1
				c-1.3,2.1-3,3.8-5.2,5C137.9,84.3,135.5,84.9,132.9,84.9z"/>
		</g>
		<g>
			<path class="st1" d="M155.2,84.6c-1.4,0-2.8-0.5-3.8-1.4c-1,0.9-2.4,1.4-3.8,1.4H144c-3.2,0-5.9-2.6-5.9-5.9V63.4
				c0-3.2,2.6-5.9,5.9-5.9h2.9c1.4,0,2.8,0.5,3.8,1.4c1-0.9,2.4-1.4,3.8-1.4h3.5c3.2,0,5.9,2.6,5.9,5.9v15.4c0,3.2-2.6,5.9-5.9,5.9
				H155.2z"/>
		</g>
		<g>
			<path class="st1" d="M165,84.6c-3.2,0-5.9-2.6-5.9-5.9v-6.7c-2.8-0.4-4.9-2.9-4.9-5.8v-2.9c0-3.2,2.6-5.9,5.9-5.9h13.4
				c3.2,0,5.9,2.6,5.9,5.9v2.9c0,2.9-2.1,5.3-4.9,5.8v6.7c0,3.2-2.6,5.9-5.9,5.9H165z"/>
		</g>
		<g>
			<path class="st1" d="M185.2,84.6c-1.1,0-2.2-0.3-3.1-0.9c-0.9,0.6-2,0.9-3.1,0.9h-3.6c-3.2,0-5.9-2.6-5.9-5.9V63.4
				c0-3.2,2.6-5.9,5.9-5.9h6.7c2.2,0,4.2,0.4,6,1.2c2,0.9,3.7,2.3,4.8,4.1c1.2,1.8,1.8,3.9,1.8,6.2c0,2-0.5,3.9-1.4,5.5l0.6,0.9
				c1.3,1.8,1.4,4.1,0.4,6.1c-1,1.9-3,3.2-5.2,3.2H185.2z"/>
		</g>
		<g>
			<path class="st1" d="M199,84.9c-2.6,0-5-0.6-7.1-1.7c-2.2-1.2-4-2.9-5.3-5c-1.3-2.1-1.9-4.5-1.9-7.1s0.6-5,1.9-7.1
				c1.3-2.1,3-3.8,5.3-5c2.1-1.1,4.5-1.7,7.1-1.7c2.6,0,5,0.6,7.1,1.7c2.2,1.2,4,2.9,5.2,5c1.3,2.1,1.9,4.5,1.9,7.1s-0.7,5-1.9,7.1
				c-1.3,2.1-3,3.8-5.2,5C204,84.3,201.6,84.9,199,84.9z"/>
		</g>
		<g>
			<path class="st1" d="M210.1,84.6c-3.2,0-5.9-2.6-5.9-5.9V63.4c0-3.2,2.6-5.9,5.9-5.9h3.6c3.2,0,5.9,2.6,5.9,5.9V70h1.9
				c3.2,0,5.9,2.6,5.9,5.9v2.9c0,3.2-2.6,5.9-5.9,5.9H210.1z"/>
		</g>
		<g>
			<path class="st1" d="M229.6,84.6c-3.2,0-5.9-2.6-5.9-5.9V63.4c0-3.2,2.6-5.9,5.9-5.9h7c2.6,0,4.9,0.5,7,1.6
				c2.3,1.1,4.1,2.8,5.4,4.9c1.3,2.1,1.9,4.5,1.9,7.1c0,2.6-0.7,5-1.9,7.1c-1.3,2.1-3.1,3.7-5.4,4.9c-2.1,1-4.5,1.6-7,1.6H229.6z"/>
		</g>
		<g>
			<path class="st1" d="M247.8,84.6c-3.2,0-5.9-2.6-5.9-5.9V63.4c0-3.2,2.6-5.9,5.9-5.9h11.6c3.2,0,5.9,2.6,5.9,5.9v2.9
				c0,1.2-0.3,2.3-0.9,3.2c0,0,0,2.9,0,2.9c0.8,1,1.2,2.2,1.2,3.6v2.9c0,3.2-2.6,5.9-5.9,5.9H247.8z"/>
		</g>
		<g>
			<path class="st1" d="M125.3,106.6c-3.2,0-5.9-2.6-5.9-5.9v-6.7c-2.8-0.4-4.9-2.9-4.9-5.8v-2.9c0-3.2,2.6-5.9,5.9-5.9h13.4
				c3.2,0,5.9,2.6,5.9,5.9v2.9c0,2.9-2.1,5.3-4.9,5.8v6.7c0,3.2-2.6,5.9-5.9,5.9H125.3z"/>
		</g>
		<g>
			<path class="st1" d="M142.3,106.9c-4.7,0-7.7-1.9-9.3-3.5c-1.6-1.6-3.6-4.6-3.6-9.4v-8.6c0-3.2,2.6-5.9,5.9-5.9h3.6
				c1.3,0,2.5,0.4,3.4,1.1c1-0.7,2.2-1.1,3.4-1.1h3.5c3.2,0,5.9,2.6,5.9,5.9V94c0,4.8-1.9,7.8-3.6,9.4
				C149.9,105,147,106.9,142.3,106.9z M144.7,94.2L144.7,94.2z"/>
		</g>
		<g>
			<path class="st1" d="M170.2,106.6c-1.4,0-2.8-0.5-3.8-1.4c-1,0.9-2.4,1.4-3.8,1.4H159c-3.2,0-5.9-2.6-5.9-5.9V85.4
				c0-3.2,2.6-5.9,5.9-5.9h2.9c1.4,0,2.8,0.5,3.8,1.4c1-0.9,2.4-1.4,3.8-1.4h3.5c3.2,0,5.9,2.6,5.9,5.9v15.4c0,3.2-2.6,5.9-5.9,5.9
				H170.2z"/>
		</g>
		<g>
			<path class="st1" d="M176.8,106.6c-3.2,0-5.9-2.6-5.9-5.9V85.4c0-3.2,2.6-5.9,5.9-5.9h11.6c3.2,0,5.9,2.6,5.9,5.9v2.9
				c0,1.2-0.3,2.3-0.9,3.2c0,0,0,2.9,0,2.9c0.8,1,1.2,2.2,1.2,3.6v2.9c0,3.2-2.6,5.9-5.9,5.9H176.8z"/>
		</g>
		<g>
			<path class="st1" d="M198.9,106.9c-2.6,0-4.9-0.6-7.1-1.7c-2.2-1.2-4-2.9-5.3-5c-1.3-2.1-1.9-4.5-1.9-7.1c0-2.6,0.6-5,1.9-7.1
				c1.3-2.1,3.1-3.8,5.3-5c2.1-1.1,4.5-1.7,7.1-1.7c2.1,0,4.1,0.4,5.9,1.1c1.9,0.8,3.6,2,5,3.6c1.6,1.9,1.9,4.6,0.7,6.7
				c0.3,0.7,0.4,1.4,0.4,2.2v6.2c0,1.8-0.9,3.6-2.3,4.7c-1.4,1-3,1.8-4.7,2.4C202.3,106.6,200.6,106.9,198.9,106.9z"/>
		</g>
		<g>
			<path class="st1" d="M215.9,106.9c-2.6,0-5-0.6-7.1-1.7c-2.2-1.2-4-2.9-5.3-5c-1.3-2.1-1.9-4.5-1.9-7.1s0.6-5,1.9-7.1
				c1.3-2.1,3-3.8,5.3-5c2.1-1.1,4.5-1.7,7.1-1.7c2.6,0,5,0.6,7.1,1.7c2.2,1.2,4,2.9,5.2,5c1.3,2.1,1.9,4.5,1.9,7.1s-0.7,5-1.9,7.1
				c-1.3,2.1-3,3.8-5.2,5C220.9,106.3,218.5,106.9,215.9,106.9z"/>
		</g>
		<g>
			<path class="st1" d="M234.4,106.9c-2.5,0-4.9-0.6-7-1.7c-2.2-1.2-4-2.9-5.2-5c-1.3-2.1-1.9-4.5-1.9-7.1c0-2.6,0.6-5,1.9-7.1
				c1.3-2.1,3-3.8,5.2-5c2.1-1.1,4.5-1.7,7.1-1.7c2.1,0,4.1,0.4,6,1.2c1.9,0.8,3.6,2.1,4.9,3.6c2,2.4,1.8,5.9-0.5,8.1l-1,0.9l1,0.9
				c2.3,2.1,2.5,5.6,0.6,8c-1.3,1.6-3,2.9-4.9,3.7C238.5,106.5,236.5,106.9,234.4,106.9z"/>
		</g>
		<g>
			<path class="st1" d="M243.1,106.6c-3.2,0-5.9-2.6-5.9-5.9V85.4c0-3.2,2.6-5.9,5.9-5.9h3.6c3.2,0,5.9,2.6,5.9,5.9v15.4
				c0,3.2-2.6,5.9-5.9,5.9H243.1z"/>
		</g>
		<g>
			<path class="st1" d="M257.8,106.9c-2.6,0-5-0.6-7.1-1.7c-2.2-1.2-4-2.9-5.3-5c-1.3-2.1-1.9-4.5-1.9-7.1s0.6-5,1.9-7.1
				c1.3-2.1,3-3.8,5.3-5c2.1-1.1,4.5-1.7,7.1-1.7c2.6,0,5,0.6,7.1,1.7c2.2,1.2,4,2.9,5.2,5c1.3,2.1,1.9,4.5,1.9,7.1s-0.7,5-1.9,7.1
				c-1.3,2.1-3,3.8-5.2,5C262.8,106.3,260.4,106.9,257.8,106.9z"/>
		</g>
	</g>
	<g>
		<g>
			<path class="st2" d="M100.4,44.3h-4.9v-2.9h13.4v2.9h-4.9v12.5h-3.6V44.3z"/>
		</g>
		<g>
			<path class="st2" d="M113.7,56c-1.3-0.7-2.3-1.6-3-2.8c-0.7-1.2-1.1-2.6-1.1-4.1c0-1.5,0.4-2.9,1.1-4.1c0.7-1.2,1.7-2.2,3-2.8
				c1.3-0.7,2.7-1,4.3-1s3,0.3,4.3,1s2.3,1.6,3,2.8s1.1,2.6,1.1,4.1c0,1.5-0.4,2.9-1.1,4.1c-0.7,1.2-1.7,2.2-3,2.8s-2.7,1-4.3,1
				S115,56.7,113.7,56z M120.5,53.4c0.7-0.4,1.3-1,1.7-1.7c0.4-0.7,0.6-1.6,0.6-2.6c0-1-0.2-1.8-0.6-2.6c-0.4-0.7-1-1.3-1.7-1.7
				c-0.7-0.4-1.6-0.6-2.5-0.6s-1.7,0.2-2.5,0.6c-0.7,0.4-1.3,1-1.7,1.7c-0.4,0.7-0.6,1.6-0.6,2.6c0,1,0.2,1.8,0.6,2.6
				c0.4,0.7,1,1.3,1.7,1.7c0.7,0.4,1.6,0.6,2.5,0.6S119.7,53.8,120.5,53.4z"/>
		</g>
		<g>
			<path class="st2" d="M143.1,56.8l0-9.2l-4.5,7.6H137l-4.5-7.4v9h-3.3V41.4h2.9l5.8,9.6l5.7-9.6h2.9l0,15.4H143.1z"/>
		</g>
		<g>
			<path class="st2" d="M160.3,53.5h-7.2l-1.4,3.3h-3.7l6.9-15.4h3.5l6.9,15.4h-3.7L160.3,53.5z M159.2,50.8l-2.4-5.9l-2.4,5.9
				H159.2z"/>
		</g>
		<g>
			<path class="st2" d="M185.1,53.9v2.9h-11.9V41.4h11.6v2.9h-8.1v3.3h7.2v2.8h-7.2v3.6H185.1z"/>
		</g>
		<g>
			<path class="st2" d="M188,41.4h3.6v12.5h7.7v2.9H188V41.4z"/>
		</g>
		<g>
			<path class="st2" d="M112.7,78c-1.3-0.7-2.3-1.6-3-2.8c-0.7-1.2-1.1-2.6-1.1-4.1c0-1.5,0.4-2.9,1.1-4.1c0.7-1.2,1.7-2.2,3-2.8
				c1.3-0.7,2.7-1,4.3-1c1.3,0,2.5,0.2,3.6,0.7c1.1,0.5,2,1.1,2.7,2l-2.3,2.1c-1-1.2-2.3-1.8-3.9-1.8c-1,0-1.8,0.2-2.6,0.6
				c-0.7,0.4-1.3,1-1.7,1.7c-0.4,0.7-0.6,1.6-0.6,2.6c0,1,0.2,1.8,0.6,2.6c0.4,0.7,1,1.3,1.7,1.7c0.7,0.4,1.6,0.6,2.6,0.6
				c1.5,0,2.8-0.6,3.9-1.8l2.3,2.1c-0.7,0.9-1.6,1.6-2.7,2c-1.1,0.5-2.3,0.7-3.6,0.7C115.4,79,114,78.7,112.7,78z"/>
		</g>
		<g>
			<path class="st2" d="M128.6,78c-1.3-0.7-2.3-1.6-3-2.8c-0.7-1.2-1.1-2.6-1.1-4.1c0-1.5,0.4-2.9,1.1-4.1c0.7-1.2,1.7-2.2,3-2.8
				c1.3-0.7,2.7-1,4.3-1c1.6,0,3,0.3,4.3,1c1.3,0.7,2.3,1.6,3,2.8s1.1,2.6,1.1,4.1c0,1.5-0.4,2.9-1.1,4.1s-1.7,2.2-3,2.8
				c-1.3,0.7-2.7,1-4.3,1C131.3,79,129.8,78.7,128.6,78z M135.4,75.4c0.7-0.4,1.3-1,1.7-1.7c0.4-0.7,0.6-1.6,0.6-2.6
				c0-1-0.2-1.8-0.6-2.6c-0.4-0.7-1-1.3-1.7-1.7c-0.7-0.4-1.6-0.6-2.5-0.6c-0.9,0-1.7,0.2-2.5,0.6c-0.7,0.4-1.3,1-1.7,1.7
				c-0.4,0.7-0.6,1.6-0.6,2.6c0,1,0.2,1.8,0.6,2.6c0.4,0.7,1,1.3,1.7,1.7c0.7,0.4,1.6,0.6,2.5,0.6C133.8,76,134.6,75.8,135.4,75.4z"
				/>
		</g>
		<g>
			<path class="st2" d="M158.1,63.4v15.4h-2.9l-7.7-9.3v9.3H144V63.4h2.9l7.7,9.3v-9.3H158.1z"/>
		</g>
		<g>
			<path class="st2" d="M165,66.3H160v-2.9h13.4v2.9h-4.9v12.5H165V66.3z"/>
		</g>
		<g>
			<path class="st2" d="M185.2,78.8l-3-4.3H182h-3.1v4.3h-3.6V63.4h6.7c1.4,0,2.5,0.2,3.6,0.7c1,0.5,1.8,1.1,2.3,1.9
				c0.5,0.8,0.8,1.8,0.8,3c0,1.1-0.3,2.1-0.8,3c-0.5,0.8-1.3,1.5-2.3,1.9l3.5,4.9H185.2z M184.3,67c-0.6-0.5-1.4-0.7-2.4-0.7h-2.9
				v5.4h2.9c1.1,0,1.9-0.2,2.4-0.7c0.6-0.5,0.8-1.1,0.8-2C185.1,68.1,184.8,67.4,184.3,67z"/>
		</g>
		<g>
			<path class="st2" d="M194.7,78c-1.3-0.7-2.3-1.6-3-2.8s-1.1-2.6-1.1-4.1c0-1.5,0.4-2.9,1.1-4.1s1.7-2.2,3-2.8
				c1.3-0.7,2.7-1,4.3-1s3,0.3,4.3,1c1.3,0.7,2.3,1.6,3,2.8c0.7,1.2,1.1,2.6,1.1,4.1c0,1.5-0.4,2.9-1.1,4.1c-0.7,1.2-1.7,2.2-3,2.8
				s-2.7,1-4.3,1S196,78.7,194.7,78z M201.5,75.4c0.7-0.4,1.3-1,1.7-1.7c0.4-0.7,0.6-1.6,0.6-2.6c0-1-0.2-1.8-0.6-2.6
				c-0.4-0.7-1-1.3-1.7-1.7c-0.7-0.4-1.6-0.6-2.5-0.6s-1.7,0.2-2.5,0.6c-0.7,0.4-1.3,1-1.7,1.7c-0.4,0.7-0.6,1.6-0.6,2.6
				c0,1,0.2,1.8,0.6,2.6c0.4,0.7,1,1.3,1.7,1.7c0.7,0.4,1.6,0.6,2.5,0.6S200.7,75.8,201.5,75.4z"/>
		</g>
		<g>
			<path class="st2" d="M210.1,63.4h3.6v12.5h7.7v2.9h-11.3V63.4z"/>
		</g>
		<g>
			<path class="st2" d="M229.6,63.4h7c1.7,0,3.1,0.3,4.4,1c1.3,0.6,2.3,1.5,3,2.7c0.7,1.2,1.1,2.5,1.1,4c0,1.5-0.4,2.9-1.1,4
				c-0.7,1.2-1.7,2.1-3,2.7c-1.3,0.6-2.8,1-4.4,1h-7V63.4z M236.4,75.8c1.5,0,2.8-0.4,3.7-1.3c0.9-0.9,1.4-2,1.4-3.5
				c0-1.5-0.5-2.6-1.4-3.5c-0.9-0.9-2.1-1.3-3.7-1.3h-3.3v9.5H236.4z"/>
		</g>
		<g>
			<path class="st2" d="M259.7,75.9v2.9h-11.9V63.4h11.6v2.9h-8.1v3.3h7.2v2.8h-7.2v3.6H259.7z"/>
		</g>
		<g>
			<path class="st2" d="M125.3,88.3h-4.9v-2.9h13.4v2.9h-4.9v12.5h-3.6V88.3z"/>
		</g>
		<g>
			<path class="st2" d="M137.1,99.2c-1.2-1.2-1.8-3-1.8-5.2v-8.6h3.6v8.5c0,2.8,1.1,4.1,3.4,4.1c1.1,0,2-0.3,2.6-1
				c0.6-0.7,0.9-1.7,0.9-3.1v-8.5h3.5V94c0,2.3-0.6,4-1.8,5.2c-1.2,1.2-2.9,1.8-5.1,1.8C140.1,101,138.3,100.4,137.1,99.2z"/>
		</g>
		<g>
			<path class="st2" d="M173.1,85.4v15.4h-2.9l-7.7-9.3v9.3H159V85.4h2.9l7.7,9.3v-9.3H173.1z"/>
		</g>
		<g>
			<path class="st2" d="M188.7,97.9v2.9h-11.9V85.4h11.6v2.9h-8.1v3.3h7.2v2.8h-7.2v3.6H188.7z"/>
		</g>
		<g>
			<path class="st2" d="M201.9,92.8h3.3v6.2c-0.8,0.6-1.8,1.1-2.9,1.5c-1.1,0.3-2.2,0.5-3.3,0.5c-1.6,0-3-0.3-4.3-1
				c-1.3-0.7-2.3-1.6-3-2.8s-1.1-2.6-1.1-4.1c0-1.5,0.4-2.9,1.1-4.1s1.7-2.2,3-2.8c1.3-0.7,2.7-1,4.4-1c1.3,0,2.6,0.2,3.7,0.7
				c1.1,0.5,2,1.1,2.8,2l-2.3,2.1c-1.1-1.2-2.4-1.7-4-1.7c-1,0-1.9,0.2-2.6,0.6c-0.8,0.4-1.4,1-1.8,1.7c-0.4,0.7-0.6,1.6-0.6,2.6
				c0,1,0.2,1.8,0.6,2.6c0.4,0.7,1,1.3,1.8,1.7c0.8,0.4,1.6,0.6,2.6,0.6c1,0,1.9-0.2,2.8-0.7V92.8z"/>
		</g>
		<g>
			<path class="st2" d="M211.6,100c-1.3-0.7-2.3-1.6-3-2.8c-0.7-1.2-1.1-2.6-1.1-4.1c0-1.5,0.4-2.9,1.1-4.1c0.7-1.2,1.7-2.2,3-2.8
				c1.3-0.7,2.7-1,4.3-1c1.6,0,3,0.3,4.3,1c1.3,0.7,2.3,1.6,3,2.8c0.7,1.2,1.1,2.6,1.1,4.1c0,1.5-0.4,2.9-1.1,4.1
				c-0.7,1.2-1.7,2.2-3,2.8c-1.3,0.7-2.7,1-4.3,1C214.3,101,212.9,100.7,211.6,100z M218.4,97.4c0.7-0.4,1.3-1,1.7-1.7
				c0.4-0.7,0.6-1.6,0.6-2.6c0-1-0.2-1.8-0.6-2.6c-0.4-0.7-1-1.3-1.7-1.7c-0.7-0.4-1.6-0.6-2.5-0.6c-0.9,0-1.7,0.2-2.5,0.6
				c-0.7,0.4-1.3,1-1.7,1.7c-0.4,0.7-0.6,1.6-0.6,2.6c0,1,0.2,1.8,0.6,2.6c0.4,0.7,1,1.3,1.7,1.7c0.7,0.4,1.6,0.6,2.5,0.6
				C216.8,98,217.6,97.8,218.4,97.4z"/>
		</g>
		<g>
			<path class="st2" d="M230.1,100c-1.3-0.7-2.3-1.6-3-2.8c-0.7-1.2-1.1-2.6-1.1-4.1c0-1.5,0.4-2.9,1.1-4.1c0.7-1.2,1.7-2.2,3-2.8
				c1.3-0.7,2.7-1,4.3-1c1.3,0,2.5,0.2,3.6,0.7s2,1.1,2.7,2l-2.3,2.1c-1-1.2-2.3-1.8-3.9-1.8c-1,0-1.8,0.2-2.6,0.6
				c-0.7,0.4-1.3,1-1.7,1.7c-0.4,0.7-0.6,1.6-0.6,2.6c0,1,0.2,1.8,0.6,2.6c0.4,0.7,1,1.3,1.7,1.7c0.7,0.4,1.6,0.6,2.6,0.6
				c1.5,0,2.8-0.6,3.9-1.8l2.3,2.1c-0.7,0.9-1.6,1.6-2.7,2c-1.1,0.5-2.3,0.7-3.6,0.7C232.8,101,231.4,100.7,230.1,100z"/>
		</g>
		<g>
			<path class="st2" d="M243.1,85.4h3.6v15.4h-3.6V85.4z"/>
		</g>
		<g>
			<path class="st2" d="M253.5,100c-1.3-0.7-2.3-1.6-3-2.8s-1.1-2.6-1.1-4.1c0-1.5,0.4-2.9,1.1-4.1s1.7-2.2,3-2.8
				c1.3-0.7,2.7-1,4.3-1c1.6,0,3,0.3,4.3,1c1.3,0.7,2.3,1.6,3,2.8c0.7,1.2,1.1,2.6,1.1,4.1c0,1.5-0.4,2.9-1.1,4.1
				c-0.7,1.2-1.7,2.2-3,2.8c-1.3,0.7-2.7,1-4.3,1C256.2,101,254.8,100.7,253.5,100z M260.3,97.4c0.7-0.4,1.3-1,1.7-1.7
				c0.4-0.7,0.6-1.6,0.6-2.6c0-1-0.2-1.8-0.6-2.6c-0.4-0.7-1-1.3-1.7-1.7c-0.7-0.4-1.6-0.6-2.5-0.6c-0.9,0-1.7,0.2-2.5,0.6
				c-0.7,0.4-1.3,1-1.7,1.7c-0.4,0.7-0.6,1.6-0.6,2.6c0,1,0.2,1.8,0.6,2.6c0.4,0.7,1,1.3,1.7,1.7c0.7,0.4,1.6,0.6,2.5,0.6
				C258.7,98,259.5,97.8,260.3,97.4z"/>
		</g>
	</g>
</g>
</svg>
