<?xml version="1.0" encoding="utf-8"?>
<!-- Generator: Adobe Illustrator 21.0.2, SVG Export Plug-In . SVG Version: 6.00 Build 0)  -->
<svg version="1.1" id="Capa_1" xmlns="http://www.w3.org/2000/svg" xmlns:xlink="http://www.w3.org/1999/xlink" x="0px" y="0px"
	 viewBox="0 0 47 35.2" style="enable-background:new 0 0 47 35.2;" xml:space="preserve">
<style type="text/css">
	.st0{fill:#0A6FCB;}
</style>
<title></title>
<g id="icomoon-ignore">
</g>
<path class="st0" d="M42.6,0H4.4C2,0,0,2,0,4.4v26.4c0,2.4,2,4.4,4.4,4.4h38.2c2.4,0,4.4-2,4.4-4.4V4.4C47,2,45,0,42.6,0z M4.4,2.9
	h38.2c0.8,0,1.5,0.7,1.5,1.5v4.4H2.9V4.4C2.9,3.6,3.6,2.9,4.4,2.9z M42.6,32.3H4.4c-0.8,0-1.5-0.7-1.5-1.5V17.6H44v13.2
	C44.1,31.6,43.4,32.3,42.6,32.3z M5.9,23.5h2.9v5.9H5.9V23.5z M11.8,23.5h2.9v5.9h-2.9C11.8,29.4,11.8,23.5,11.8,23.5z M17.6,23.5
	h2.9v5.9h-2.9V23.5z"/>
</svg>
