<svg width="32" height="31" viewBox="0 0 32 31" fill="none" xmlns="http://www.w3.org/2000/svg">
<path d="M26.9574 6.08011C26.9485 5.58313 26.5384 5.1875 26.0414 5.19643L17.9427 5.34205C17.4457 5.35098 17.0501 5.7611 17.059 6.25808C17.068 6.75506 17.4781 7.15069 17.9751 7.14175L25.1739 7.01232L25.3033 14.2112C25.3123 14.7081 25.7224 15.1038 26.2194 15.0948C26.7163 15.0859 27.112 14.6758 27.103 14.1788L26.9574 6.08011ZM17.1359 16.641L26.7053 6.72114L25.4098 5.47144L15.8404 15.3913L17.1359 16.641Z" fill="white"/>
<path d="M12 29.5536L21 20.5L16.5056 16.0536" stroke="white" stroke-width="1.8" stroke-linecap="round" stroke-linejoin="round"/>
<path d="M9.42857 12.4167H8.57143V9.50001H10.8571C11.2 9.50001 11.4286 9.26667 11.4286 8.91667C11.4286 8.56667 11.2 8.33334 10.8571 8.33334H8.57143V6.58334C8.57143 6.23334 8.34286 6 8 6C7.65714 6 7.42857 6.23334 7.42857 6.58334V8.33334H6.57143C5.14285 8.33334 4 9.5 4 10.9583C4 12.4167 5.14285 13.5833 6.57143 13.5833H7.42857V16.5H4.57143C4.22858 16.5 4 16.7333 4 17.0833C4 17.4333 4.22858 17.6667 4.57143 17.6667H7.42857V19.4167C7.42857 19.7667 7.65714 20 8 20C8.34286 20 8.57143 19.7667 8.57143 19.4167V17.6667H9.42857C10.8571 17.6667 12 16.5 12 15.0417C12 13.5833 10.8571 12.4167 9.42857 12.4167V12.4167ZM6.57143 12.4167C5.77143 12.4167 5.14285 11.775 5.14285 10.9583C5.14285 10.1417 5.77142 9.5 6.57143 9.5H7.42857V12.4167H6.57143V12.4167ZM9.42857 16.5H8.57143V13.5833H9.42857C10.2286 13.5833 10.8571 14.225 10.8571 15.0417C10.8571 15.8584 10.2286 16.5 9.42857 16.5V16.5Z" fill="white" stroke="white" stroke-width="0.7"/>
</svg>
