<?xml version="1.0" encoding="utf-8"?>
<!-- Generator: Adobe Illustrator 21.0.2, SVG Export Plug-In . SVG Version: 6.00 Build 0)  -->
<svg version="1.1" id="Capa_1" xmlns="http://www.w3.org/2000/svg" xmlns:xlink="http://www.w3.org/1999/xlink" x="0px" y="0px"
	 viewBox="0 0 92 65.2" style="enable-background:new 0 0 92 65.2;" xml:space="preserve">
<style type="text/css">
	.st0{fill:#FFFFFF;}
	.st1{clip-path:url(#SVGID_2_);}
</style>
<g>
	<g id="Mask_Group_3">
		<g id="Objeto_inteligente_vectorial" transform="translate(14.983 10)">
			<path id="Path_71" class="st0" d="M-15.7,8.7L-27.5-3c-0.9-0.9-2.3-0.9-3.2-0.1c0,0-0.1,0.1-0.1,0.1l-30.6,30.6
				c-0.5,0.4-0.7,1-0.7,1.6V41c-0.1,1.2,0.9,2.3,2.1,2.4c0.1,0,0.2,0,0.3,0h11.8c0.6,0,1.2-0.2,1.6-0.7L-15.7,12
				C-14.8,11.2-14.8,9.7-15.7,8.7C-15.7,8.8-15.7,8.8-15.7,8.7z M-48.9,38.6h-8.5v-8.5l28.2-28.2l8.5,8.5L-48.9,38.6z"/>
		</g>
		<g id="Group_4" transform="translate(92.063 -6.273)">
			<defs>
				<polygon id="SVGID_1_" points="-92.1,8.4 -38.3,6.3 -38.3,23.4 -50.5,34.7 -50.5,57.9 -38.3,57.9 -38.3,71.5 -92.1,71.5 				"/>
			</defs>
			<clipPath id="SVGID_2_">
				<use xlink:href="#SVGID_1_"  style="overflow:visible;"/>
			</clipPath>
			<g id="Mask_Group_1" transform="translate(-30 10)" class="st1">
				<g id="Group_1" transform="translate(2.119 2.091)">
					<g id="Objeto_inteligente_vectorial-2" transform="translate(0 0)">
						<path id="Path_67" class="st0" d="M-13.2,14.8c-0.3-0.3-0.3-0.6-0.5-0.8L-30.1-2.9c-0.3-0.3-0.5-0.6-0.8-0.6
							c-0.3-0.2-0.7-0.3-1.1-0.3h-21.8c-4.5,0-8.2,3.6-8.2,8.1c0,0.1,0,0.2,0,0.3v44.9c-0.1,4.5,3.4,8.3,7.9,8.4c0.1,0,0.2,0,0.3,0
							h32.8c4.5,0,8.2-3.6,8.2-8.1c0-0.1,0-0.2,0-0.3V15.9C-12.9,15.5-13,15.1-13.2,14.8z M-29.3,5.8l7.1,7.3h-7.1V5.8z M-21.1,52.3
							h-32.8c-1.4,0.1-2.7-1-2.7-2.5c0-0.1,0-0.2,0-0.3V4.7c-0.1-1.4,1-2.7,2.4-2.8c0.1,0,0.2,0,0.3,0h19.1v14
							c-0.1,1.4,1,2.7,2.4,2.8c0.1,0,0.2,0,0.3,0h13.6v30.8c0.1,1.4-1,2.7-2.4,2.8C-20.9,52.4-21,52.4-21.1,52.3z"/>
						<path id="Path_68" class="st0" d="M-26.6,27.1h-21.8c-1.4-0.1-2.7,1-2.7,2.5c0,0.1,0,0.2,0,0.3c-0.1,1.4,1,2.7,2.4,2.8
							c0.1,0,0.2,0,0.3,0h21.8c1.4,0.1,2.7-1,2.7-2.5c0-0.1,0-0.2,0-0.3c0.1-1.4-1-2.7-2.4-2.8C-26.4,27.1-26.5,27.1-26.6,27.1z"/>
						<path id="Path_69" class="st0" d="M-26.6,38.3h-21.8c-1.5,0-2.8,1.3-2.8,2.8c0,1.5,1.3,2.8,2.8,2.8h21.8
							c1.5,0,2.8-1.3,2.8-2.8C-23.8,39.6-25,38.3-26.6,38.3z"/>
						<path id="Path_70" class="st0" d="M-48.4,21.5h5.5c1.4,0.1,2.7-1,2.7-2.5c0-0.1,0-0.2,0-0.3c0.1-1.4-1-2.7-2.4-2.8
							c-0.1,0-0.2,0-0.3,0h-5.5c-1.4-0.1-2.7,1-2.7,2.5c0,0.1,0,0.2,0,0.3c-0.1,1.4,1,2.7,2.4,2.8C-48.6,21.5-48.5,21.5-48.4,21.5z"
							/>
					</g>
				</g>
			</g>
		</g>
	</g>
</g>
</svg>
