<?xml version="1.0" encoding="utf-8"?>
<!-- Generator: Adobe Illustrator 21.0.2, SVG Export Plug-In . SVG Version: 6.00 Build 0)  -->
<svg version="1.1" id="Capa_1" xmlns="http://www.w3.org/2000/svg" xmlns:xlink="http://www.w3.org/1999/xlink" x="0px" y="0px"
	 viewBox="0 0 334 202" style="enable-background:new 0 0 334 202;" xml:space="preserve">
<style type="text/css">
	.st0{fill:#FFFFFF;stroke:#0A6FCB;stroke-width:5;stroke-miterlimit:10;}
	.st1{fill:#FFFFFF;stroke:#0A6FCB;stroke-width:6;stroke-miterlimit:10;}
</style>
<g>
	<path class="st0" d="M305,198.9H29c-14.3,0-26-11.7-26-26V28.5c0-14.3,11.7-26,26-26H305c14.3,0,26,11.7,26,26v144.3
		C331,187.2,319.3,198.9,305,198.9z"/>
	<path class="st0" d="M31.1,174.4h129c0,0,4.5,0,4.5-4.5s-0.6-17.2-9.6-26.2c-8.9-8.9-22.4-12.1-32.6-15.3
		c-10.2-3.2-10.9-13.4-8.3-17.2s7-10.2,7-15.3c3.8-3.2,8.9-8.3,8.9-12.8s0.6-11.5-4.5-12.8c0-3.8,1.9-14.7,1.9-15.3
		c0-0.6-0.6-13.4-9.6-18.5S102.6,30,93,30S79,32.6,77.7,33.8c-1.3,1.3-3.2,7-7.7,8.3c-4.5,1.3-6.1,6.7-5.4,15s1.9,14.1,1.9,14.1
		s-5.7-1.3-5.7,5.7c0,7,0,13.4,7,17.2c1.9,6.4,3.2,10.9,7,15.3s1.9,13.4-3.8,16.6s-17.2,5.1-30,12.8s-13.4,14.7-13.4,23
		c0,8.3,0,9.6,0,9.6S27.6,174,31.1,174.4z"/>
	<line class="st1" x1="165" y1="37.6" x2="304" y2="37.6"/>
	<line class="st1" x1="165" y1="57.9" x2="304" y2="57.9"/>
	<line class="st1" x1="165" y1="78.1" x2="304" y2="78.1"/>
	<line class="st1" x1="165" y1="98.4" x2="251.5" y2="98.4"/>
</g>
</svg>
