<?xml version="1.0" encoding="utf-8"?>
<!-- Generator: Adobe Illustrator 21.0.2, SVG Export Plug-In . SVG Version: 6.00 Build 0)  -->
<svg version="1.1" id="Capa_1" xmlns="http://www.w3.org/2000/svg" xmlns:xlink="http://www.w3.org/1999/xlink" x="0px" y="0px"
	 viewBox="0 0 274.5 134.4" style="enable-background:new 0 0 274.5 134.4;" xml:space="preserve">
<style type="text/css">
	.st0{fill:url(#SVGID_1_);}
	.st1{fill:#FFFFFF;}
	.st2{fill:#04294B;}
</style>
<g>
	<linearGradient id="SVGID_1_" gradientUnits="userSpaceOnUse" x1="1.3417" y1="66.1027" x2="133.5471" y2="66.1027">
		<stop  offset="0" style="stop-color:#FF9800"/>
		<stop  offset="1" style="stop-color:#FFCE0D"/>
	</linearGradient>
	<path class="st0" d="M130.8,63.4c-1.5,0-2.7,1.2-2.7,2.7c0,33.4-27.2,60.6-60.6,60.6c-8.1,0-15.9-1.6-23.3-4.7
		c-1.4-0.6-3,0.1-3.6,1.5c-0.6,1.4,0.1,3,1.5,3.6c8.1,3.4,16.6,5.1,25.4,5.1c36.4,0,66.1-29.7,66.1-66.1v0
		C133.5,64.6,132.3,63.4,130.8,63.4z M57.6,77.4c2-0.6,3.7-2,4.6-3.8c1-1.9,1.2-4,0.6-6c-0.6-2-2-3.7-3.8-4.6c-1.9-1-4-1.2-6-0.6
		c-4.1,1.3-6.5,5.7-5.2,9.8c1,3.4,4.2,5.6,7.5,5.6C56.1,77.7,56.9,77.6,57.6,77.4z M53.3,70.5c-0.3-1.1,0.3-2.3,1.4-2.7
		c0.2-0.1,0.4-0.1,0.6-0.1c0.3,0,0.7,0.1,1,0.3c0.5,0.3,0.9,0.7,1,1.3v0c0.2,0.6,0.1,1.1-0.2,1.6c-0.3,0.5-0.7,0.9-1.3,1
		C54.8,72.3,53.6,71.6,53.3,70.5z M57.3,50.7c0.5,0,1-0.1,1.5-0.2c1.3-0.4,2.4-1.3,3.1-2.5c0.7-1.2,0.8-2.6,0.4-4c0,0,0,0,0,0
		c-0.4-1.3-1.3-2.4-2.5-3.1c-1.2-0.7-2.6-0.8-4-0.4c-1.3,0.4-2.4,1.3-3.1,2.5c-0.7,1.2-0.8,2.6-0.4,4C53,49.3,55.1,50.7,57.3,50.7z
		 M125.1,47.3l1.8,7.5c0.3,1.3,1.4,2.1,2.7,2.1c0.2,0,0.4,0,0.7-0.1c1.5-0.4,2.4-1.8,2-3.3l-1.8-7.5c-0.4-1.5-1.8-2.4-3.3-2
		C125.7,44.3,124.8,45.8,125.1,47.3z M33.3,16C43.4,9.1,55.2,5.5,67.4,5.5c22.1,0,42.5,12.1,53.2,31.5c0.5,0.9,1.4,1.4,2.4,1.4
		c0.4,0,0.9-0.1,1.3-0.3c1.3-0.7,1.8-2.4,1.1-3.7C113.8,13.2,91.6,0,67.4,0C54.1,0,41.2,4,30.2,11.5c-1.2,0.9-1.6,2.6-0.7,3.8
		C30.3,16.6,32,16.9,33.3,16z M85.4,32.3c-6.2-1.7-21.3-5.8-28.7-6.9c-2-0.3-4,0.2-5.7,1.3c-1.6,0.6-3.1,1.7-4.1,3.2
		C42.8,36,35.8,50.1,33,55.8c-1,2-1.1,4.2-0.5,6.3l12.4,40.6c0.9,2.9,2.8,5.2,5.5,6.6c1.7,0.9,3.4,1.3,5.3,1.3
		c1.1,0,2.2-0.2,3.3-0.5l10.9-3.3c0.3,0.1,0.5,0.2,0.8,0.2c0.9,0.2,1.8,0.3,2.7,0.3c2,0,4-0.6,5.8-1.6l5.9-3.6l7.2-2.2
		c2.9-0.9,5.2-2.8,6.6-5.5c0.2-0.3,0.3-0.7,0.5-1l9.5-5.8c5.3-3.2,7-10.1,3.8-15.4L90.4,36.1C89.3,34.2,87.5,32.8,85.4,32.3z
		 M93.7,91.9c-0.7,1.3-1.8,2.3-3.2,2.7l-33.2,10.1c-2.9,0.9-6-0.8-6.9-3.7L38,60.4c-0.2-0.7-0.2-1.4,0.2-2.1
		c2.2-4.4,9.5-19.3,13.6-25.4c0.5-0.8,1.4-1.2,2.2-1.2c0.3,0,0.7,0.1,1,0.2c6.7,2.8,21.2,11,25.4,13.4c0.6,0.4,1.1,0.9,1.3,1.7
		l12.4,40.6C94.5,89.1,94.4,90.6,93.7,91.9z M108.2,79.5c-0.3,1.4-1.2,2.6-2.5,3.4l-6,3.7c0-0.2-0.1-0.4-0.1-0.5L87.1,45.4
		c-0.6-2.1-2-3.8-3.9-4.9c-2.3-1.3-5.9-3.4-9.8-5.5c4.5,1.2,8.5,2.3,10.5,2.8c0.7,0.2,1.3,0.6,1.7,1.3l22.1,36.3
		C108.3,76.6,108.6,78,108.2,79.5z M75.5,58.1c-1.4-0.7-3.1-0.2-3.9,1.2L55.4,89.7c-0.7,1.4-0.2,3.1,1.2,3.9
		c0.4,0.2,0.9,0.3,1.3,0.3c1,0,2-0.6,2.5-1.5L76.7,62C77.4,60.6,76.9,58.8,75.5,58.1z M84.5,79.1c-1.3-4.1-5.7-6.5-9.8-5.2
		c-4.1,1.3-6.5,5.7-5.2,9.8c0.6,2,2,3.7,3.8,4.6c1.2,0.6,2.4,0.9,3.7,0.9c0.8,0,1.5-0.1,2.3-0.3c2-0.6,3.7-2,4.6-3.8
		C84.9,83.2,85.1,81.1,84.5,79.1L84.5,79.1z M78.9,82.4c-0.3,0.5-0.7,0.9-1.3,1c-0.6,0.2-1.1,0.1-1.6-0.2c-0.5-0.3-0.9-0.7-1-1.3
		c-0.3-1.1,0.3-2.3,1.4-2.7c0.2-0.1,0.4-0.1,0.6-0.1c0.9,0,1.8,0.6,2.1,1.5C79.2,81.3,79.2,81.9,78.9,82.4z M12.1,99.7
		c0.5,0,0.9-0.1,1.3-0.3c1.3-0.7,1.8-2.4,1.1-3.7c-5-9-7.6-19.2-7.6-29.5c0-12.6,3.8-24.7,11.1-35c0.9-1.2,0.6-2.9-0.7-3.8
		c-1.2-0.9-2.9-0.6-3.8,0.7C5.5,39.2,1.3,52.4,1.3,66.1c0,11.3,2.9,22.4,8.3,32.1C10.2,99.1,11.1,99.7,12.1,99.7z M37.1,109.9h-9.5
		v-9.5c0-1.5-1.2-2.7-2.7-2.7s-2.7,1.2-2.7,2.7v9.5h-9.5c-1.5,0-2.7,1.2-2.7,2.7c0,1.5,1.2,2.7,2.7,2.7h9.5v9.5
		c0,1.5,1.2,2.7,2.7,2.7s2.7-1.2,2.7-2.7v-9.5h9.5c1.5,0,2.7-1.2,2.7-2.7C39.8,111.1,38.6,109.9,37.1,109.9z"/>
	<g>
		<g>
			<g>
				<path class="st1" d="M97.5,58.6c-3.2,0-5.8-2.6-5.8-5.8V37.4c0-3.2,2.6-5.8,5.8-5.8h11.6c3.2,0,5.8,2.6,5.8,5.8v2.8
					c0,1.2-0.3,2.3-0.9,3.2c0,0,0,2.9,0,2.9c0.8,1,1.2,2.2,1.2,3.6v2.8c0,3.2-2.6,5.8-5.8,5.8H97.5z"/>
			</g>
			<g>
				<path class="st1" d="M123.4,58.6c-1.4,0-2.8-0.5-3.8-1.4c-1,0.9-2.4,1.4-3.8,1.4h-3.5c-3.2,0-5.8-2.6-5.8-5.8V37.4
					c0-3.2,2.6-5.8,5.8-5.8h2.9c1.4,0,2.8,0.5,3.8,1.4c1-0.9,2.4-1.4,3.8-1.4h3.5c3.2,0,5.8,2.6,5.8,5.8v15.3c0,3.2-2.6,5.8-5.8,5.8
					H123.4z"/>
			</g>
			<g>
				<path class="st1" d="M137.3,58.9c-2.5,0-4.9-0.6-7-1.7c-2.2-1.2-4-2.9-5.2-5c-1.3-2.1-1.9-4.5-1.9-7.1c0-2.6,0.6-5,1.9-7.1
					c1.3-2.1,3-3.8,5.2-5c2.1-1.1,4.5-1.7,7-1.7c2.1,0,4.1,0.4,5.9,1.2c1.9,0.8,3.5,2.1,4.9,3.6c2,2.4,1.8,5.9-0.5,8l-1,0.9l1,0.9
					c2.3,2.1,2.5,5.6,0.6,8c-1.3,1.6-3,2.9-4.9,3.7C141.4,58.5,139.4,58.9,137.3,58.9z"/>
			</g>
			<g>
				<path class="st1" d="M152.7,58.9c-4.7,0-7.6-1.9-9.2-3.5c-1.6-1.6-3.6-4.5-3.6-9.3v-8.6c0-3.2,2.6-5.8,5.8-5.8h3.6
					c1.3,0,2.5,0.4,3.4,1.1c1-0.7,2.1-1.1,3.4-1.1h3.5c3.2,0,5.8,2.6,5.8,5.8V46c0,4.8-1.9,7.7-3.6,9.3
					C160.3,57,157.4,58.9,152.7,58.9z M155.1,46.2L155.1,46.2z"/>
			</g>
			<g>
				<path class="st1" d="M163.1,58.6c-3.2,0-5.8-2.6-5.8-5.8V37.4c0-3.2,2.6-5.8,5.8-5.8h11.6c3.2,0,5.8,2.6,5.8,5.8v2.8
					c0,1.2-0.3,2.3-0.9,3.2c0,0,0,2.9,0,2.9c0.8,1,1.2,2.2,1.2,3.6v2.8c0,3.2-2.6,5.8-5.8,5.8H163.1z"/>
			</g>
			<g>
				<path class="st1" d="M189,58.6c-1.4,0-2.8-0.5-3.8-1.4c-1,0.9-2.4,1.4-3.8,1.4h-3.5c-3.2,0-5.8-2.6-5.8-5.8V37.4
					c0-3.2,2.6-5.8,5.8-5.8h2.9c1.4,0,2.8,0.5,3.8,1.4c1-0.9,2.4-1.4,3.8-1.4h3.5c3.2,0,5.8,2.6,5.8,5.8v15.3c0,3.2-2.6,5.8-5.8,5.8
					H189z"/>
			</g>
			<g>
				<path class="st1" d="M198.7,58.6c-3.2,0-5.8-2.6-5.8-5.8v-6.7c-2.8-0.4-4.9-2.9-4.9-5.8v-2.9c0-3.2,2.6-5.8,5.8-5.8h13.4
					c3.2,0,5.8,2.6,5.8,5.8v2.9c0,2.9-2.1,5.3-4.9,5.8v6.7c0,3.2-2.6,5.8-5.8,5.8H198.7z"/>
			</g>
			<g>
				<path class="st1" d="M218.9,58.6c-1.1,0-2.2-0.3-3.1-0.9c-0.9,0.6-2,0.9-3.1,0.9h-3.6c-3.2,0-5.8-2.6-5.8-5.8V37.4
					c0-3.2,2.6-5.8,5.8-5.8h6.6c2.2,0,4.2,0.4,5.9,1.2c2,0.9,3.6,2.3,4.8,4.1c1.2,1.8,1.8,3.9,1.8,6.1c0,2-0.5,3.9-1.4,5.5l0.6,0.9
					c1.2,1.8,1.4,4.1,0.4,6c-1,1.9-3,3.1-5.2,3.1H218.9z"/>
			</g>
			<g>
				<path class="st1" d="M236.7,58.6c-2,0-3.9-1-4.9-2.7c-1.1,1.7-2.9,2.7-4.9,2.7h-3.6c-2,0-3.8-1-4.9-2.7
					c-1.1-1.7-1.2-3.8-0.4-5.6l6.8-15.3c0.9-2.1,3-3.5,5.3-3.5h3.5c2.3,0,4.4,1.4,5.3,3.5l6.9,15.3c0.8,1.8,0.6,3.9-0.4,5.6
					c-1.1,1.7-2.9,2.7-4.9,2.7H236.7z"/>
			</g>
			<g>
				<path class="st1" d="M109.9,80.5c-3.2,0-5.8-2.6-5.8-5.8V59.3c0-3.2,2.6-5.8,5.8-5.8h3.6c3.2,0,5.8,2.6,5.8,5.8v6.6h1.8
					c3.2,0,5.8,2.6,5.8,5.8v2.9c0,3.2-2.6,5.8-5.8,5.8H109.9z"/>
			</g>
			<g>
				<path class="st1" d="M134.7,80.5c-2,0-3.9-1-4.9-2.7c-1.1,1.7-2.9,2.7-4.9,2.7h-3.6c-2,0-3.8-1-4.9-2.7
					c-1.1-1.7-1.2-3.8-0.4-5.6l6.8-15.3c0.9-2.1,3-3.5,5.3-3.5h3.5c2.3,0,4.4,1.4,5.3,3.5l6.9,15.3c0.8,1.8,0.6,3.9-0.4,5.6
					c-1.1,1.7-2.9,2.7-4.9,2.7H134.7z"/>
			</g>
			<g>
				<path class="st1" d="M145.1,80.8c-1.8,0-3.5-0.2-5.1-0.7c-1.9-0.5-3.4-1.3-4.7-2.3c-2.2-1.7-2.9-4.6-1.8-7l1-2.1
					c-0.6-1.2-1.2-2.8-1.2-4.8c0-2,0.6-4,1.7-5.7c1.1-1.7,2.7-3,4.7-3.8c1.7-0.7,3.7-1.1,5.9-1.1c1.5,0,2.9,0.2,4.3,0.5
					c1.5,0.4,2.9,1,4.1,1.7c2.4,1.5,3.4,4.5,2.3,7.2l-0.7,1.8c0.9,1.2,1.8,3.1,1.8,5.8c0,2-0.6,4-1.7,5.7c-1.1,1.7-2.7,2.9-4.7,3.8
					C149.3,80.4,147.3,80.8,145.1,80.8z"/>
			</g>
			<g>
				<path class="st1" d="M174.2,80.5c-1.6,0-3-0.6-4.1-1.6c-0.2,0-0.3,0-0.5,0h-1.6c-0.1,0-0.3,0-0.4,0c-1.1,1-2.5,1.6-4.1,1.6h-3.3
					c-3.2,0-5.8-2.6-5.8-5.8V59.3c0-3.2,2.6-5.8,5.8-5.8h2.9c2,0,4,1.1,5,2.8l0.7,1.2l0.7-1.1c1.1-1.8,3-2.9,5-2.9h2.9
					c3.2,0,5.8,2.6,5.8,5.8l0,15.3c0,1.6-0.6,3-1.7,4.1c-1.1,1.1-2.6,1.7-4.1,1.7H174.2z"/>
			</g>
			<g>
				<path class="st1" d="M181.2,80.5c-3.2,0-5.8-2.6-5.8-5.8V59.3c0-3.2,2.6-5.8,5.8-5.8h11.6c3.2,0,5.8,2.6,5.8,5.8v2.8
					c0,1.2-0.3,2.3-0.9,3.2c0,0,0,2.9,0,2.9c0.8,1,1.2,2.2,1.2,3.6v2.8c0,3.2-2.6,5.8-5.8,5.8H181.2z"/>
			</g>
			<g>
				<path class="st1" d="M198.7,80.8c-1.9,0-3.6-0.4-5.2-1.1c-1.8-0.8-3.2-1.9-4.4-3.4c-1.7-2.2-1.6-5.2,0.1-7.3l2-2.4
					c0,0,0.1-0.1,0.1-0.1c-1.1-1.1-1.9-2.6-1.9-4.3v-2.8c0-3.2,2.6-5.8,5.8-5.8h8.9c3.2,0,5.8,2.6,5.8,5.8v10c0,4.3-1.7,6.9-3.1,8.4
					C205.6,79.1,203,80.8,198.7,80.8z"/>
			</g>
			<g>
				<path class="st1" d="M215.2,80.8c-2.6,0-4.9-0.6-7.1-1.7c-2.2-1.2-4-2.9-5.2-5c-1.3-2.1-1.9-4.5-1.9-7.1c0-2.6,0.6-5,1.9-7.1
					c1.3-2.1,3-3.8,5.2-5c2.1-1.1,4.5-1.7,7.1-1.7c2.6,0,4.9,0.6,7.1,1.7c2.2,1.2,4,2.9,5.2,5c1.3,2.1,1.9,4.5,1.9,7.1
					s-0.7,5-1.9,7.1c-1.3,2.1-3,3.8-5.2,5C220.1,80.2,217.7,80.8,215.2,80.8z"/>
			</g>
			<g>
				<path class="st1" d="M236,80.5c-1.1,0-2.2-0.3-3.1-0.9c-0.9,0.6-2,0.9-3.1,0.9h-3.6c-3.2,0-5.8-2.6-5.8-5.8V59.3
					c0-3.2,2.6-5.8,5.8-5.8h6.6c2.2,0,4.2,0.4,5.9,1.2c2,0.9,3.6,2.3,4.8,4.1c1.2,1.8,1.8,3.9,1.8,6.1c0,2-0.5,3.9-1.4,5.5l0.6,0.9
					c1.2,1.8,1.4,4.1,0.4,6c-1,1.9-3,3.1-5.2,3.1H236z"/>
			</g>
			<g>
				<path class="st1" d="M242.4,80.5c-3.2,0-5.8-2.6-5.8-5.8V59.3c0-3.2,2.6-5.8,5.8-5.8H254c3.2,0,5.8,2.6,5.8,5.8v2.8
					c0,1.2-0.3,2.3-0.9,3.2c0,0,0,2.9,0,2.9c0.8,1,1.2,2.2,1.2,3.6v2.8c0,3.2-2.6,5.8-5.8,5.8H242.4z"/>
			</g>
			<g>
				<path class="st1" d="M262.1,80.8c-1.8,0-3.5-0.2-5.1-0.7c-1.9-0.5-3.4-1.3-4.7-2.3c-2.2-1.7-2.9-4.6-1.8-7l1-2.1
					c-0.6-1.2-1.2-2.8-1.2-4.8c0-2,0.6-4,1.7-5.7c1.1-1.7,2.7-3,4.7-3.8c1.7-0.7,3.7-1.1,5.9-1.1c1.5,0,2.9,0.2,4.3,0.5
					c1.5,0.4,2.9,1,4.1,1.7c2.4,1.5,3.4,4.5,2.3,7.2l-0.7,1.8c0.9,1.2,1.8,3.1,1.8,5.8c0,2-0.6,4-1.7,5.7c-1.1,1.7-2.7,2.9-4.7,3.8
					C266.3,80.4,264.3,80.8,262.1,80.8z"/>
			</g>
			<g>
				<path class="st1" d="M129.7,102.7c-2.6,0-4.9-0.6-7.1-1.7c-2.2-1.2-4-2.9-5.2-5c-1.3-2.1-1.9-4.5-1.9-7.1c0-2.6,0.6-5,1.9-7.1
					c1.3-2.1,3-3.8,5.2-5c2.1-1.1,4.5-1.7,7.1-1.7c2.6,0,4.9,0.6,7.1,1.7c2.2,1.2,4,2.9,5.2,5c1.3,2.1,1.9,4.5,1.9,7.1
					s-0.7,5-1.9,7.1c-1.3,2.1-3,3.8-5.2,5C134.7,102.1,132.3,102.7,129.7,102.7z"/>
			</g>
			<g>
				<path class="st1" d="M140.8,102.4c-3.2,0-5.8-2.6-5.8-5.8V81.3c0-3.2,2.6-5.8,5.8-5.8h11.6c3.2,0,5.8,2.6,5.8,5.8v2.8
					c0,1.2-0.4,2.3-1,3.3c0,0.3,0.1,0.5,0.1,0.8V91c0,3.2-2.6,5.8-5.8,5.8h-1.3c-0.1,3.1-2.7,5.6-5.8,5.6H140.8z"/>
			</g>
			<g>
				<path class="st1" d="M154.8,102.4c-3.2,0-5.8-2.6-5.8-5.8V81.3c0-3.2,2.6-5.8,5.8-5.8h11.6c3.2,0,5.8,2.6,5.8,5.8v2.8
					c0,1.2-0.3,2.3-0.9,3.2c0,0,0,2.9,0,2.9c0.8,1,1.2,2.2,1.2,3.6v2.8c0,3.2-2.6,5.8-5.8,5.8H154.8z"/>
			</g>
			<g>
				<path class="st1" d="M179.3,102.4c-1.1,0-2.2-0.3-3.1-0.9c-0.9,0.6-2,0.9-3.1,0.9h-3.6c-3.2,0-5.8-2.6-5.8-5.8V81.3
					c0-3.2,2.6-5.8,5.8-5.8h6.6c2.2,0,4.2,0.4,5.9,1.2c2,0.9,3.6,2.3,4.8,4.1c1.2,1.8,1.8,3.9,1.8,6.1c0,2-0.5,3.9-1.4,5.5l0.6,0.9
					c1.2,1.8,1.4,4.1,0.4,6c-1,1.9-3,3.1-5.2,3.1H179.3z"/>
			</g>
			<g>
				<path class="st1" d="M188.6,102.4c-3.2,0-5.8-2.6-5.8-5.8v-6.7c-2.8-0.4-4.9-2.9-4.9-5.8v-2.9c0-3.2,2.6-5.8,5.8-5.8h13.4
					c3.2,0,5.8,2.6,5.8,5.8v2.9c0,2.9-2.1,5.3-4.9,5.8v6.7c0,3.2-2.6,5.8-5.8,5.8H188.6z"/>
			</g>
			<g>
				<path class="st1" d="M209.7,102.4c-2,0-3.9-1-4.9-2.7c-1.1,1.7-2.9,2.7-4.9,2.7h-3.6c-2,0-3.8-1-4.9-2.7
					c-1.1-1.7-1.2-3.8-0.4-5.6l6.8-15.3c0.9-2.1,3-3.5,5.3-3.5h3.5c2.3,0,4.4,1.4,5.3,3.5l6.9,15.3c0.8,1.8,0.6,3.9-0.4,5.6
					c-1.1,1.7-2.9,2.7-4.9,2.7H209.7z"/>
			</g>
			<g>
				<path class="st1" d="M220,102.7c-1.8,0-3.5-0.2-5.1-0.7c-1.9-0.5-3.4-1.3-4.7-2.3c-2.2-1.7-2.9-4.6-1.8-7l1-2.1
					c-0.6-1.2-1.2-2.8-1.2-4.8c0-2,0.6-4,1.7-5.7c1.1-1.7,2.7-3,4.7-3.8c1.7-0.7,3.7-1.1,5.9-1.1c1.5,0,2.9,0.2,4.3,0.5
					c1.5,0.4,2.9,1,4.1,1.7c2.4,1.5,3.4,4.5,2.3,7.2l-0.7,1.8c0.9,1.2,1.8,3.1,1.8,5.8c0,2-0.6,4-1.7,5.7c-1.1,1.7-2.7,2.9-4.7,3.8
					C224.2,102.3,222.2,102.7,220,102.7z"/>
			</g>
		</g>
		<g>
			<g>
				<path class="st2" d="M109.4,49.9v2.8H97.5V37.4h11.6v2.8H101v3.3h7.1v2.8H101v3.6H109.4z"/>
			</g>
			<g>
				<path class="st2" d="M126.3,37.4v15.3h-2.9l-7.7-9.3v9.3h-3.5V37.4h2.9l7.6,9.3v-9.3H126.3z"/>
			</g>
			<g>
				<path class="st2" d="M133,52c-1.3-0.7-2.3-1.6-3-2.8c-0.7-1.2-1.1-2.6-1.1-4.1c0-1.5,0.4-2.9,1.1-4.1c0.7-1.2,1.7-2.1,3-2.8
					c1.3-0.7,2.7-1,4.3-1c1.3,0,2.5,0.2,3.6,0.7c1.1,0.5,2,1.1,2.7,2l-2.3,2.1c-1-1.2-2.3-1.8-3.9-1.8c-1,0-1.8,0.2-2.5,0.6
					c-0.7,0.4-1.3,1-1.7,1.7c-0.4,0.7-0.6,1.6-0.6,2.5c0,1,0.2,1.8,0.6,2.5c0.4,0.7,1,1.3,1.7,1.7c0.7,0.4,1.6,0.6,2.5,0.6
					c1.5,0,2.8-0.6,3.9-1.8l2.3,2.1c-0.7,0.9-1.6,1.6-2.7,2c-1.1,0.5-2.3,0.7-3.6,0.7C135.7,53,134.3,52.7,133,52z"/>
			</g>
			<g>
				<path class="st2" d="M147.5,51.2c-1.2-1.2-1.8-2.9-1.8-5.2v-8.6h3.6v8.5c0,2.7,1.1,4.1,3.4,4.1c1.1,0,2-0.3,2.5-1
					c0.6-0.7,0.9-1.7,0.9-3.1v-8.5h3.5V46c0,2.3-0.6,4-1.8,5.2c-1.2,1.2-2.9,1.8-5.1,1.8C150.5,53,148.8,52.4,147.5,51.2z"/>
			</g>
			<g>
				<path class="st2" d="M175,49.9v2.8h-11.9V37.4h11.6v2.8h-8.1v3.3h7.1v2.8h-7.1v3.6H175z"/>
			</g>
			<g>
				<path class="st2" d="M191.9,37.4v15.3H189l-7.7-9.3v9.3h-3.5V37.4h2.9l7.6,9.3v-9.3H191.9z"/>
			</g>
			<g>
				<path class="st2" d="M198.7,40.3h-4.9v-2.9h13.4v2.9h-4.9v12.5h-3.6V40.3z"/>
			</g>
			<g>
				<path class="st2" d="M218.9,52.8l-3-4.3h-0.2h-3.1v4.3h-3.6V37.4h6.6c1.4,0,2.5,0.2,3.5,0.7c1,0.5,1.8,1.1,2.3,1.9
					c0.5,0.8,0.8,1.8,0.8,3s-0.3,2.1-0.8,2.9c-0.5,0.8-1.3,1.5-2.3,1.9l3.4,4.9H218.9z M218,41c-0.6-0.5-1.4-0.7-2.4-0.7h-2.9v5.3
					h2.9c1.1,0,1.9-0.2,2.4-0.7c0.6-0.5,0.8-1.1,0.8-2C218.8,42.1,218.5,41.5,218,41z"/>
			</g>
			<g>
				<path class="st2" d="M235.3,49.5h-7.1l-1.4,3.3h-3.6l6.8-15.3h3.5l6.9,15.3h-3.7L235.3,49.5z M234.2,46.8l-2.4-5.9l-2.4,5.9
					H234.2z"/>
			</g>
			<g>
				<path class="st2" d="M109.9,59.3h3.6v12.5h7.7v2.9h-11.2V59.3z"/>
			</g>
			<g>
				<path class="st2" d="M133.4,71.4h-7.1l-1.4,3.3h-3.6l6.8-15.3h3.5l6.9,15.3h-3.7L133.4,71.4z M132.3,68.7l-2.4-5.9l-2.4,5.9
					H132.3z"/>
			</g>
			<g>
				<path class="st2" d="M141.6,74.4c-1.1-0.3-2-0.8-2.7-1.3l1.2-2.7c0.7,0.5,1.4,0.9,2.3,1.2c0.9,0.3,1.8,0.4,2.7,0.4
					c1,0,1.8-0.1,2.2-0.5c0.5-0.3,0.7-0.7,0.7-1.2c0-0.4-0.1-0.7-0.4-0.9c-0.3-0.2-0.7-0.4-1.1-0.6c-0.4-0.1-1-0.3-1.8-0.5
					c-1.2-0.3-2.1-0.6-2.9-0.8c-0.7-0.3-1.4-0.7-1.9-1.3c-0.5-0.6-0.8-1.4-0.8-2.5c0-0.9,0.2-1.7,0.7-2.4c0.5-0.7,1.2-1.3,2.2-1.7
					c1-0.4,2.2-0.6,3.6-0.6c1,0,1.9,0.1,2.9,0.4c0.9,0.2,1.8,0.6,2.5,1l-1.1,2.7c-1.4-0.8-2.8-1.2-4.3-1.2c-1,0-1.7,0.2-2.2,0.5
					c-0.5,0.3-0.7,0.7-0.7,1.3c0,0.5,0.3,0.9,0.8,1.2c0.5,0.3,1.4,0.5,2.5,0.8c1.2,0.3,2.1,0.6,2.9,0.8c0.7,0.3,1.4,0.7,1.9,1.3
					c0.5,0.6,0.8,1.4,0.8,2.4c0,0.9-0.2,1.7-0.7,2.4s-1.2,1.3-2.2,1.7c-1,0.4-2.2,0.6-3.6,0.6C143.9,74.9,142.7,74.8,141.6,74.4z"/>
			</g>
			<g>
				<path class="st2" d="M174.2,74.7l0-9.2l-4.5,7.6h-1.6l-4.5-7.4v9h-3.3V59.3h2.9l5.7,9.5l5.7-9.5h2.9l0,15.3H174.2z"/>
			</g>
			<g>
				<path class="st2" d="M193.1,71.8v2.8h-11.9V59.3h11.6v2.8h-8.1v3.3h7.1v2.8h-7.1v3.6H193.1z"/>
			</g>
			<g>
				<path class="st2" d="M195.9,74.4c-0.9-0.4-1.6-0.9-2.1-1.7l2-2.4c0.8,1.1,1.8,1.7,2.8,1.7c1.4,0,2.2-0.8,2.2-2.5v-7.3h-5.4v-2.8
					h8.9v10c0,1.9-0.5,3.3-1.4,4.2c-0.9,0.9-2.3,1.4-4.1,1.4C197.7,74.9,196.7,74.7,195.9,74.4z"/>
			</g>
			<g>
				<path class="st2" d="M210.9,73.9c-1.3-0.7-2.3-1.6-3-2.8c-0.7-1.2-1.1-2.6-1.1-4.1c0-1.5,0.4-2.9,1.1-4.1c0.7-1.2,1.7-2.2,3-2.8
					c1.3-0.7,2.7-1,4.3-1c1.6,0,3,0.3,4.3,1c1.3,0.7,2.3,1.6,3,2.8c0.7,1.2,1.1,2.6,1.1,4.1c0,1.5-0.4,2.9-1.1,4.1
					c-0.7,1.2-1.7,2.2-3,2.8c-1.3,0.7-2.7,1-4.3,1C213.6,74.9,212.1,74.6,210.9,73.9z M217.6,71.3c0.7-0.4,1.3-1,1.7-1.7
					c0.4-0.7,0.6-1.6,0.6-2.5c0-0.9-0.2-1.8-0.6-2.5c-0.4-0.7-1-1.3-1.7-1.7c-0.7-0.4-1.5-0.6-2.5-0.6c-0.9,0-1.7,0.2-2.5,0.6
					c-0.7,0.4-1.3,1-1.7,1.7c-0.4,0.7-0.6,1.6-0.6,2.5c0,1,0.2,1.8,0.6,2.5c0.4,0.7,1,1.3,1.7,1.7c0.7,0.4,1.5,0.6,2.5,0.6
					C216.1,71.9,216.9,71.7,217.6,71.3z"/>
			</g>
			<g>
				<path class="st2" d="M236,74.7l-3-4.3h-0.2h-3.1v4.3h-3.6V59.3h6.6c1.4,0,2.5,0.2,3.5,0.7c1,0.5,1.8,1.1,2.3,1.9
					c0.5,0.8,0.8,1.8,0.8,3c0,1.1-0.3,2.1-0.8,2.9c-0.5,0.8-1.3,1.5-2.3,1.9l3.4,4.9H236z M235.1,62.9c-0.6-0.5-1.4-0.7-2.4-0.7
					h-2.9v5.3h2.9c1.1,0,1.9-0.2,2.4-0.7c0.6-0.5,0.8-1.1,0.8-2C236,64,235.7,63.4,235.1,62.9z"/>
			</g>
			<g>
				<path class="st2" d="M254.2,71.8v2.8h-11.9V59.3H254v2.8h-8.1v3.3h7.1v2.8h-7.1v3.6H254.2z"/>
			</g>
			<g>
				<path class="st2" d="M258.6,74.4c-1.1-0.3-2-0.8-2.7-1.3l1.2-2.7c0.7,0.5,1.4,0.9,2.3,1.2c0.9,0.3,1.8,0.4,2.7,0.4
					c1,0,1.8-0.1,2.2-0.5c0.5-0.3,0.7-0.7,0.7-1.2c0-0.4-0.1-0.7-0.4-0.9c-0.3-0.2-0.7-0.4-1.1-0.6c-0.4-0.1-1-0.3-1.8-0.5
					c-1.2-0.3-2.1-0.6-2.9-0.8c-0.7-0.3-1.4-0.7-1.9-1.3c-0.5-0.6-0.8-1.4-0.8-2.5c0-0.9,0.2-1.7,0.7-2.4c0.5-0.7,1.2-1.3,2.2-1.7
					c1-0.4,2.2-0.6,3.6-0.6c1,0,1.9,0.1,2.9,0.4s1.8,0.6,2.5,1l-1.1,2.7c-1.4-0.8-2.8-1.2-4.3-1.2c-1,0-1.7,0.2-2.2,0.5
					c-0.5,0.3-0.7,0.7-0.7,1.3c0,0.5,0.3,0.9,0.8,1.2c0.5,0.3,1.4,0.5,2.5,0.8c1.2,0.3,2.1,0.6,2.9,0.8c0.7,0.3,1.4,0.7,1.9,1.3
					c0.5,0.6,0.8,1.4,0.8,2.4c0,0.9-0.2,1.7-0.7,2.4s-1.2,1.3-2.2,1.7c-1,0.4-2.2,0.6-3.6,0.6C260.9,74.9,259.7,74.8,258.6,74.4z"/>
			</g>
			<g>
				<path class="st2" d="M125.4,95.8c-1.3-0.7-2.3-1.6-3-2.8s-1.1-2.6-1.1-4.1c0-1.5,0.4-2.9,1.1-4.1c0.7-1.2,1.7-2.2,3-2.8
					c1.3-0.7,2.7-1,4.3-1s3,0.3,4.3,1c1.3,0.7,2.3,1.6,3,2.8c0.7,1.2,1.1,2.6,1.1,4.1c0,1.5-0.4,2.9-1.1,4.1s-1.7,2.2-3,2.8
					c-1.3,0.7-2.7,1-4.3,1S126.7,96.5,125.4,95.8z M132.2,93.2c0.7-0.4,1.3-1,1.7-1.7c0.4-0.7,0.6-1.6,0.6-2.5
					c0-0.9-0.2-1.8-0.6-2.5c-0.4-0.7-1-1.3-1.7-1.7c-0.7-0.4-1.5-0.6-2.5-0.6s-1.7,0.2-2.5,0.6c-0.7,0.4-1.3,1-1.7,1.7
					c-0.4,0.7-0.6,1.6-0.6,2.5c0,1,0.2,1.8,0.6,2.5c0.4,0.7,1,1.3,1.7,1.7c0.7,0.4,1.5,0.6,2.5,0.6S131.5,93.6,132.2,93.2z"/>
			</g>
			<g>
				<path class="st2" d="M144.4,84.1v4.1h7.1V91h-7.1v5.6h-3.6V81.3h11.6v2.8H144.4z"/>
			</g>
			<g>
				<path class="st2" d="M166.7,93.8v2.8h-11.9V81.3h11.6v2.8h-8.1v3.3h7.1v2.8h-7.1v3.6H166.7z"/>
			</g>
			<g>
				<path class="st2" d="M179.3,96.6l-3-4.3h-0.2h-3.1v4.3h-3.6V81.3h6.6c1.4,0,2.5,0.2,3.5,0.7c1,0.5,1.8,1.1,2.3,1.9
					c0.5,0.8,0.8,1.8,0.8,3s-0.3,2.1-0.8,2.9c-0.5,0.8-1.3,1.5-2.3,1.9l3.4,4.9H179.3z M178.4,84.8c-0.6-0.5-1.4-0.7-2.4-0.7h-2.9
					v5.3h2.9c1.1,0,1.9-0.2,2.4-0.7c0.6-0.5,0.8-1.1,0.8-2C179.2,86,179,85.3,178.4,84.8z"/>
			</g>
			<g>
				<path class="st2" d="M188.6,84.1h-4.9v-2.9h13.4v2.9h-4.9v12.5h-3.6V84.1z"/>
			</g>
			<g>
				<path class="st2" d="M208.3,93.3h-7.1l-1.4,3.3h-3.6l6.8-15.3h3.5l6.9,15.3h-3.7L208.3,93.3z M207.2,90.6l-2.4-5.9l-2.4,5.9
					H207.2z"/>
			</g>
			<g>
				<path class="st2" d="M216.5,96.4c-1.1-0.3-2-0.8-2.7-1.3l1.2-2.7c0.7,0.5,1.4,0.9,2.3,1.2c0.9,0.3,1.8,0.4,2.7,0.4
					c1,0,1.8-0.1,2.2-0.5c0.5-0.3,0.7-0.7,0.7-1.2c0-0.4-0.1-0.7-0.4-0.9c-0.3-0.2-0.7-0.4-1.1-0.6c-0.4-0.1-1-0.3-1.8-0.5
					c-1.2-0.3-2.1-0.6-2.9-0.8c-0.7-0.3-1.4-0.7-1.9-1.3c-0.5-0.6-0.8-1.4-0.8-2.5c0-0.9,0.2-1.7,0.7-2.4c0.5-0.7,1.2-1.3,2.2-1.7
					c1-0.4,2.2-0.6,3.6-0.6c1,0,1.9,0.1,2.9,0.4c0.9,0.2,1.8,0.6,2.5,1l-1.1,2.7c-1.4-0.8-2.8-1.2-4.3-1.2c-1,0-1.7,0.2-2.2,0.5
					c-0.5,0.3-0.7,0.7-0.7,1.3c0,0.5,0.3,0.9,0.8,1.2c0.5,0.3,1.4,0.5,2.5,0.8c1.2,0.3,2.1,0.6,2.9,0.8c0.7,0.3,1.4,0.7,1.9,1.3
					c0.5,0.6,0.8,1.4,0.8,2.4c0,0.9-0.2,1.7-0.7,2.4s-1.2,1.3-2.2,1.7c-1,0.4-2.2,0.6-3.6,0.6C218.8,96.9,217.6,96.7,216.5,96.4z"/>
			</g>
		</g>
	</g>
</g>
</svg>
