<?xml version="1.0" encoding="utf-8"?>
<!-- Generator: Adobe Illustrator 21.0.2, SVG Export Plug-In . SVG Version: 6.00 Build 0)  -->
<svg version="1.1" id="Capa_3" xmlns="http://www.w3.org/2000/svg" xmlns:xlink="http://www.w3.org/1999/xlink" x="0px" y="0px"
	 viewBox="0 0 348.6 378.7" style="enable-background:new 0 0 348.6 378.7;" xml:space="preserve">
<style type="text/css">
	.st0{opacity:0.1;}
	.st1{clip-path:url(#SVGID_2_);fill:#CBE5FC;}
	.st2{clip-path:url(#SVGID_2_);fill:#CAE5FC;}
	.st3{clip-path:url(#SVGID_2_);fill:#C9E4FC;}
	.st4{clip-path:url(#SVGID_2_);fill:#C8E4FC;}
	.st5{clip-path:url(#SVGID_2_);fill:#C7E4FC;}
	.st6{clip-path:url(#SVGID_2_);fill:#C6E4FC;}
	.st7{clip-path:url(#SVGID_2_);fill:#C5E3FB;}
	.st8{clip-path:url(#SVGID_2_);fill:#C4E3FB;}
	.st9{clip-path:url(#SVGID_2_);fill:#C3E3FB;}
	.st10{clip-path:url(#SVGID_2_);fill:#C2E2FB;}
	.st11{clip-path:url(#SVGID_2_);fill:#C1E2FB;}
	.st12{clip-path:url(#SVGID_2_);fill:#C0E2FB;}
	.st13{clip-path:url(#SVGID_2_);fill:#BFE2FB;}
	.st14{clip-path:url(#SVGID_2_);fill:#BEE1FB;}
	.st15{clip-path:url(#SVGID_2_);fill:#BDE1FB;}
	.st16{clip-path:url(#SVGID_2_);fill:#BCE1FB;}
	.st17{clip-path:url(#SVGID_2_);fill:#BBE0FA;}
	.st18{clip-path:url(#SVGID_2_);fill:#BAE0FA;}
	.st19{clip-path:url(#SVGID_2_);fill:#B9E0FA;}
	.st20{clip-path:url(#SVGID_2_);fill:#B8E0FA;}
	.st21{clip-path:url(#SVGID_2_);fill:#B7DFFA;}
	.st22{clip-path:url(#SVGID_2_);fill:#B6DFFA;}
	.st23{clip-path:url(#SVGID_2_);fill:#B5DFFA;}
	.st24{clip-path:url(#SVGID_2_);fill:#B4DEFA;}
	.st25{clip-path:url(#SVGID_2_);fill:#B3DEFA;}
	.st26{clip-path:url(#SVGID_2_);fill:#B2DEFA;}
	.st27{clip-path:url(#SVGID_2_);fill:#B1DEFA;}
	.st28{clip-path:url(#SVGID_2_);fill:#B0DDF9;}
	.st29{clip-path:url(#SVGID_2_);fill:#AFDDF9;}
	.st30{clip-path:url(#SVGID_2_);fill:#AEDDF9;}
	.st31{clip-path:url(#SVGID_2_);fill:#ADDCF9;}
	.st32{clip-path:url(#SVGID_2_);fill:#ACDCF9;}
	.st33{clip-path:url(#SVGID_2_);fill:#ABDCF9;}
	.st34{clip-path:url(#SVGID_2_);fill:#AADCF9;}
	.st35{clip-path:url(#SVGID_2_);fill:#A9DBF9;}
	.st36{clip-path:url(#SVGID_2_);fill:#A8DBF9;}
	.st37{clip-path:url(#SVGID_2_);fill:#A7DBF9;}
	.st38{clip-path:url(#SVGID_2_);fill:#A6DBF9;}
	.st39{clip-path:url(#SVGID_2_);fill:#A4DAF8;}
	.st40{clip-path:url(#SVGID_2_);fill:#A3DAF8;}
	.st41{clip-path:url(#SVGID_2_);fill:#A2DAF8;}
	.st42{clip-path:url(#SVGID_2_);fill:#A1D9F8;}
	.st43{clip-path:url(#SVGID_2_);fill:#A0D9F8;}
	.st44{clip-path:url(#SVGID_2_);fill:#9FD9F8;}
	.st45{clip-path:url(#SVGID_2_);fill:#9ED9F8;}
	.st46{clip-path:url(#SVGID_2_);fill:#9DD8F8;}
	.st47{clip-path:url(#SVGID_2_);fill:#9CD8F8;}
	.st48{clip-path:url(#SVGID_2_);fill:#9BD8F8;}
	.st49{clip-path:url(#SVGID_2_);fill:#9AD7F7;}
	.st50{clip-path:url(#SVGID_2_);fill:#99D7F7;}
	.st51{clip-path:url(#SVGID_2_);fill:#98D7F7;}
	.st52{clip-path:url(#SVGID_2_);fill:#97D7F7;}
	.st53{clip-path:url(#SVGID_2_);fill:#96D6F7;}
	.st54{clip-path:url(#SVGID_2_);fill:#95D6F7;}
	.st55{clip-path:url(#SVGID_2_);fill:#94D6F7;}
	.st56{clip-path:url(#SVGID_2_);fill:#93D5F7;}
	.st57{clip-path:url(#SVGID_2_);fill:#92D5F7;}
	.st58{clip-path:url(#SVGID_2_);fill:#91D5F7;}
	.st59{clip-path:url(#SVGID_2_);fill:#90D5F7;}
	.st60{clip-path:url(#SVGID_2_);fill:#8FD4F6;}
	.st61{clip-path:url(#SVGID_2_);fill:#8ED4F6;}
	.st62{clip-path:url(#SVGID_2_);fill:#8DD4F6;}
	.st63{clip-path:url(#SVGID_2_);fill:#8CD3F6;}
	.st64{clip-path:url(#SVGID_2_);fill:#8BD3F6;}
	.st65{clip-path:url(#SVGID_2_);fill:#8AD3F6;}
	.st66{clip-path:url(#SVGID_2_);fill:#89D3F6;}
	.st67{clip-path:url(#SVGID_2_);fill:#88D2F6;}
	.st68{clip-path:url(#SVGID_2_);fill:#87D2F6;}
	.st69{clip-path:url(#SVGID_2_);fill:#86D2F6;}
	.st70{clip-path:url(#SVGID_2_);fill:#85D1F5;}
	.st71{clip-path:url(#SVGID_2_);fill:#84D1F5;}
	.st72{clip-path:url(#SVGID_2_);fill:#83D1F5;}
	.st73{clip-path:url(#SVGID_2_);fill:#82D1F5;}
	.st74{clip-path:url(#SVGID_2_);fill:#81D0F5;}
	.st75{clip-path:url(#SVGID_2_);fill:#80D0F5;}
	.st76{opacity:0.25;}
	.st77{opacity:0.7;}
	.st78{clip-path:url(#SVGID_4_);fill:#A8E5FC;}
	.st79{clip-path:url(#SVGID_4_);fill:#A7E4FC;}
	.st80{clip-path:url(#SVGID_4_);fill:#A7E3FC;}
	.st81{clip-path:url(#SVGID_4_);fill:#A6E2FC;}
	.st82{clip-path:url(#SVGID_4_);fill:#A6E1FC;}
	.st83{clip-path:url(#SVGID_4_);fill:#A5E0FC;}
	.st84{clip-path:url(#SVGID_4_);fill:#A4DFFC;}
	.st85{clip-path:url(#SVGID_4_);fill:#A4DEFB;}
	.st86{clip-path:url(#SVGID_4_);fill:#A3DDFB;}
	.st87{clip-path:url(#SVGID_4_);fill:#A3DCFB;}
	.st88{clip-path:url(#SVGID_4_);fill:#A2DBFB;}
	.st89{clip-path:url(#SVGID_4_);fill:#A1DAFB;}
	.st90{clip-path:url(#SVGID_4_);fill:#A1D9FB;}
	.st91{clip-path:url(#SVGID_4_);fill:#A0D8FB;}
	.st92{clip-path:url(#SVGID_4_);fill:#A0D7FB;}
	.st93{clip-path:url(#SVGID_4_);fill:#9FD6FB;}
	.st94{clip-path:url(#SVGID_4_);fill:#9ED5FB;}
	.st95{clip-path:url(#SVGID_4_);fill:#9ED4FB;}
	.st96{clip-path:url(#SVGID_4_);fill:#9DD3FB;}
	.st97{clip-path:url(#SVGID_4_);fill:#9DD2FB;}
	.st98{clip-path:url(#SVGID_4_);fill:#9CD1FA;}
	.st99{clip-path:url(#SVGID_4_);fill:#9BD0FA;}
	.st100{clip-path:url(#SVGID_4_);fill:#9BCFFA;}
	.st101{clip-path:url(#SVGID_4_);fill:#9ACEFA;}
	.st102{clip-path:url(#SVGID_4_);fill:#9ACDFA;}
	.st103{clip-path:url(#SVGID_4_);fill:#99CCFA;}
	.st104{clip-path:url(#SVGID_4_);fill:#99CBFA;}
	.st105{clip-path:url(#SVGID_4_);fill:#98CAFA;}
	.st106{clip-path:url(#SVGID_4_);fill:#97C9FA;}
	.st107{clip-path:url(#SVGID_4_);fill:#97C8FA;}
	.st108{clip-path:url(#SVGID_4_);fill:#96C7FA;}
	.st109{clip-path:url(#SVGID_4_);fill:#96C6FA;}
	.st110{clip-path:url(#SVGID_4_);fill:#95C5F9;}
	.st111{clip-path:url(#SVGID_4_);fill:#94C4F9;}
	.st112{clip-path:url(#SVGID_4_);fill:#94C3F9;}
	.st113{clip-path:url(#SVGID_4_);fill:#93C2F9;}
	.st114{clip-path:url(#SVGID_4_);fill:#93C1F9;}
	.st115{clip-path:url(#SVGID_4_);fill:#92C0F9;}
	.st116{clip-path:url(#SVGID_4_);fill:#91BFF9;}
	.st117{clip-path:url(#SVGID_4_);fill:#91BEF9;}
	.st118{clip-path:url(#SVGID_4_);fill:#90BDF9;}
	.st119{clip-path:url(#SVGID_4_);fill:#90BCF9;}
	.st120{clip-path:url(#SVGID_4_);fill:#8FBBF9;}
	.st121{clip-path:url(#SVGID_4_);fill:#8EBAF9;}
	.st122{clip-path:url(#SVGID_4_);fill:#8EB9F9;}
	.st123{clip-path:url(#SVGID_4_);fill:#8DB7F8;}
	.st124{clip-path:url(#SVGID_4_);fill:#8DB6F8;}
	.st125{clip-path:url(#SVGID_4_);fill:#8CB5F8;}
	.st126{clip-path:url(#SVGID_4_);fill:#8BB4F8;}
	.st127{clip-path:url(#SVGID_4_);fill:#8BB3F8;}
	.st128{clip-path:url(#SVGID_4_);fill:#8AB2F8;}
	.st129{clip-path:url(#SVGID_4_);fill:#8AB1F8;}
	.st130{clip-path:url(#SVGID_4_);fill:#89B0F8;}
	.st131{clip-path:url(#SVGID_4_);fill:#88AFF8;}
	.st132{clip-path:url(#SVGID_4_);fill:#88AEF8;}
	.st133{clip-path:url(#SVGID_4_);fill:#87ADF8;}
	.st134{clip-path:url(#SVGID_4_);fill:#87ACF8;}
	.st135{clip-path:url(#SVGID_4_);fill:#86ABF8;}
	.st136{clip-path:url(#SVGID_4_);fill:#85AAF7;}
	.st137{clip-path:url(#SVGID_4_);fill:#85A9F7;}
	.st138{clip-path:url(#SVGID_4_);fill:#84A8F7;}
	.st139{clip-path:url(#SVGID_4_);fill:#84A7F7;}
	.st140{clip-path:url(#SVGID_4_);fill:#83A6F7;}
	.st141{clip-path:url(#SVGID_4_);fill:#82A5F7;}
	.st142{clip-path:url(#SVGID_4_);fill:#82A4F7;}
	.st143{clip-path:url(#SVGID_4_);fill:#81A3F7;}
	.st144{clip-path:url(#SVGID_4_);fill:#81A2F7;}
	.st145{clip-path:url(#SVGID_4_);fill:#80A1F7;}
	.st146{clip-path:url(#SVGID_4_);fill:#80A0F7;}
	.st147{clip-path:url(#SVGID_4_);fill:#7F9FF7;}
	.st148{clip-path:url(#SVGID_4_);fill:#7E9EF6;}
	.st149{clip-path:url(#SVGID_4_);fill:#7E9DF6;}
	.st150{clip-path:url(#SVGID_4_);fill:#7D9CF6;}
	.st151{clip-path:url(#SVGID_4_);fill:#7D9BF6;}
	.st152{clip-path:url(#SVGID_4_);fill:#7C9AF6;}
	.st153{clip-path:url(#SVGID_4_);fill:#7B99F6;}
	.st154{clip-path:url(#SVGID_4_);fill:#7B98F6;}
	.st155{clip-path:url(#SVGID_4_);fill:#7A97F6;}
	.st156{clip-path:url(#SVGID_4_);fill:#7A96F6;}
	.st157{clip-path:url(#SVGID_4_);fill:#7995F6;}
	.st158{clip-path:url(#SVGID_4_);fill:#7894F6;}
	.st159{clip-path:url(#SVGID_4_);fill:#7893F6;}
	.st160{clip-path:url(#SVGID_4_);fill:#7792F6;}
	.st161{clip-path:url(#SVGID_4_);fill:#7791F5;}
	.st162{clip-path:url(#SVGID_4_);fill:#7690F5;}
	.st163{clip-path:url(#SVGID_4_);fill:#758FF5;}
	.st164{clip-path:url(#SVGID_4_);fill:#758EF5;}
	.st165{clip-path:url(#SVGID_4_);fill:#748DF5;}
	.st166{clip-path:url(#SVGID_4_);fill:#748CF5;}
	.st167{fill:#0A6FCB;}
	.st168{fill:none;stroke:#0A6FCB;stroke-width:3;stroke-linecap:round;stroke-linejoin:round;stroke-miterlimit:10;}
</style>
<g class="st0">
	<g>
		<g>
			<defs>
				<path id="SVGID_1_" d="M315.1,210.8c14.1,70.9-34.9,140.4-109.4,155.2c-39,7.7-77.2-1.1-106.9-21.4
					c-26.9-18.5-46.7-46.5-53.4-80.3c-7.4-37.5,2.8-74.6,25-103.4c7.7-9.9,10.5-22.4,8.1-34.2l0-0.2
					C68.3,74.7,105.3,23.7,161.2,12.7C213,2.4,262.8,29.9,278,75.2c1.2,3.6,2.2,7.3,3,11.1c2.1,10.6,2.2,21.2,0.6,31.4
					c-2.4,15,1.7,30.1,10.8,42.3c2.5,3.4,4.9,6.9,7.1,10.6c1.8,3,3.5,6.2,5.1,9.4C309.4,189.6,312.9,199.9,315.1,210.8z"/>
			</defs>
			<clipPath id="SVGID_2_">
				<use xlink:href="#SVGID_1_"  style="overflow:visible;"/>
			</clipPath>
			<polygon class="st1" points="168.1,373.7 329.1,331.9 329.1,373.7 			"/>
			<polygon class="st1" points="149.8,373.7 329.1,327.2 329.1,331.9 168.1,373.7 			"/>
			<polygon class="st2" points="131.6,373.7 329.1,322.5 329.1,327.2 149.8,373.7 			"/>
			<polygon class="st3" points="113.3,373.7 329.1,317.7 329.1,322.5 131.6,373.7 			"/>
			<polygon class="st4" points="95.1,373.7 329.1,313 329.1,317.7 113.3,373.7 			"/>
			<polygon class="st5" points="76.8,373.7 329.1,308.3 329.1,313 95.1,373.7 			"/>
			<polygon class="st6" points="69.7,373.7 69,371 329.1,303.5 329.1,308.3 76.8,373.7 			"/>
			<polygon class="st7" points="69,371 67.8,366.6 329.1,298.8 329.1,303.5 			"/>
			<polygon class="st8" points="67.8,366.6 66.7,362.2 329.1,294 329.1,298.8 			"/>
			<polygon class="st9" points="66.7,362.2 65.5,357.7 329.1,289.3 329.1,294 			"/>
			<polygon class="st10" points="65.5,357.7 64.4,353.3 329.1,284.6 329.1,289.3 			"/>
			<polygon class="st11" points="64.4,353.3 63.2,348.8 329.1,279.8 329.1,284.6 			"/>
			<polygon class="st12" points="63.2,348.8 62.1,344.4 329.1,275.1 329.1,279.8 			"/>
			<polygon class="st13" points="62.1,344.4 60.9,340 329.1,270.4 329.1,275.1 			"/>
			<polygon class="st14" points="60.9,340 59.8,335.5 329.1,265.6 329.1,270.4 			"/>
			<polygon class="st15" points="59.8,335.5 58.6,331.1 329.1,260.9 329.1,265.6 			"/>
			<polygon class="st16" points="58.6,331.1 57.5,326.7 329.1,256.1 329.1,260.9 			"/>
			<polygon class="st17" points="57.5,326.7 56.3,322.2 328.4,251.6 329.1,254.5 329.1,256.1 			"/>
			
				<rect x="51.2" y="282.4" transform="matrix(0.9679 -0.2512 0.2512 0.9679 -65.3693 57.3055)" class="st18" width="281.1" height="4.6"/>
			
				<rect x="50.1" y="278" transform="matrix(0.9679 -0.2512 0.2512 0.9679 -64.2913 56.8738)" class="st19" width="281.1" height="4.6"/>
			
				<rect x="48.9" y="273.5" transform="matrix(0.9679 -0.2512 0.2512 0.9679 -63.2132 56.4421)" class="st20" width="281.1" height="4.6"/>
			
				<rect x="47.8" y="269.1" transform="matrix(0.9679 -0.2512 0.2512 0.9679 -62.1351 56.0103)" class="st21" width="281.1" height="4.6"/>
			
				<rect x="46.6" y="264.6" transform="matrix(0.9679 -0.2512 0.2512 0.9679 -61.0571 55.5786)" class="st22" width="281.1" height="4.6"/>
			
				<rect x="45.5" y="260.2" transform="matrix(0.9679 -0.2512 0.2512 0.9679 -59.979 55.1469)" class="st23" width="281.1" height="4.6"/>
			
				<rect x="44.3" y="255.8" transform="matrix(0.9679 -0.2512 0.2512 0.9679 -58.9009 54.7151)" class="st24" width="281.1" height="4.6"/>
			
				<rect x="43.2" y="251.3" transform="matrix(0.9679 -0.2512 0.2512 0.9679 -57.8228 54.2834)" class="st25" width="281.1" height="4.6"/>
			
				<rect x="42" y="246.9" transform="matrix(0.9679 -0.2512 0.2512 0.9679 -56.7448 53.8517)" class="st26" width="281.1" height="4.6"/>
			
				<rect x="40.9" y="242.4" transform="matrix(0.9679 -0.2512 0.2512 0.9679 -55.6667 53.4199)" class="st27" width="281.1" height="4.6"/>
			
				<rect x="39.7" y="238" transform="matrix(0.9679 -0.2512 0.2512 0.9679 -54.5886 52.9882)" class="st28" width="281.1" height="4.6"/>
			
				<rect x="38.6" y="233.6" transform="matrix(0.9679 -0.2512 0.2512 0.9679 -53.5106 52.5565)" class="st29" width="281.1" height="4.6"/>
			
				<rect x="37.4" y="229.1" transform="matrix(0.9679 -0.2512 0.2512 0.9679 -52.4325 52.1247)" class="st30" width="281.1" height="4.6"/>
			
				<rect x="36.2" y="224.7" transform="matrix(0.9679 -0.2512 0.2512 0.9679 -51.3544 51.693)" class="st31" width="281.1" height="4.6"/>
			
				<rect x="35.1" y="220.3" transform="matrix(0.9679 -0.2512 0.2512 0.9679 -50.2764 51.2613)" class="st32" width="281.1" height="4.6"/>
			<polygon class="st33" points="39,255.6 38,251.6 38,251.2 309.9,180.6 311.1,185 			"/>
			<polygon class="st34" points="38,246.4 308.8,176.1 309.9,180.6 38,251.2 			"/>
			<polygon class="st35" points="38,241.7 307.6,171.7 308.8,176.1 38,246.4 			"/>
			<polygon class="st36" points="38,237 306.5,167.3 307.6,171.7 38,241.7 			"/>
			<polygon class="st37" points="38,232.2 305.3,162.8 306.5,167.3 38,237 			"/>
			<polygon class="st38" points="38,227.5 304.2,158.4 305.3,162.8 38,232.2 			"/>
			<polygon class="st39" points="38,222.7 303,154 304.2,158.4 38,227.5 			"/>
			<polygon class="st40" points="38,218 301.9,149.5 303,154 38,222.7 			"/>
			<polygon class="st41" points="38,213.3 300.7,145.1 301.9,149.5 38,218 			"/>
			<polygon class="st42" points="38,208.5 299.6,140.6 300.7,145.1 38,213.3 			"/>
			<polygon class="st43" points="38,203.8 298.4,136.2 299.6,140.6 38,208.5 			"/>
			<polygon class="st44" points="38,199.1 297.3,131.8 298.4,136.2 38,203.8 			"/>
			<polygon class="st45" points="38,194.3 296.1,127.3 297.3,131.8 38,199.1 			"/>
			<polygon class="st46" points="38,189.6 295,122.9 296.1,127.3 38,194.3 			"/>
			<polygon class="st47" points="38,184.9 293.8,118.4 295,122.9 38,189.6 			"/>
			<polygon class="st48" points="38,180.1 292.7,114 293.8,118.4 38,184.9 			"/>
			<polygon class="st49" points="38,175.4 291.5,109.6 292.7,114 38,180.1 			"/>
			<polygon class="st50" points="38,170.6 290.4,105.1 291.5,109.6 38,175.4 			"/>
			<polygon class="st51" points="38,165.9 289.2,100.7 290.4,105.1 38,170.6 			"/>
			<polygon class="st52" points="38,161.2 288.1,96.3 289.2,100.7 38,165.9 			"/>
			<polygon class="st53" points="38,156.4 286.9,91.8 288.1,96.3 38,161.2 			"/>
			<polygon class="st54" points="38,151.7 285.8,87.4 286.9,91.8 38,156.4 			"/>
			<polygon class="st55" points="38,147 284.6,82.9 285.8,87.4 38,151.7 			"/>
			<polygon class="st56" points="38,142.2 283.5,78.5 284.6,82.9 38,147 			"/>
			<polygon class="st57" points="38,137.5 282.3,74.1 283.5,78.5 38,142.2 			"/>
			<polygon class="st58" points="38,132.7 281.1,69.6 282.3,74.1 38,137.5 			"/>
			<polygon class="st59" points="38,128 280,65.2 281.1,69.6 38,132.7 			"/>
			<polygon class="st60" points="38,123.3 278.8,60.7 280,65.2 38,128 			"/>
			<polygon class="st61" points="38,118.5 277.7,56.3 278.8,60.7 38,123.3 			"/>
			<polygon class="st62" points="38,113.8 276.5,51.9 277.7,56.3 38,118.5 			"/>
			<polygon class="st63" points="38,109.1 275.4,47.4 276.5,51.9 38,113.8 			"/>
			<polygon class="st64" points="38,104.3 274.2,43 275.4,47.4 38,109.1 			"/>
			<polygon class="st65" points="38,99.6 273.1,38.6 274.2,43 38,104.3 			"/>
			<polygon class="st66" points="38,94.8 271.9,34.1 273.1,38.6 38,99.6 			"/>
			<polygon class="st67" points="38,90.1 270.8,29.7 271.9,34.1 38,94.8 			"/>
			<polygon class="st68" points="38,85.4 269.6,25.2 270.8,29.7 38,90.1 			"/>
			<polygon class="st69" points="38,80.6 268.5,20.8 269.6,25.2 38,85.4 			"/>
			<polygon class="st70" points="38,75.9 267.3,16.4 268.5,20.8 38,80.6 			"/>
			<polygon class="st71" points="38,71.2 266.2,11.9 267.3,16.4 38,75.9 			"/>
			<polygon class="st72" points="38,66.4 265,7.5 266.2,11.9 38,71.2 			"/>
			<polygon class="st73" points="38,61.7 263.9,3.1 265,7.5 38,66.4 			"/>
			<polygon class="st74" points="38,56.9 248.1,2.4 263.7,2.4 263.9,3.1 38,61.7 			"/>
			<polygon class="st75" points="38,52.2 229.9,2.4 248.1,2.4 38,56.9 			"/>
			<polygon class="st75" points="229.9,2.4 38,52.2 38,2.4 			"/>
		</g>
	</g>
	<g>
		
			<image style="overflow:visible;" width="348" height="431" xlink:href="5D067DE897BD9668.png"  transform="matrix(1 0 0 1 6.1435 -26.0049)">
		</image>
	</g>
</g>
<g class="st76">
	<g class="st77">
		<g>
			<defs>
				<path id="SVGID_3_" d="M311,275.2c-14.9,44.6-54,80.7-105.3,90.8c-39,7.7-77.2-1.1-106.9-21.4c-21.2-14.5-37.9-35-47.4-59.5
					c-1.2-3.8-2.2-7.2-3.1-10.2h62.3l1,7l25.8-0.2l0,9.6l9,7.2l24.5,3.1l23.8-1.7l14.8-6.5l0.5-9.9l36.4,0.1l17-2.7l0.5-4.6l47-1.4
					C310.9,275,311,275.1,311,275.2z"/>
			</defs>
			<clipPath id="SVGID_4_">
				<use xlink:href="#SVGID_3_"  style="overflow:visible;"/>
			</clipPath>
			<rect x="48.3" y="362.5" class="st78" width="262.6" height="11.2"/>
			<rect x="48.3" y="361.5" class="st78" width="262.6" height="1"/>
			<rect x="48.3" y="360.5" class="st79" width="262.6" height="1"/>
			<rect x="48.3" y="359.5" class="st80" width="262.6" height="1"/>
			<rect x="48.3" y="358.6" class="st81" width="262.6" height="1"/>
			<rect x="48.3" y="357.6" class="st82" width="262.6" height="1"/>
			<rect x="48.3" y="356.6" class="st83" width="262.6" height="1"/>
			<rect x="48.3" y="355.6" class="st84" width="262.6" height="1"/>
			<rect x="48.3" y="354.6" class="st85" width="262.6" height="1"/>
			<rect x="48.3" y="353.6" class="st86" width="262.6" height="1"/>
			<rect x="48.3" y="352.6" class="st87" width="262.6" height="1"/>
			<rect x="48.3" y="351.6" class="st88" width="262.6" height="1"/>
			<rect x="48.3" y="350.6" class="st89" width="262.6" height="1"/>
			<rect x="48.3" y="349.6" class="st90" width="262.6" height="1"/>
			<rect x="48.3" y="348.6" class="st91" width="262.6" height="1"/>
			<rect x="48.3" y="347.7" class="st92" width="262.6" height="1"/>
			<rect x="48.3" y="346.7" class="st93" width="262.6" height="1"/>
			<rect x="48.3" y="345.7" class="st94" width="262.6" height="1"/>
			<rect x="48.3" y="344.7" class="st95" width="262.6" height="1"/>
			<rect x="48.3" y="343.7" class="st96" width="262.6" height="1"/>
			<rect x="48.3" y="342.7" class="st97" width="262.6" height="1"/>
			<rect x="48.3" y="341.7" class="st98" width="262.6" height="1"/>
			<rect x="48.3" y="340.7" class="st99" width="262.6" height="1"/>
			<rect x="48.3" y="339.7" class="st100" width="262.6" height="1"/>
			<rect x="48.3" y="338.7" class="st101" width="262.6" height="1"/>
			<rect x="48.3" y="337.7" class="st102" width="262.6" height="1"/>
			<rect x="48.3" y="336.8" class="st103" width="262.6" height="1"/>
			<rect x="48.3" y="335.8" class="st104" width="262.6" height="1"/>
			<rect x="48.3" y="334.8" class="st105" width="262.6" height="1"/>
			<rect x="48.3" y="333.8" class="st106" width="262.6" height="1"/>
			<rect x="48.3" y="332.8" class="st107" width="262.6" height="1"/>
			<rect x="48.3" y="331.8" class="st108" width="262.6" height="1"/>
			<rect x="48.3" y="330.8" class="st109" width="262.6" height="1"/>
			<rect x="48.3" y="329.8" class="st110" width="262.6" height="1"/>
			<rect x="48.3" y="328.8" class="st111" width="262.6" height="1"/>
			<rect x="48.3" y="327.8" class="st112" width="262.6" height="1"/>
			<rect x="48.3" y="326.8" class="st113" width="262.6" height="1"/>
			<rect x="48.3" y="325.9" class="st114" width="262.6" height="1"/>
			<rect x="48.3" y="324.9" class="st115" width="262.6" height="1"/>
			<rect x="48.3" y="323.9" class="st116" width="262.6" height="1"/>
			<rect x="48.3" y="322.9" class="st117" width="262.6" height="1"/>
			<rect x="48.3" y="321.9" class="st118" width="262.6" height="1"/>
			<rect x="48.3" y="320.9" class="st119" width="262.6" height="1"/>
			<rect x="48.3" y="319.9" class="st120" width="262.6" height="1"/>
			<rect x="48.3" y="318.9" class="st121" width="262.6" height="1"/>
			<rect x="48.3" y="317.9" class="st122" width="262.6" height="1"/>
			<rect x="48.3" y="316.9" class="st123" width="262.6" height="1"/>
			<rect x="48.3" y="315.9" class="st124" width="262.6" height="1"/>
			<rect x="48.3" y="315" class="st125" width="262.6" height="1"/>
			<rect x="48.3" y="314" class="st126" width="262.6" height="1"/>
			<rect x="48.3" y="313" class="st127" width="262.6" height="1"/>
			<rect x="48.3" y="312" class="st128" width="262.6" height="1"/>
			<rect x="48.3" y="311" class="st129" width="262.6" height="1"/>
			<rect x="48.3" y="310" class="st130" width="262.6" height="1"/>
			<rect x="48.3" y="309" class="st131" width="262.6" height="1"/>
			<rect x="48.3" y="308" class="st132" width="262.6" height="1"/>
			<rect x="48.3" y="307" class="st133" width="262.6" height="1"/>
			<rect x="48.3" y="306" class="st134" width="262.6" height="1"/>
			<rect x="48.3" y="305" class="st135" width="262.6" height="1"/>
			<rect x="48.3" y="304.1" class="st136" width="262.6" height="1"/>
			<rect x="48.3" y="303.1" class="st137" width="262.6" height="1"/>
			<rect x="48.3" y="302.1" class="st138" width="262.6" height="1"/>
			<rect x="48.3" y="301.1" class="st139" width="262.6" height="1"/>
			<rect x="48.3" y="300.1" class="st140" width="262.6" height="1"/>
			<rect x="48.3" y="299.1" class="st141" width="262.6" height="1"/>
			<rect x="48.3" y="298.1" class="st142" width="262.6" height="1"/>
			<rect x="48.3" y="297.1" class="st143" width="262.6" height="1"/>
			<rect x="48.3" y="296.1" class="st144" width="262.6" height="1"/>
			<rect x="48.3" y="295.1" class="st145" width="262.6" height="1"/>
			<rect x="48.3" y="294.1" class="st146" width="262.6" height="1"/>
			<rect x="48.3" y="293.2" class="st147" width="262.6" height="1"/>
			<rect x="48.3" y="292.2" class="st148" width="262.6" height="1"/>
			<rect x="48.3" y="291.2" class="st149" width="262.6" height="1"/>
			<rect x="48.3" y="290.2" class="st150" width="262.6" height="1"/>
			<rect x="48.3" y="289.2" class="st151" width="262.6" height="1"/>
			<rect x="48.3" y="288.2" class="st152" width="262.6" height="1"/>
			<rect x="48.3" y="287.2" class="st153" width="262.6" height="1"/>
			<rect x="48.3" y="286.2" class="st154" width="262.6" height="1"/>
			<rect x="48.3" y="285.2" class="st155" width="262.6" height="1"/>
			<rect x="48.3" y="284.2" class="st156" width="262.6" height="1"/>
			<rect x="48.3" y="283.2" class="st157" width="262.6" height="1"/>
			<rect x="48.3" y="282.2" class="st158" width="262.6" height="1"/>
			<rect x="48.3" y="281.3" class="st159" width="262.6" height="1"/>
			<rect x="48.3" y="280.3" class="st160" width="262.6" height="1"/>
			<rect x="48.3" y="279.3" class="st161" width="262.6" height="1"/>
			<rect x="48.3" y="278.3" class="st162" width="262.6" height="1"/>
			<rect x="48.3" y="277.3" class="st163" width="262.6" height="1"/>
			<rect x="48.3" y="276.3" class="st164" width="262.6" height="1"/>
			<rect x="48.3" y="275.3" class="st165" width="262.6" height="1"/>
			<rect x="48.3" y="274.9" class="st166" width="262.6" height="0.4"/>
		</g>
	</g>
</g>
<g>
	<g>
		<g>
			<g>
				<path class="st167" d="M80.9,269.7c-0.8,0-1.5-0.7-1.5-1.5v-20c0-0.8,0.7-1.5,1.5-1.5s1.5,0.7,1.5,1.5v20
					C82.4,269,81.7,269.7,80.9,269.7z"/>
			</g>
			<g>
				<path class="st167" d="M105.7,249.5H79c-1.5,0-2.6-1.6-2.6-3.8v-0.9c0-2.2,1.1-3.8,2.6-3.8h26.2c0.8,0,1.5,0.7,1.5,1.5
					s-0.7,1.5-1.5,1.5H79.5c-0.1,0.2-0.1,0.5-0.1,0.8v0.9c0,0.3,0.1,0.6,0.1,0.8h26.2c0.8,0,1.5,0.7,1.5,1.5
					S106.5,249.5,105.7,249.5z"/>
			</g>
			<g>
				<path class="st167" d="M108.1,276H79c-1.5,0-2.6-1.6-2.6-3.8v-0.9c0-2.2,1.1-3.8,2.6-3.8h28.7c0.8,0,1.5,0.7,1.5,1.5
					s-0.7,1.5-1.5,1.5H79.5c-0.1,0.2-0.1,0.5-0.1,0.8v0.9c0,0.3,0.1,0.6,0.1,0.8h28.6c0.8,0,1.5,0.7,1.5,1.5S109,276,108.1,276z"/>
			</g>
		</g>
	</g>
	<g>
		<g>
			<path class="st167" d="M120.3,206.2c-0.6,0-1.2-0.4-1.4-1l-7.7-21.3l-15.1,5.3c-0.8,0.3-1.6-0.1-1.9-0.9
				c-0.3-0.8,0.1-1.6,0.9-1.9l16.5-5.8c0.8-0.3,1.6,0.1,1.9,0.9l8.2,22.7c0.3,0.8-0.1,1.6-0.9,1.9
				C120.7,206.2,120.5,206.2,120.3,206.2z"/>
		</g>
		<g>
			<path class="st167" d="M138.4,223H96.5c-0.5,0-0.9-0.2-1.2-0.6s-0.4-0.9-0.2-1.3l5.4-16.7c0.2-0.6,0.8-1,1.4-1h36.2
				c0.8,0,1.5,0.7,1.5,1.5s-0.7,1.5-1.5,1.5H103L98.6,220h39.9c0.8,0,1.5,0.7,1.5,1.5S139.3,223,138.4,223z"/>
		</g>
		<g>
			<path class="st167" d="M138,281.6h-27.2c-0.8,0-1.4-0.6-1.5-1.3l-7.1-58.6c-0.1-0.4,0.1-0.9,0.4-1.2c0.3-0.3,0.7-0.5,1.1-0.5
				h34.8c0.8,0,1.5,0.7,1.5,1.5s-0.7,1.5-1.5,1.5h-33.1l6.7,55.6H138c0.8,0,1.5,0.7,1.5,1.5S138.8,281.6,138,281.6z"/>
		</g>
	</g>
	<g>
		<g>
			<path class="st167" d="M120.3,206.2c-0.6,0-1.2-0.4-1.4-1l-7.7-21.3l-15.1,5.3c-0.8,0.3-1.6-0.1-1.9-0.9
				c-0.3-0.8,0.1-1.6,0.9-1.9l16.5-5.8c0.8-0.3,1.6,0.1,1.9,0.9l8.2,22.7c0.3,0.8-0.1,1.6-0.9,1.9
				C120.7,206.2,120.5,206.2,120.3,206.2z"/>
		</g>
		<g>
			<path class="st167" d="M138.4,223H96.5c-0.5,0-0.9-0.2-1.2-0.6s-0.4-0.9-0.2-1.3l5.4-16.7c0.2-0.6,0.8-1,1.4-1h36.2
				c0.8,0,1.5,0.7,1.5,1.5s-0.7,1.5-1.5,1.5H103L98.6,220h39.9c0.8,0,1.5,0.7,1.5,1.5S139.3,223,138.4,223z"/>
		</g>
		<g>
			<path class="st167" d="M138,281.6h-27.2c-0.8,0-1.4-0.6-1.5-1.3l-7.1-58.6c-0.1-0.8,0.5-1.6,1.3-1.7c0.8-0.1,1.6,0.5,1.7,1.3
				l6.9,57.2H138c0.8,0,1.5,0.7,1.5,1.5S138.8,281.6,138,281.6z"/>
		</g>
	</g>
	<g>
		<g>
			<path class="st167" d="M138,281.6C138,281.6,138,281.6,138,281.6c-0.8,0-1.5-0.7-1.5-1.5l0.4-34.4c-0.1-0.8-0.5-5.2,1.5-8.9
				c-1.1-1.2-1.7-2.7-1.9-4.4c-0.3-2.5,0.5-5.3,2.2-7.8c-0.6-0.7-1.1-1.5-1.6-2.5c-2.4-5.1-1.7-12.8-0.4-17.7c0.2-0.8,1-1.3,1.8-1.1
				c0.8,0.2,1.3,1,1.1,1.8c-1.3,4.9-1.7,11.6,0.2,15.7c0.5,1,1.1,1.9,1.8,2.4c0.3,0.3,0.5,0.6,0.5,1c0,0.4-0.1,0.8-0.3,1.1
				c-1.7,2.1-2.6,4.6-2.4,6.7c0.2,1.4,0.7,2.5,1.8,3.2c0.6,0.5,0.8,1.4,0.3,2c-2.3,3.2-1.6,7.9-1.6,8c0,0.1,0,0.2,0,0.2l-0.4,34.5
				C139.5,280.9,138.8,281.6,138,281.6z"/>
		</g>
	</g>
	<g>
		<g>
			<path class="st167" d="M168.9,301.1c-14.1,0-24.6-2.8-31.2-8.5c-3.1-2.6-1.6-10.5-1.2-12.4l0.4-34.5c-0.1-0.8-0.5-5.2,1.5-8.9
				c-1.1-1.2-1.7-2.7-1.9-4.3c-0.3-2.5,0.5-5.3,2.2-7.8c-2.3-2.6-3.4-7-3.1-12.6c0.2-4.2,1.2-8.7,2.5-11.4
				c-3.6-3.7-3.8-9.3-0.6-15.3c-4.3-7.1-1.1-12.9,0.4-15c-1.6-4.1-7.3-21.3,8-33.1c15.8-12.2,16-24.4,16-24.5c0-0.8,0.7-1.5,1.5-1.5
				h20.8c0.8,0,1.5,0.7,1.5,1.5c0,0,0,3.1,2,7.6c1.8,4.2,5.8,10.5,14,16.9c15.3,11.8,9.6,29,8,33.1c1.5,2.1,4.7,7.9,0.4,15
				c3.2,6,2.9,11.6-0.6,15.3c1.3,2.7,2.3,7.2,2.5,11.4c0.3,5.5-0.8,9.9-3.1,12.6c1.7,2.5,2.5,5.3,2.2,7.8c-0.2,1.7-0.8,3.2-1.9,4.3
				c2,3.7,1.6,8.1,1.5,8.9l0.4,34.5c0.4,1.9,1.8,9.8-1.2,12.4c-2.4,2.1-9.8,8.4-36,8.4C172,301.1,170.4,301.1,168.9,301.1z
				 M164.7,114.1c-0.5,3.9-3.2,14.7-17.1,25.4c-15.4,11.9-7.1,29.5-6.7,30.3c0.3,0.6,0.2,1.2-0.3,1.7c-0.2,0.2-5.1,5.7-0.2,12.9
				c0.3,0.5,0.3,1.1,0.1,1.6c-1.5,2.6-4.5,9.2,0.4,13.2c0.6,0.5,0.7,1.3,0.3,2c-2.6,4-4.6,18.1,0.4,22.2c0.3,0.3,0.5,0.6,0.5,1
				c0,0.4-0.1,0.8-0.3,1.1c-1.7,2.1-2.6,4.6-2.4,6.7c0.2,1.3,0.8,2.5,1.8,3.2c0.6,0.5,0.8,1.4,0.3,2c-2.3,3.3-1.6,7.9-1.6,8
				c0,0.1,0,0.2,0,0.2l-0.4,34.7c0,0.1,0,0.2,0,0.3c-0.8,3.3-1.1,8.6,0.1,9.7c6.7,5.7,18.1,8.3,34,7.6c16.7,0,28.2-2.6,34.1-7.6
				c1.3-1.1,1-6.3,0.2-9.7c0-0.1,0-0.2,0-0.3l-0.4-34.7c0-0.1,0-0.2,0-0.2c0,0,0.6-4.8-1.6-8c-0.5-0.7-0.3-1.6,0.3-2
				c1-0.8,1.6-1.9,1.8-3.2c0.2-2.1-0.6-4.6-2.4-6.7c-0.3-0.3-0.4-0.7-0.3-1.1c0-0.4,0.2-0.8,0.5-1c5-4.1,3-18.2,0.4-22.2
				c-0.4-0.6-0.3-1.5,0.3-2c4.9-4.1,1.9-10.6,0.4-13.2c-0.3-0.5-0.3-1.1,0.1-1.6c4.9-7.2-0.2-12.8-0.2-12.9
				c-0.4-0.5-0.5-1.1-0.3-1.7c0.4-0.7,8.7-18.4-6.7-30.3c-13.9-10.7-16.6-21.5-17.1-25.4H164.7z"/>
		</g>
		<g>
			<path class="st167" d="M163.2,114.1c-0.5,0-2.2-0.1-3.3-1.2c-0.5-0.5-1-1.3-0.9-2.7c0.2-2.4,0-11.1,0-11.2
				c0.1-1.9,1.6-5.3,6.7-5.5c1.9-0.1,3.4-0.1,4.7-0.2c0.7,0,1.4-0.1,2-0.1c0.2-0.1,0.4-0.1,0.6-0.1c0,0,0.1,0,0.4,0
				c0.3,0,0.4,0,0.5,0c0.2,0,0.5,0,0.7,0.1c1.8,0.1,3.3,0.1,5.4,0.2l1.5,0.1c5.1,0.2,6.8,3.5,6.9,5.3c0,0.1,0,0.1,0,0.2
				c0,0.1-0.2,8.9,0,11.3c0.1,1.4-0.4,2.2-0.9,2.7c-1.3,1.3-3.3,1.2-3.5,1.2l-20.7,0C163.3,114.1,163.2,114.1,163.2,114.1z M162,99
				c0,0.9,0.2,9,0,11.4c0,0.3,0,0.3,0.1,0.4c0.2,0.2,0.9,0.3,1.2,0.3l20.8,0c0.4,0,1.1-0.1,1.3-0.3c0.1-0.1,0.1-0.2,0.1-0.4
				c-0.2-2.4,0-10.3,0-11.4c-0.1-0.4-0.7-2.4-4.1-2.5l-1.5-0.1c-2.2-0.1-3.8-0.1-5.8-0.2c-0.1,0-0.2,0-0.3,0c-0.1,0-0.1,0-0.2,0
				c-0.1,0-0.1,0-0.1,0c-0.1,0-0.1,0-0.2,0c-0.1,0-0.2,0-0.3,0c-0.7,0-1.5,0.1-2.4,0.1c-1.3,0.1-2.9,0.1-4.7,0.2
				C162.4,96.6,162,98.5,162,99z"/>
		</g>
	</g>
	<g>
		<path class="st167" d="M229.9,283.2c-7,0-13.9-0.1-19.9-0.2c-0.8,0-1.5-0.7-1.5-1.5c0-0.8,0.7-1.5,1.5-1.5
			c14.4,0.3,34.2,0.4,46.8-0.5c0.7-0.1,2.1-0.6,3.2-1c0.8-0.3,1.5-0.6,2.2-0.8c2-18.6-5-47.2-5-47.5c0,0,0-0.1,0-0.1
			c-4.3-25.9-23.6-31.8-27.5-32.7c0,0-0.1,0-0.2-0.1c-0.1,0-0.2,0-0.3-0.1H213c-0.7,0-1.5,0.1-2.3,0.2c-0.8,0.1-1.6-0.5-1.7-1.3
			c-0.1-0.8,0.5-1.6,1.3-1.7c0.9-0.1,1.8-0.2,2.6-0.2h16.4c0.1,0,0.2,0,0.3,0c0,0,0.2,0,0.5,0.1l0.2,0c4.2,1,25.2,7.4,29.8,35.1
			c0.5,1.9,7.4,30.7,5,49.6c-0.1,0.7-0.7,1.3-1.4,1.3c-0.5,0-1.6,0.5-2.6,0.9c-1.4,0.6-2.9,1.2-4.1,1.2
			C249.6,283.1,239.7,283.2,229.9,283.2z"/>
	</g>
	<g>
		<g>
			<path class="st168" d="M209,155.8"/>
		</g>
		<g>
			<path class="st167" d="M229.2,197.2h-16.4c-0.8,0-1.5-0.7-1.5-1.5s0.7-1.5,1.5-1.5h15.6l8.1-12.5c0-0.1,0.1-0.1,0.1-0.2l10-11.7
				l-6.9-0.8c-0.3,0-0.5-0.1-0.8-0.3l-6.3-4.9l-12,3.5c-0.5,0.1-1,0-1.4-0.3l-9.5-8.3c-0.6-0.5-0.7-1.5-0.1-2.1
				c0.5-0.6,1.5-0.7,2.1-0.1l8.9,7.8l12-3.5c0.5-0.1,1,0,1.3,0.3l6.6,5.1l9.3,1.1c0.5,0.1,1,0.4,1.2,0.9c0.2,0.5,0.1,1.1-0.3,1.5
				L239,183.4l-8.5,13.1C230.2,196.9,229.7,197.2,229.2,197.2z"/>
		</g>
		<g>
			<path class="st168" d="M209.6,189.2"/>
		</g>
		<g>
			<path class="st167" d="M245.6,169.5c-0.3,0-0.6-0.1-0.8-0.2c-0.7-0.4-0.9-1.4-0.5-2.1l3.3-5.2l-8.2-7.7l-13.1,3
				c-0.5,0.1-1,0-1.4-0.4l-7.1-7.2l-6.4,4.1c-0.7,0.4-1.6,0.2-2.1-0.5c-0.4-0.7-0.2-1.6,0.5-2.1l7.4-4.7c0.6-0.4,1.4-0.3,1.9,0.2
				l7.3,7.4l13.1-3c0.5-0.1,1,0,1.4,0.4l9.7,9.1c0.5,0.5,0.6,1.3,0.2,1.9l-4,6.3C246.6,169.3,246.1,169.5,245.6,169.5z"/>
		</g>
	</g>
	<g>
		<path class="st167" d="M229.8,197.4H211c-0.8,0-1.5-0.7-1.5-1.5s0.7-1.5,1.5-1.5h17.8l1.7-4.4l-20.4,0.1c0,0,0,0,0,0
			c-0.8,0-1.5-0.7-1.5-1.5c0-0.8,0.7-1.5,1.5-1.5l22.6-0.1c0,0,0,0,0,0c0.5,0,1,0.2,1.2,0.6c0.3,0.4,0.3,0.9,0.2,1.4l-2.8,7.4
			C231,197,230.5,197.4,229.8,197.4z"/>
	</g>
	<g>
		<path class="st167" d="M250.5,272.4h-23.9c-0.8,0-1.5-0.7-1.5-1.5s0.7-1.5,1.5-1.5h23.9c0.8,0,1.5,0.7,1.5,1.5
			S251.3,272.4,250.5,272.4z"/>
	</g>
	<g>
		<path class="st168" d="M221.5,269.9"/>
	</g>
	<g>
		<g>
			<path class="st167" d="M210.7,195.7c0,0-0.1,0-0.1,0c-0.8-0.1-1.4-0.8-1.4-1.6c0-0.3,0-0.6,0-0.9c0-1-0.2-2.1-0.5-3.2
				c-0.4-1.3-1-2.7-1.7-4c-0.3-0.5-0.3-1.1,0.1-1.6c0.2-0.3,0.4-0.5,0.5-0.8c4-6.8-0.6-11.8-0.8-12c-0.4-0.5-0.5-1.1-0.2-1.7
				c0-0.1,2.9-6.1,2.5-13.4c0,0,0-0.1,0-0.1c-0.1-2.1-0.6-4.2-1.3-6.2c0,0,0-0.1,0-0.1c-0.1-0.4-0.3-0.8-0.5-1.1
				c-0.3-0.8,0-1.6,0.7-2c0.8-0.3,1.6,0,2,0.7c0.2,0.5,0.4,1,0.6,1.4c0,0,0,0.1,0,0.1c0.8,2.2,1.3,4.6,1.4,7.1c0,0,0,0.1,0,0.1
				c0.4,6.4-1.5,11.9-2.4,13.9c2.1,2.8,4.2,8.5,0.5,14.8c0,0.1-0.1,0.1-0.1,0.2c0.6,1.2,1.2,2.5,1.6,3.8c0.4,1.4,0.6,2.7,0.6,3.9
				c0,0.4,0,0.8,0,1.3C212.1,195.1,211.4,195.7,210.7,195.7z"/>
		</g>
	</g>
	<g>
		<path class="st167" d="M81.6,276h-32c-0.8,0-1.5-0.7-1.5-1.5s0.7-1.5,1.5-1.5h32c0.8,0,1.5,0.7,1.5,1.5S82.5,276,81.6,276z"/>
	</g>
	<g>
		<path class="st167" d="M308.6,276h-22c-0.8,0-1.5-0.7-1.5-1.5s0.7-1.5,1.5-1.5h22c0.8,0,1.5,0.7,1.5,1.5S309.5,276,308.6,276z"/>
	</g>
	<g>
		<path class="st167" d="M167.6,238h-25c-0.8,0-1.5-0.7-1.5-1.5s0.7-1.5,1.5-1.5h25c0.8,0,1.5,0.7,1.5,1.5S168.5,238,167.6,238z"/>
	</g>
	<g>
		<path class="st167" d="M177.6,238h-3c-0.8,0-1.5-0.7-1.5-1.5s0.7-1.5,1.5-1.5h3c0.8,0,1.5,0.7,1.5,1.5S178.5,238,177.6,238z"/>
	</g>
	<g>
		<path class="st167" d="M219.6,272.4h-3c-0.8,0-1.5-0.7-1.5-1.5s0.7-1.5,1.5-1.5h3c0.8,0,1.5,0.7,1.5,1.5S220.5,272.4,219.6,272.4z
			"/>
	</g>
	<g>
		<path class="st167" d="M184.6,187h-45c-0.8,0-1.5-0.7-1.5-1.5s0.7-1.5,1.5-1.5h45c0.8,0,1.5,0.7,1.5,1.5S185.5,187,184.6,187z"/>
	</g>
	<g>
		<path class="st167" d="M231.6,214h-20c-0.8,0-1.5-0.7-1.5-1.5s0.7-1.5,1.5-1.5h20c0.8,0,1.5,0.7,1.5,1.5S232.5,214,231.6,214z"/>
	</g>
	<g>
		<path class="st167" d="M111.6,215h-11c-0.8,0-1.5-0.7-1.5-1.5s0.7-1.5,1.5-1.5h11c0.8,0,1.5,0.7,1.5,1.5S112.5,215,111.6,215z"/>
	</g>
	<g>
		<path class="st167" d="M161.6,251h-21c-0.8,0-1.5-0.7-1.5-1.5s0.7-1.5,1.5-1.5h21c0.8,0,1.5,0.7,1.5,1.5S162.5,251,161.6,251z"/>
	</g>
	<g>
		<path class="st167" d="M153.6,275h-13c-0.8,0-1.5-0.7-1.5-1.5s0.7-1.5,1.5-1.5h13c0.8,0,1.5,0.7,1.5,1.5S154.5,275,153.6,275z"/>
	</g>
	<g>
		<g>
			<path class="st167" d="M156.6,263h-16c-0.8,0-1.5-0.7-1.5-1.5s0.7-1.5,1.5-1.5h16c0.8,0,1.5,0.7,1.5,1.5S157.5,263,156.6,263z"/>
		</g>
		<g>
			<path class="st167" d="M175.6,263h-9c-0.8,0-1.5-0.7-1.5-1.5s0.7-1.5,1.5-1.5h9c0.8,0,1.5,0.7,1.5,1.5S176.5,263,175.6,263z"/>
		</g>
	</g>
	<g>
		<path class="st167" d="M158.6,227h-16c-0.8,0-1.5-0.7-1.5-1.5s0.7-1.5,1.5-1.5h16c0.8,0,1.5,0.7,1.5,1.5S159.5,227,158.6,227z"/>
	</g>
	<g>
		<path class="st167" d="M155.6,216h-16c-0.8,0-1.5-0.7-1.5-1.5s0.7-1.5,1.5-1.5h16c0.8,0,1.5,0.7,1.5,1.5S156.5,216,155.6,216z"/>
	</g>
	<g>
		<path class="st167" d="M174.6,122h-12c-0.8,0-1.5-0.7-1.5-1.5s0.7-1.5,1.5-1.5h12c0.8,0,1.5,0.7,1.5,1.5S175.5,122,174.6,122z"/>
	</g>
	<g>
		<path class="st167" d="M173.6,131h-16c-0.8,0-1.5-0.7-1.5-1.5s0.7-1.5,1.5-1.5h16c0.8,0,1.5,0.7,1.5,1.5S174.5,131,173.6,131z"/>
	</g>
	<g>
		<path class="st167" d="M173.6,141h-26c-0.8,0-1.5-0.7-1.5-1.5s0.7-1.5,1.5-1.5h26c0.8,0,1.5,0.7,1.5,1.5S174.5,141,173.6,141z"/>
	</g>
	<g>
		<path class="st167" d="M325.6,276h-9c-0.8,0-1.5-0.7-1.5-1.5s0.7-1.5,1.5-1.5h9c0.8,0,1.5,0.7,1.5,1.5S326.5,276,325.6,276z"/>
	</g>
	<g>
		<path class="st167" d="M337.6,276h-4c-0.8,0-1.5-0.7-1.5-1.5s0.7-1.5,1.5-1.5h4c0.8,0,1.5,0.7,1.5,1.5S338.5,276,337.6,276z"/>
	</g>
	<g>
		<path class="st167" d="M38.6,276h-28c-0.8,0-1.5-0.7-1.5-1.5s0.7-1.5,1.5-1.5h28c0.8,0,1.5,0.7,1.5,1.5S39.5,276,38.6,276z"/>
	</g>
	<g>
		<g>
			<g>
				<path class="st167" d="M284.9,269.9c-0.8,0-1.5-0.7-1.5-1.5v-63.9c0-0.8,0.7-1.5,1.5-1.5s1.5,0.7,1.5,1.5v63.9
					C286.4,269.2,285.7,269.9,284.9,269.9z"/>
			</g>
			<g>
				<path class="st167" d="M286.1,205h-40.9c-0.8,0-1.5-0.7-1.5-1.5s0.7-1.5,1.5-1.5h40.3c0.1-0.2,0.1-0.6,0.2-1l0-0.9
					c0-0.4-0.1-0.7-0.1-0.9h-44.8c-0.8,0-1.5-0.7-1.5-1.5s0.7-1.5,1.5-1.5h45.3c1.7,0,2.6,2,2.6,3.9v1
					C288.5,203.5,287.5,205,286.1,205z M286.1,199.2L286.1,199.2L286.1,199.2z"/>
			</g>
			<g>
				<path class="st167" d="M286.1,276h-22c-0.8,0-1.5-0.7-1.5-1.5s0.7-1.5,1.5-1.5h21.5c0.1-0.2,0.1-0.6,0.2-1l0-0.9
					c0-0.4-0.1-0.7-0.1-0.9h-21.4c-0.8,0-1.5-0.7-1.5-1.5s0.7-1.5,1.5-1.5h21.9c1.7,0,2.6,2,2.6,3.9v1
					C288.5,274.5,287.5,276,286.1,276z M286.1,270.2L286.1,270.2L286.1,270.2z"/>
			</g>
		</g>
	</g>
	<g>
		<g>
			<path class="st167" d="M264,276.4C264,276.4,263.9,276.4,264,276.4c-0.9-0.1-1.6-0.8-1.5-1.6c0.1-1.8,0.2-3.7,0.1-5.7l0-0.1
				c0,0,0-0.1,0-0.1c-0.1-5.4-0.6-11.7-1.6-18.7c-1.6-11-3.8-20-3.8-20.1c0,0,0-0.1,0-0.1c-0.3-1.9-0.7-3.8-1.3-5.7
				c-2.2-7.9-6.2-14.4-11.7-19.3l-0.2-0.2c-1.6-1.4-3.3-2.7-5.1-3.7c-0.7-0.4-0.9-1.3-0.5-2.1c0.4-0.7,1.3-0.9,2.1-0.5
				c1.9,1.1,3.8,2.5,5.5,4l0.2,0.2c6,5.3,10.3,12.3,12.7,20.7c0.5,1.9,1,3.9,1.3,5.9c0.2,0.8,2.3,9.6,3.8,20.3
				c1,7.1,1.6,13.5,1.6,19c0,0.1,0,0.2,0,0.3c0,2.1,0,4.1-0.1,5.9C265.5,275.8,264.8,276.4,264,276.4z"/>
		</g>
		<g>
			<g>
				<path class="st168" d="M209,155.8"/>
			</g>
		</g>
	</g>
	<g>
		<path class="st167" d="M122.6,252h-14c-0.8,0-1.5-0.7-1.5-1.5s0.7-1.5,1.5-1.5h14c0.8,0,1.5,0.7,1.5,1.5S123.5,252,122.6,252z"/>
	</g>
	<g>
		<path class="st167" d="M124.6,270h-14c-0.8,0-1.5-0.7-1.5-1.5s0.7-1.5,1.5-1.5h14c0.8,0,1.5,0.7,1.5,1.5S125.5,270,124.6,270z"/>
	</g>
	<g>
		<path class="st167" d="M118.6,261h-10c-0.8,0-1.5-0.7-1.5-1.5s0.7-1.5,1.5-1.5h10c0.8,0,1.5,0.7,1.5,1.5S119.5,261,118.6,261z"/>
	</g>
</g>
</svg>
