<?xml version="1.0" encoding="utf-8"?>
<!-- Generator: Adobe Illustrator 21.0.2, SVG Export Plug-In . SVG Version: 6.00 Build 0)  -->
<svg version="1.1" id="Capa_1" xmlns="http://www.w3.org/2000/svg" xmlns:xlink="http://www.w3.org/1999/xlink" x="0px" y="0px"
	 viewBox="0 0 334 329" style="enable-background:new 0 0 334 329;" xml:space="preserve">
<style type="text/css">
	.st0{fill:#FFFFFF;stroke:#0A6FCB;stroke-width:5;stroke-miterlimit:10;}
	.st1{fill:#FFFFFF;stroke:#0A6FCB;stroke-width:10;stroke-miterlimit:10;}
	.st2{fill:none;stroke:#0A6FCB;stroke-width:5;stroke-miterlimit:10;}
</style>
<path class="st0" d="M285,324.9H49c-14.3,0-26-11.7-26-26V28.5c0-14.3,11.7-26,26-26H285c14.3,0,26,11.7,26,26v270.3
	C311,313.2,299.3,324.9,285,324.9z"/>
<line class="st0" x1="23" y1="38.6" x2="310.5" y2="38.6"/>
<line class="st0" x1="23" y1="101.6" x2="310.5" y2="101.6"/>
<line class="st0" x1="23" y1="135.6" x2="310.5" y2="135.6"/>
<line class="st0" x1="23" y1="170.6" x2="310.5" y2="170.6"/>
<line class="st0" x1="23" y1="205.6" x2="310.5" y2="205.6"/>
<line class="st0" x1="23" y1="240.6" x2="310.5" y2="240.6"/>
<line class="st1" x1="45" y1="21.4" x2="104" y2="21"/>
<line class="st2" x1="119.5" y1="2.5" x2="119.5" y2="38.5"/>
<line class="st2" x1="226.5" y1="2.5" x2="226.5" y2="38.5"/>
<line class="st2" x1="180.5" y1="38.5" x2="180.5" y2="101.5"/>
</svg>
