<?xml version="1.0" encoding="utf-8"?>
<!-- Generator: Adobe Illustrator 21.0.2, SVG Export Plug-In . SVG Version: 6.00 Build 0)  -->
<svg version="1.1" id="Capa_1" xmlns="http://www.w3.org/2000/svg" xmlns:xlink="http://www.w3.org/1999/xlink" x="0px" y="0px"
	 viewBox="0 0 71 100" style="enable-background:new 0 0 71 100;" xml:space="preserve">
<style type="text/css">
	.st0{fill:url(#SVGID_1_);}
</style>
<g>
	<g>
		<linearGradient id="SVGID_1_" gradientUnits="userSpaceOnUse" x1="21.3837" y1="9.5136" x2="59.0801" y2="99.6571">
			<stop  offset="0" style="stop-color:#FF9800"/>
			<stop  offset="1" style="stop-color:#FFCE0D"/>
		</linearGradient>
		<path class="st0" d="M11.8,64.6c-2.5,0-4.5,2-4.5,4.5v26.2c0,2.5,2,4.5,4.5,4.5c2.5,0,4.5-2,4.5-4.5V69.1
			C16.3,66.6,14.3,64.6,11.8,64.6z M39.1,49.9c-2.5,0-4.5,2-4.5,4.5v40.9c0,2.5,2,4.5,4.5,4.5c2.5,0,4.5-2,4.5-4.5V54.4
			C43.6,51.9,41.6,49.9,39.1,49.9z M66.3,41.5c-2.5,0-4.5,1.8-4.5,3.9V96c0,2.2,2,3.9,4.5,3.9c2.5,0,4.5-1.8,4.5-3.9V45.4
			C70.9,43.3,68.8,41.5,66.3,41.5z M65.4,29.4c2,0,3.7-1.6,3.7-3.7v-22c0-0.5-0.1-1-0.3-1.4c-0.4-0.9-1.1-1.6-2-2
			C66.4,0.1,65.9,0,65.4,0h-22c-2,0-3.7,1.6-3.7,3.7s1.6,3.7,3.7,3.7v0h13.2L36.4,27.5l-9.3-9.3c-1.4-1.4-3.8-1.4-5.2,0L1.2,38.8
			c-1.4,1.4-1.4,3.8,0,5.2c1.4,1.4,3.8,1.4,5.2,0l18.1-18.1l9.3,9.3c1.4,1.4,3.8,1.4,5.2,0l22.7-22.7v13.2
			C61.7,27.7,63.4,29.4,65.4,29.4z"/>
	</g>
</g>
</svg>
