<?xml version="1.0" encoding="utf-8"?>
<!-- Generator: Adobe Illustrator 21.0.2, SVG Export Plug-In . SVG Version: 6.00 Build 0)  -->
<svg version="1.1" id="Capa_1" xmlns="http://www.w3.org/2000/svg" xmlns:xlink="http://www.w3.org/1999/xlink" x="0px" y="0px"
	 viewBox="0 0 94.5 75.1" style="enable-background:new 0 0 94.5 75.1;" xml:space="preserve">
<style type="text/css">
	.st0{fill:#F9F0CD;}
	.st1{fill:#FFA582;}
	.st2{fill:#FFFFFF;}
	.st3{opacity:0.15;}
	.st4{fill:none;stroke:#0D6BB2;stroke-width:2;stroke-linecap:round;stroke-linejoin:round;stroke-miterlimit:10;}
	.st5{fill:#73F7FF;}
	.st6{fill:none;stroke:#0D6BB2;stroke-width:1.75;stroke-linecap:round;stroke-miterlimit:10;}
	.st7{fill:#FF8882;}
	.st8{fill:none;stroke:#0D6BB2;stroke-width:1.75;stroke-linecap:round;stroke-linejoin:round;stroke-miterlimit:10;}
</style>
<g>
	<path class="st0" d="M53.7,50.3V70c0,2.3-1.8,4.1-4.1,4.1H9.9c-2.3,0-4.1-1.8-4.1-4.1V50.3"/>
	<g>
		<g>
			<g>
				<path class="st1" d="M60.8,45.5c-0.1-0.9-0.3-1.8-0.7-2.7c0,0,0,0,0-0.1L47.5,24.8c-1-1.3-2.6-2.1-4.2-2.1H17.6
					c-1.7,0-3.2,0.8-4.2,2.1L0.8,42.7l0,0l0,0l-0.1,0.1l0,0c-0.4,0.8-0.6,1.7-0.7,2.5l0,0l0,0c-0.3,3.9,2.6,7.6,6.8,7.8
					c0.1,0,0.2,0,0.3,0c4.3,0,7.8-3.5,7.8-7.8l0,0l0,0c0,0.3,0,0.5,0,0.8c0.4,3.9,3.7,7,7.7,7c3.9,0,7.2-2.9,7.7-6.8l0,0
					c0-0.3,0.1-0.7,0.1-1c0,4.3,3.5,7.8,7.8,7.8s7.8-3.5,7.8-7.8l0,0c0,0.7,0.1,1.3,0.3,2c0.9,3.3,3.9,5.8,7.5,5.8
					c0.1,0,0.2,0,0.3,0C58.2,53,61.1,49.3,60.8,45.5z"/>
			</g>
		</g>
		<path class="st2" d="M30.4,22.7l-0.1,21.8v1.9l0,0l0,0c-0.5,3.8-3.7,6.8-7.7,6.8s-7.3-3-7.7-7l1.2-5l6.5-18.5H30.4z"/>
		<path class="st2" d="M54,53.2c-0.1,0-0.2,0-0.3,0c-3.6,0-6.6-2.5-7.5-5.8l-0.3-2l0,0L45,41.8l-6.8-19.1h5.1c1.7,0,3.2,0.8,4.2,2.1
			l12.6,17.9c0,0,0,0,0,0.1c0.4,0.9,0.7,1.8,0.7,2.7C61.1,49.3,58.2,53,54,53.2z"/>
		<g class="st3">
			<g>
				<path d="M14.9,45.5L14.9,45.5c0,4.3-3.5,7.8-7.8,7.8c-0.1,0-0.2,0-0.3,0c-4.2-0.3-7.1-4-6.8-7.8H14.9z"/>
				<path d="M30.4,45.5c0,0.3,0,0.7-0.1,1l0,0c-0.5,3.8-3.7,6.8-7.7,6.8s-7.3-3-7.7-7c0-0.3,0-0.5,0-0.8l0,0H30.4z"/>
				<path d="M45.9,45.5L45.9,45.5c0,4.3-3.5,7.8-7.8,7.8s-7.8-3.5-7.8-7.8H45.9z"/>
				<path d="M54,53.2c-0.1,0-0.2,0-0.3,0c-3.6,0-6.6-2.5-7.5-5.8c-0.2-0.6-0.3-1.3-0.3-2l0,0h14.9C61.1,49.3,58.2,53,54,53.2z"/>
			</g>
		</g>
	</g>
	<g>
		<g>
			<g>
				<path class="st4" d="M63.6,46.2c-0.1-0.9-0.3-1.8-0.7-2.7c0,0,0,0,0-0.1L50.1,25.2c-1-1.4-2.6-2.1-4.3-2.1H19.7
					c-1.7,0-3.3,0.8-4.3,2.1L2.6,43.4l0,0l0,0l-0.1,0.1l0,0c-0.4,0.8-0.6,1.7-0.7,2.6l0,0l0,0C1.5,50,4.5,53.8,8.7,54
					c0.1,0,0.2,0,0.3,0c4.3,0,7.9-3.5,7.9-7.9l0,0l0,0c0,0.3,0,0.5,0,0.8c0.4,4,3.8,7.1,7.8,7.1s7.3-3,7.8-6.9l0,0
					c0-0.3,0.1-0.7,0.1-1c0,4.3,3.5,7.9,7.9,7.9s7.9-3.5,7.9-7.9l0,0c0,0.7,0.1,1.4,0.3,2c0.9,3.4,4,5.9,7.6,5.9c0.1,0,0.2,0,0.3,0
					C61,53.8,63.9,50.1,63.6,46.2z"/>
			</g>
		</g>
		<polyline class="st4" points="32.7,23.2 32.7,47.1 32.7,47.2 32.7,47.2 		"/>
		<polyline class="st4" points="16.9,46.2 18.1,41.8 24.7,23.2 		"/>
		<polyline class="st4" points="48.5,46.2 47.6,42.4 40.7,23.2 		"/>
		<path class="st4" d="M56.7,54.3V70c0,2.3-1.8,4.1-4.1,4.1H12.9c-2.3,0-4.1-1.8-4.1-4.1V54.3"/>
	</g>
</g>
<g>
	<path class="st5" d="M69.4,56.1c0.1,0,2.6-1.3,5.9-3.6c1.9-1.3,4-3,6.1-4.9c2.4-2.3,4.7-5,6.5-8.1c0.2-0.4,0.5-0.9,0.7-1.3
		c0.8-1.6,1.4-3.2,1.8-5c0.3-1.5,0.5-3,0.5-4.6V11c0-1.1-0.7-2-1.6-2.4L69.2,1c-0.6-0.2-1.2-0.2-1.8,0L47.3,8.6
		c-1,0.4-1.6,1.3-1.6,2.4v17.6c0,1.6,0.2,3.1,0.5,4.6c0.4,1.8,1,3.4,1.8,5c0.2,0.4,0.5,0.9,0.7,1.3c1.8,3.1,4.1,5.8,6.5,8.1
		c2.1,2,4.2,3.6,6.1,4.9c3.3,2.3,5.9,3.6,5.9,3.6C67.9,56.4,68.7,56.4,69.4,56.1L69.4,56.1z"/>
	<path class="st6" d="M72.1,56.1c0.1,0,2.6-1.3,5.9-3.6c1.9-1.3,4-3,6.1-4.9c2.4-2.3,4.7-5,6.5-8.1c0.2-0.4,0.5-0.9,0.7-1.3
		c0.8-1.6,1.4-3.2,1.8-5c0.3-1.5,0.5-3,0.5-4.6V11c0-1.1-0.7-2-1.6-2.4L71.8,1c-0.6-0.2-1.2-0.2-1.8,0L49.9,8.6
		c-1,0.4-1.6,1.3-1.6,2.4v17.6c0,1.6,0.2,3.1,0.5,4.6c0.4,1.8,1,3.4,1.8,5c0.2,0.4,0.5,0.9,0.7,1.3c1.8,3.1,4.1,5.8,6.5,8.1
		c2.1,2,4.2,3.6,6.1,4.9c3.3,2.3,5.9,3.6,5.9,3.6C70.5,56.4,71.4,56.4,72.1,56.1L72.1,56.1z"/>
	<g>
		<polygon class="st7" points="68.3,9.2 71.9,20.3 83.6,20.3 74.2,27.2 77.8,38.3 68.3,31.4 58.8,38.3 62.5,27.2 53,20.3 64.7,20.3 
					"/>
	</g>
	<polygon class="st8" points="70.9,9.2 74.6,20.3 86.3,20.3 76.8,27.2 80.4,38.3 70.9,31.4 61.5,38.3 65.1,27.2 55.6,20.3 
		67.3,20.3 	"/>
</g>
</svg>
