<?xml version="1.0" encoding="utf-8"?>
<!-- Generator: Adobe Illustrator 21.0.2, SVG Export Plug-In . SVG Version: 6.00 Build 0)  -->
<svg version="1.1" id="Capa_1" xmlns="http://www.w3.org/2000/svg" xmlns:xlink="http://www.w3.org/1999/xlink" x="0px" y="0px"
	 viewBox="0 0 1200.2 934.1" style="enable-background:new 0 0 1200.2 934.1;" xml:space="preserve">
<style type="text/css">
	.st0{fill:#FFFFFF;}
</style>
<title></title>
<g id="icomoon-ignore">
</g>
<g>
	<circle class="st0" cx="719.7" cy="856.7" r="72"/>
	<circle class="st0" cx="323.9" cy="856.7" r="72"/>
	<path class="st0" d="M1179.9,425.4L952.3,40.6c-10.8-19-29.8-32.5-51.5-37.9s-43.3-2.7-62.3,8.1c-10.8,5.4-21.7,16.3-27.1,27.1
		l-142.7,243h-424l-28.8-151.2c-3.6-18-18-28.8-36-28.8H36c-21.6,0-36,14.4-36,36c0,21.6,14.4,36,36,36h115.2l28.8,151.1v3.6
		l61.2,298.7c10.8,50.4,54,86.4,104.4,86.4c0,0,0,0,3.6,0h349.1c54,0,97.2-36,108-86.4l15-79h291c21.7,0,43.4-8.1,56.9-24.4
		c16.2-16.3,24.4-35.2,24.4-56.9C1190.8,452.5,1188.1,436.3,1179.9,425.4z M734.1,612c-3.6,18-18,28.8-36,28.8H349.1
		c-18,0-32.4-10.8-36-28.8l-54-259.1h367.3l-42.6,72.6c-21.7,37.9-8.1,89.4,29.8,111.1c10.8,8.1,24.4,10.8,37.9,10.8h95.2L734.1,612
		z M1131.2,485.1c-5.4,5.4-13.6,8.1-19,8.1H831.5h-74.2H651.5c-5.4,0-8.1,0-13.5-2.7c-13.6-8.1-16.3-24.4-10.8-37.9l60.1-99.7
		l43.4-72L857.5,70.5c2.7-2.7,5.4-8.1,8.1-8.1c13.5-8.1,29.8-2.7,37.9,8.1l230.3,382.1c2.7,2.7,2.7,8.1,2.7,13.5
		C1139.3,474.2,1133.9,479.6,1131.2,485.1z"/>
	<path class="st0" d="M862.9,392.9c-5.4,5.4-8.1,10.8-8.1,19s2.7,13.5,8.1,19c5.4,5.4,10.8,8.1,19,8.1c8.1,0,13.5-2.7,19-8.1
		c5.4-5.4,8.1-13.5,8.1-19s-2.7-13.5-8.1-19C890,382.1,873.7,382.1,862.9,392.9z"/>
	<path class="st0" d="M881.8,168c-16.2,0-27.1,10.8-27.1,27.1v97.8v10.6c0,8.9,3.3,16.2,8.9,21c4.6,3.9,10.9,6.2,18.2,6.2
		c16.3,0,27.1-10.8,27.1-27.1V195.1C908.9,178.9,898.1,168,881.8,168z"/>
</g>
</svg>
