<?xml version="1.0" encoding="utf-8"?>
<!-- Generator: Adobe Illustrator 21.0.2, SVG Export Plug-In . SVG Version: 6.00 Build 0)  -->
<svg version="1.1" id="Layer_1" xmlns="http://www.w3.org/2000/svg" xmlns:xlink="http://www.w3.org/1999/xlink" x="0px" y="0px"
	 viewBox="0 0 671.1 152" style="enable-background:new 0 0 671.1 152;" xml:space="preserve">
<style type="text/css">
	.st0{fill:url(#SVGID_1_);}
</style>
<linearGradient id="SVGID_1_" gradientUnits="userSpaceOnUse" x1="0" y1="78.25" x2="671.0999" y2="78.25" gradientTransform="matrix(1 0 0 -1 0 154)">
	<stop  offset="0" style="stop-color:#00B1E2"/>
	<stop  offset="1" style="stop-color:#0A6CCB"/>
</linearGradient>
<path class="st0" d="M229.6,92.4c34.4,0,57.2,16.6,65,23.3c10.4,10.6,24.9,17.3,40.9,17.3c14.1,0,27.1-5.1,37.1-13.7v0.1
	c0,0,0.3-0.3,0.9-0.9s1.2-1.1,1.8-1.7c7.6-6.8,30.5-24.4,65.2-24.4c34.9,0,58,17.1,65.3,23.6c10.4,10.5,24.7,16.9,40.6,16.9
	c17.2,0,32.5-7.6,43-19.5c8.2-6.7,25.3-18,49.6-21.1h26c2.1,0.3,4.1,0.6,6.1,1V57.8c-4,0.7-8.2,1.3-12.6,1.5h-10.9
	c-39.6-2-62.5-25.8-62.5-25.8c-10.2-9.2-23.7-14.9-38.5-14.9c-16.6,0-31.6,7.1-42.1,18.4c-8.8,7.3-28.8,20.7-57.6,22.2h-10.8
	c-30.1-1.6-50.6-15.7-58.6-22.4c-10.4-11.3-25.4-18.3-41.9-18.3c-16.8,0-31.8,7.2-42.3,18.7c-8.9,7.3-28.8,20.5-57.3,22h-10.9
	c-30.5-1.6-51.1-16-59-22.6c-10.4-11.1-25.2-18.1-41.7-18.1c-14.3,0-27.4,5.3-37.4,13.9v-0.1c0,0-0.2,0.2-0.6,0.6
	c-0.8,0.7-1.6,1.4-2.3,2.2c-7.3,6.5-28.2,22.4-59.7,24.1H13.6C8.8,59,4.3,58.4,0,57.6v35.5c1.7-0.3,3.4-0.6,5.2-0.8h26
	c24.8,3.1,42.1,14.5,50,20.8c10.5,12.1,26,19.8,43.3,19.8c14.2,0,27.1-5.2,37.1-13.7v0.2C161.6,119.4,186.6,92.4,229.6,92.4"/>
</svg>
